InterAlia-ExtraBoldItalic.ufo
<glyph name="exclam" format="2">
  <advance height="2479.0" width="695.6"/>
  <unicode hex="0021"/>
  <outline>
    <contour>
      <point x="682.8" y="1489.0" type="line"/>
      <point x="319.2" y="1489.0" type="line"/>
      <point x="181.79999999999998" y="455.8" type="line"/>
      <point x="478.8" y="455.8" type="line"/>
    </contour>
    <component base="period" xOffset="38.2"/>
  </outline>
</glyph>
<glyph name="numbersign" format="2">
  <advance height="2479.0" width="1343.2"/>
  <unicode hex="0023"/>
  <outline>
    <contour>
      <point x="697.2" y="0.0" type="line"/>
      <point x="959.2" y="0.0" type="line"/>
      <point x="1230.0" y="1489.0" type="line"/>
      <point x="968.2" y="1489.0" type="line"/>
    </contour>
    <contour>
      <point x="39.99999999999999" y="354.6" type="line"/>
      <point x="1220.6000000000001" y="354.6" type="line"/>
      <point x="1270.6" y="616.6" type="line"/>
      <point x="89.2" y="616.6" type="line"/>
    </contour>
    <contour>
      <point x="174.2" y="0.0" type="line"/>
      <point x="436.0" y="0.0" type="line"/>
      <point x="706.2" y="1489.0" type="line"/>
      <point x="444.2" y="1489.0" type="line"/>
    </contour>
    <contour>
      <point x="134.39999999999998" y="872.6" type="line"/>
      <point x="1315.8" y="872.6" type="line"/>
      <point x="1364.1999999999998" y="1134.4" type="line"/>
      <point x="182.8" y="1134.4" type="line"/>
    </contour>
  </outline>
</glyph>
<glyph name="dollar" format="2">
  <advance height="2479.0" width="1352.4"/>
  <unicode hex="0024"/>
  <anchor x="588.6" y="-5.199999999999999" name="bottom"/>
  <anchor x="587.2" y="0.0" name="cedilla"/>
  <anchor x="863.6" y="1676.0" name="top"/>
  <outline>
    <contour>
      <point x="507.0" y="-186.0" type="line"/>
      <point x="627.0" y="-186.0" type="line"/>
      <point x="935.0" y="1676.0" type="line"/>
      <point x="816.0" y="1676.0" type="line"/>
    </contour>
    <component base="S"/>
  </outline>
</glyph>
<glyph name="percent" format="2">
  <advance height="2479.0" width="1792.0"/>
  <unicode hex="0025"/>
  <anchor x="1194.4" y="791.0" name="dnom"/>
  <anchor x="657.4" y="698.0" name="numr"/>
  <outline>
    <contour>
      <point x="897.4" y="279.0" type="line" smooth="yes"/>
      <point x="863.4" y="96.2"/>
      <point x="959.8" y="-62.400000000000006"/>
      <point x="1180.8" y="-62.400000000000006" type="curve" smooth="yes"/>
      <point x="1400.6" y="-62.400000000000006"/>
      <point x="1544.8" y="96.2"/>
      <point x="1578.8" y="279.0" type="curve" smooth="yes"/>
      <point x="1592.8" y="358.0" type="line" smooth="yes"/>
      <point x="1627.6" y="543.2"/>
      <point x="1531.0" y="699.4"/>
      <point x="1307.6000000000001" y="699.4" type="curve" smooth="yes"/>
      <point x="1090.4" y="699.4"/>
      <point x="945.4" y="540.8"/>
      <point x="911.4" y="358.0" type="curve" smooth="yes"/>
    </contour>
    <contour>
      <point x="1143.6" y="358.0" type="line" smooth="yes"/>
      <point x="1155.8" y="422.4"/>
      <point x="1192.0" y="492.8"/>
      <point x="1273.8" y="492.8" type="curve" smooth="yes"/>
      <point x="1361.1999999999998" y="492.8"/>
      <point x="1370.6000000000001" y="422.4"/>
      <point x="1358.4" y="358.0" type="curve" smooth="yes"/>
      <point x="1344.2" y="279.0" type="line" smooth="yes"/>
      <point x="1332.2" y="215.4"/>
      <point x="1299.0" y="146.6"/>
      <point x="1214.6000000000001" y="146.6" type="curve" smooth="yes"/>
      <point x="1132.0" y="146.6"/>
      <point x="1118.1999999999998" y="217.8"/>
      <point x="1129.3999999999999" y="279.0" type="curve" smooth="yes"/>
    </contour>
    <contour>
      <point x="268.0" y="1132.0" type="line" smooth="yes"/>
      <point x="240.0" y="947.2"/>
      <point x="330.40000000000003" y="792.8"/>
      <point x="550.5999999999999" y="792.8" type="curve" smooth="yes"/>
      <point x="771.0" y="792.8"/>
      <point x="921.4" y="945.5999999999999"/>
      <point x="949.4" y="1132.0" type="curve" smooth="yes"/>
      <point x="960.4" y="1210.0" type="line" smooth="yes"/>
      <point x="988.4" y="1397.0"/>
      <point x="898.6" y="1551.6"/>
      <point x="675.1999999999999" y="1551.6" type="curve" smooth="yes"/>
      <point x="460.2" y="1551.6"/>
      <point x="307.0" y="1397.0"/>
      <point x="279.0" y="1210.0" type="curve" smooth="yes"/>
    </contour>
    <contour>
      <point x="513.6" y="1210.0" type="line" smooth="yes"/>
      <point x="522.6" y="1272.0"/>
      <point x="559.4" y="1345.0"/>
      <point x="641.4" y="1345.0" type="curve" smooth="yes"/>
      <point x="728.8" y="1345.0"/>
      <point x="735.8" y="1274.4"/>
      <point x="726.0" y="1210.0" type="curve" smooth="yes"/>
      <point x="714.8" y="1132.0" type="line" smooth="yes"/>
      <point x="704.8" y="1066.6"/>
      <point x="669.4" y="998.6"/>
      <point x="585.0" y="998.6" type="curve" smooth="yes"/>
      <point x="505.0" y="998.6"/>
      <point x="492.4" y="1066.6"/>
      <point x="502.4" y="1132.0" type="curve" smooth="yes"/>
    </contour>
    <component base="fraction" xOffset="617.0"/>
  </outline>
</glyph>
<glyph name="ampersand" format="2">
  <advance height="2479.0" width="1440.8"/>
  <unicode hex="0026"/>
  <outline>
    <contour>
      <point x="484.4" y="-22.4" type="curve"/>
      <point x="613.5999999999999" y="-22.4"/>
      <point x="759.4" y="11.2"/>
      <point x="886.1999999999999" y="92.8" type="curve"/>
      <point x="923.4" y="112.4"/>
      <point x="959.8" y="129.0"/>
      <point x="997.8" y="148.6" type="curve"/>
      <point x="1185.1999999999998" y="269.0"/>
      <point x="1306.0" y="485.4"/>
      <point x="1347.8" y="752.0" type="curve"/>
      <point x="1061.2" y="752.0" type="line"/>
      <point x="1013.8000000000001" y="462.4"/>
      <point x="757.2" y="259.0"/>
      <point x="554.0" y="259.0" type="curve" smooth="yes"/>
      <point x="439.40000000000003" y="259.0"/>
      <point x="378.6" y="323.2"/>
      <point x="392.0" y="419.2" type="curve"/>
      <point x="402.8" y="480.8"/>
      <point x="451.6" y="533.6"/>
      <point x="522.4" y="579.2" type="curve" smooth="yes"/>
      <point x="866.4000000000001" y="798.6" type="line" smooth="yes"/>
      <point x="1008.0" y="888.8000000000001"/>
      <point x="1098.8" y="1006.0"/>
      <point x="1121.8" y="1146.6" type="curve"/>
      <point x="1155.6000000000001" y="1344.6"/>
      <point x="1030.6" y="1511.2"/>
      <point x="785.0" y="1511.2" type="curve" smooth="yes"/>
      <point x="532.5999999999999" y="1511.2"/>
      <point x="337.0" y="1335.0"/>
      <point x="299.4" y="1113.4" type="curve" smooth="yes"/>
      <point x="265.8" y="915.2"/>
      <point x="378.4" y="762.0"/>
      <point x="462.8" y="648.2" type="curve" smooth="yes"/>
      <point x="951.2" y="0.0" type="line"/>
      <point x="1313.4" y="0.0" type="line"/>
      <point x="732.5999999999999" y="802.2" type="line" smooth="yes"/>
      <point x="650.2" y="928.1999999999999"/>
      <point x="579.8" y="1017.4"/>
      <point x="592.0" y="1108.0" type="curve" smooth="yes"/>
      <point x="601.6" y="1178.6000000000001"/>
      <point x="663.8" y="1228.0"/>
      <point x="739.2" y="1228.0" type="curve" smooth="yes"/>
      <point x="821.6" y="1228.0"/>
      <point x="854.8000000000001" y="1175.2"/>
      <point x="844.6" y="1122.6" type="curve"/>
      <point x="835.4" y="1075.0"/>
      <point x="801.8000000000001" y="1023.2"/>
      <point x="723.2" y="977.6" type="curve"/>
      <point x="377.40000000000003" y="778.4" type="line"/>
      <point x="199.8" y="669.4"/>
      <point x="75.0" y="567.5999999999999"/>
      <point x="47.599999999999994" y="396.0" type="curve"/>
      <point x="9.799999999999994" y="163.60000000000002"/>
      <point x="170.4" y="-22.4"/>
    </contour>
  </outline>
</glyph>
<glyph name="quotesingle" format="2">
  <advance height="2479.0" width="544.2"/>
  <unicode hex="0027"/>
  <outline>
    <contour>
      <point x="580.8" y="1489.0" type="line"/>
      <point x="271.4" y="1489.0" type="line"/>
      <point x="210.4" y="905.0" type="line"/>
      <point x="449.8" y="905.0" type="line"/>
    </contour>
  </outline>
</glyph>
<glyph name="parenleft" format="2">
  <advance height="2479.0" width="870.0"/>
  <unicode hex="0028"/>
  <outline>
    <contour>
      <point x="187.6" y="586.4" type="curve" smooth="yes"/>
      <point x="129.0" y="226.8"/>
      <point x="174.0" y="-72.0"/>
      <point x="336.0" y="-330.2" type="curve"/>
      <point x="679.8000000000001" y="-330.2" type="line"/>
      <point x="556.0" y="-138.2"/>
      <point x="500.20000000000005" y="242.8"/>
      <point x="558.2" y="586.4" type="curve" smooth="yes"/>
      <point x="617.0" y="930.2"/>
      <point x="796.0" y="1311.0"/>
      <point x="984.0" y="1503.0" type="curve"/>
      <point x="639.2" y="1503.0" type="line"/>
      <point x="390.2" y="1244.8"/>
      <point x="247.00000000000003" y="946.2"/>
    </contour>
  </outline>
</glyph>
<glyph name="asterisk" format="2">
  <advance height="2479.0" width="1200.8"/>
  <unicode hex="002A"/>
  <outline>
    <contour>
      <point x="508.2" y="652.0" type="line"/>
      <point x="721.6" y="652.0" type="line"/>
      <point x="747.1999999999999" y="920.8" type="line"/>
      <point x="944.8000000000001" y="767.2" type="line"/>
      <point x="1083.8000000000002" y="954.8" type="line"/>
      <point x="859.4" y="1071.0" type="line"/>
      <point x="1120.4" y="1186.2" type="line"/>
      <point x="1045.1999999999998" y="1373.8" type="line"/>
      <point x="795.1999999999999" y="1220.2" type="line"/>
      <point x="861.6" y="1489.0" type="line"/>
      <point x="647.2" y="1489.0" type="line"/>
      <point x="623.2" y="1220.2" type="line"/>
      <point x="425.4" y="1373.8" type="line"/>
      <point x="286.59999999999997" y="1186.2" type="line"/>
      <point x="511.0" y="1071.0" type="line"/>
      <point x="249.8" y="954.8" type="line"/>
      <point x="324.59999999999997" y="767.2" type="line"/>
      <point x="575.2" y="920.8" type="line"/>
    </contour>
  </outline>
</glyph>
<glyph name="plus" format="2">
  <advance height="2479.0" width="1406.0"/>
  <unicode hex="002B"/>
  <outline>
    <contour>
      <point x="475.6" y="74.0" type="line"/>
      <point x="769.2" y="74.0" type="line"/>
      <point x="943.4" y="1126.8" type="line"/>
      <point x="649.6" y="1126.8" type="line"/>
    </contour>
    <contour>
      <point x="157.79999999999998" y="453.6" type="line"/>
      <point x="1211.4" y="453.6" type="line"/>
      <point x="1260.8000000000002" y="747.0" type="line"/>
      <point x="208.0" y="747.0" type="line"/>
    </contour>
  </outline>
</glyph>
<glyph name="comma" format="2">
  <advance height="2479.0" width="636.2"/>
  <unicode hex="002C"/>
  <outline>
    <contour>
      <point x="417.4" y="204.0" type="line"/>
      <point x="138.6" y="204.0" type="line"/>
      <point x="121.80000000000001" y="122.0" type="line" smooth="yes"/>
      <point x="86.6" y="-76.0"/>
      <point x="-12.599999999999989" y="-284.6"/>
      <point x="-44.60000000000001" y="-364.0" type="curve"/>
      <point x="179.2" y="-364.0" type="line"/>
      <point x="226.79999999999998" y="-278.59999999999997"/>
      <point x="346.4" y="-77.8"/>
      <point x="396.2" y="122.6" type="curve" smooth="yes"/>
    </contour>
  </outline>
</glyph>
<glyph name="hyphen" format="2">
  <advance height="2479.0" width="966.2"/>
  <unicode hex="002D"/>
  <outline>
    <contour>
      <point x="856.6" y="739.8" type="line"/>
      <point x="168.0" y="739.8" type="line"/>
      <point x="123.39999999999999" y="465.4" type="line"/>
      <point x="812.1999999999999" y="465.4" type="line"/>
    </contour>
  </outline>
</glyph>
<glyph name="period" format="2">
  <advance height="2479.0" width="624.8"/>
  <unicode hex="002E"/>
  <outline>
    <contour>
      <point x="230.59999999999997" y="-20.8" type="curve" smooth="yes"/>
      <point x="328.2" y="-20.8"/>
      <point x="426.2" y="63.0"/>
      <point x="436.0" y="167.8" type="curve" smooth="yes"/>
      <point x="445.2" y="270.6"/>
      <point x="365.79999999999995" y="354.2"/>
      <point x="265.0" y="354.2" type="curve" smooth="yes"/>
      <point x="160.4" y="354.2"/>
      <point x="66.60000000000001" y="271.2"/>
      <point x="57.4" y="167.8" type="curve" smooth="yes"/>
      <point x="48.800000000000004" y="63.0"/>
      <point x="124.6" y="-20.8"/>
    </contour>
  </outline>
</glyph>
<glyph name="slash" format="2">
  <advance height="2479.0" width="821.2"/>
  <unicode hex="002F"/>
  <outline>
    <contour>
      <point x="968.1999999999999" y="1559.0" type="line"/>
      <point x="664.0" y="1559.0" type="line"/>
      <point x="-109.0" y="-224.0" type="line"/>
      <point x="194.39999999999998" y="-224.0" type="line"/>
    </contour>
  </outline>
</glyph>
<glyph name="zero" format="2">
  <advance height="2479.0" width="1453.4"/>
  <unicode hex="0030"/>
  <outline>
    <contour>
      <point x="629.1999999999999" y="-36.8" type="curve" smooth="yes"/>
      <point x="1018.2" y="-36.8"/>
      <point x="1305.2" y="251.8"/>
      <point x="1386.3999999999999" y="742.6" type="curve" smooth="yes"/>
      <point x="1468.0" y="1232.6000000000001"/>
      <point x="1273.0" y="1510.0"/>
      <point x="884.6" y="1510.0" type="curve" smooth="yes"/>
      <point x="496.2" y="1510.0"/>
      <point x="211.0" y="1232.0"/>
      <point x="127.2" y="742.6" type="curve" smooth="yes"/>
      <point x="44.199999999999996" y="252.4"/>
      <point x="237.8" y="-36.8"/>
    </contour>
    <contour>
      <point x="678.4" y="258.4" type="curve" smooth="yes"/>
      <point x="524.2" y="258.4"/>
      <point x="443.0" y="414.0"/>
      <point x="497.40000000000003" y="742.6" type="curve" smooth="yes"/>
      <point x="551.0" y="1064.0"/>
      <point x="682.6" y="1217.8"/>
      <point x="837.8" y="1217.8" type="curve" smooth="yes"/>
      <point x="992.0" y="1217.8"/>
      <point x="1071.3999999999999" y="1064.0"/>
      <point x="1016.1999999999999" y="742.6" type="curve" smooth="yes"/>
      <point x="961.0" y="414.0"/>
      <point x="834.0" y="258.4"/>
    </contour>
  </outline>
</glyph>
<glyph name="one" format="2">
  <advance height="2479.0" width="1019.0"/>
  <unicode hex="0031"/>
  <outline>
    <contour>
      <point x="952.8" y="1489.0" type="line"/>
      <point x="619.2" y="1489.0" type="line"/>
      <point x="213.4" y="1260.4" type="line"/>
      <point x="162.2" y="949.4" type="line"/>
      <point x="529.4" y="1153.6" type="line"/>
      <point x="538.4" y="1153.6" type="line"/>
      <point x="346.4" y="0.0" type="line"/>
      <point x="705.8" y="0.0" type="line"/>
    </contour>
  </outline>
</glyph>
<glyph name="two" format="2">
  <advance height="2479.0" width="1307.0"/>
  <unicode hex="0032"/>
  <anchor x="924.6" y="807.2" name="cross"/>
  <outline>
    <contour>
      <point x="17.0" y="0.0" type="line"/>
      <point x="1119.4" y="0.0" type="line"/>
      <point x="1167.8000000000002" y="290.4" type="line"/>
      <point x="563.8000000000001" y="290.4" type="line"/>
      <point x="565.8000000000001" y="300.0" type="line"/>
      <point x="770.8000000000001" y="464.2" type="line" smooth="yes"/>
      <point x="1140.6000000000001" y="746.4"/>
      <point x="1249.0" y="889.4"/>
      <point x="1278.0" y="1059.4" type="curve" smooth="yes"/>
      <point x="1323.2" y="1327.8"/>
      <point x="1133.6000000000001" y="1510.0"/>
      <point x="795.8" y="1510.0" type="curve" smooth="yes"/>
      <point x="465.8" y="1510.0"/>
      <point x="213.6" y="1320.8"/>
      <point x="163.2" y="1017.4" type="curve"/>
      <point x="504.8" y="1017.4" type="line"/>
      <point x="526.5999999999999" y="1151.0"/>
      <point x="624.6" y="1229.8"/>
      <point x="748.6" y="1229.8" type="curve" smooth="yes"/>
      <point x="869.0" y="1229.8"/>
      <point x="944.6" y="1154.8"/>
      <point x="924.1999999999999" y="1031.4" type="curve" smooth="yes"/>
      <point x="905.1999999999999" y="920.8"/>
      <point x="823.0" y="844.4000000000001"/>
      <point x="682.2" y="734.6" type="curve" smooth="yes"/>
      <point x="60.0" y="259.0" type="line"/>
    </contour>
  </outline>
</glyph>
<glyph name="three" format="2">
  <advance height="2479.0" width="1366.2"/>
  <unicode hex="0033"/>
  <outline>
    <contour>
      <point x="598.0" y="-20.0" type="curve" smooth="yes"/>
      <point x="938.2" y="-20.0"/>
      <point x="1207.6" y="158.2"/>
      <point x="1248.0" y="404.2" type="curve" smooth="yes"/>
      <point x="1279.0" y="594.6"/>
      <point x="1159.2" y="738.0"/>
      <point x="953.8000000000001" y="764.4" type="curve"/>
      <point x="953.8000000000001" y="775.8" type="line"/>
      <point x="1139.4" y="798.0"/>
      <point x="1273.3999999999999" y="892.0"/>
      <point x="1301.8" y="1064.8" type="curve" smooth="yes"/>
      <point x="1340.8" y="1303.0"/>
      <point x="1153.0" y="1510.0"/>
      <point x="825.0" y="1510.0" type="curve" smooth="yes"/>
      <point x="513.6" y="1510.0"/>
      <point x="251.39999999999998" y="1323.6"/>
      <point x="206.4" y="1058.6" type="curve"/>
      <point x="548.6" y="1058.6" type="line"/>
      <point x="564.6" y="1161.0"/>
      <point x="686.0" y="1229.8"/>
      <point x="807.2" y="1229.8" type="curve" smooth="yes"/>
      <point x="921.6" y="1229.8"/>
      <point x="973.8" y="1169.8"/>
      <point x="958.6" y="1079.6" type="curve" smooth="yes"/>
      <point x="939.5999999999999" y="966.0"/>
      <point x="829.8000000000001" y="885.6"/>
      <point x="695.1999999999999" y="885.6" type="curve" smooth="yes"/>
      <point x="559.0" y="885.6" type="line"/>
      <point x="516.0" y="630.4" type="line"/>
      <point x="668.5999999999999" y="630.4" type="line" smooth="yes"/>
      <point x="812.4" y="630.4"/>
      <point x="899.1999999999999" y="574.2"/>
      <point x="882.6" y="469.59999999999997" type="curve" smooth="yes"/>
      <point x="865.4" y="362.79999999999995"/>
      <point x="754.6" y="272.0"/>
      <point x="617.0" y="272.0" type="curve" smooth="yes"/>
      <point x="497.8" y="272.0"/>
      <point x="417.0" y="339.59999999999997"/>
      <point x="432.59999999999997" y="437.6" type="curve"/>
      <point x="75.6" y="437.6" type="line"/>
      <point x="31.2" y="168.20000000000002"/>
      <point x="248.6" y="-20.0"/>
    </contour>
  </outline>
</glyph>
<glyph name="four" format="2">
  <advance height="2479.0" width="1412.6"/>
  <unicode hex="0034"/>
  <outline>
    <contour>
      <point x="39.0" y="247.4" type="line"/>
      <point x="1280.6" y="247.4" type="line"/>
      <point x="1327.3999999999999" y="530.6" type="line"/>
      <point x="444.00000000000006" y="530.6" type="line"/>
      <point x="446.40000000000003" y="542.6" type="line"/>
      <point x="897.0" y="1108.8" type="line"/>
      <point x="1042.0" y="1108.8" type="line"/>
      <point x="1105.6000000000001" y="1489.0" type="line"/>
      <point x="856.0" y="1489.0" type="line"/>
      <point x="85.2" y="528.4" type="line"/>
    </contour>
    <contour>
      <point x="718.2" y="0.0" type="line"/>
      <point x="1062.2" y="0.0" type="line"/>
      <point x="1309.2" y="1489.0" type="line"/>
      <point x="972.6" y="1489.0" type="line"/>
      <point x="801.8000000000001" y="455.8" type="line"/>
      <point x="773.8000000000001" y="333.59999999999997" type="line"/>
    </contour>
  </outline>
</glyph>
<glyph name="five" format="2">
  <advance height="2479.0" width="1345.0"/>
  <unicode hex="0035"/>
  <outline>
    <contour>
      <point x="584.0" y="-20.0" type="curve" smooth="yes"/>
      <point x="933.0" y="-20.0"/>
      <point x="1199.6000000000001" y="198.60000000000002"/>
      <point x="1248.2" y="504.4" type="curve" smooth="yes"/>
      <point x="1295.6000000000001" y="787.6"/>
      <point x="1132.0" y="991.0"/>
      <point x="865.4" y="991.0" type="curve" smooth="yes"/>
      <point x="724.2" y="991.0"/>
      <point x="596.6" y="930.4000000000001"/>
      <point x="533.8000000000001" y="848.4" type="curve"/>
      <point x="525.0" y="848.4" type="line"/>
      <point x="617.2" y="1199.4" type="line"/>
      <point x="1276.8" y="1199.4" type="line"/>
      <point x="1324.6" y="1489.0" type="line"/>
      <point x="369.0" y="1489.0" type="line"/>
      <point x="170.4" y="686.4" type="line"/>
      <point x="478.0" y="626.4" type="line"/>
      <point x="530.4" y="693.6"/>
      <point x="619.8" y="735.2"/>
      <point x="706.6" y="735.2" type="curve" smooth="yes"/>
      <point x="843.4" y="735.1999999999999"/>
      <point x="924.4" y="638.0"/>
      <point x="901.1999999999999" y="494.2" type="curve" smooth="yes"/>
      <point x="876.4" y="351.0"/>
      <point x="766.5999999999999" y="256.0"/>
      <point x="629.2" y="256.0" type="curve" smooth="yes"/>
      <point x="513.4" y="256.0"/>
      <point x="431.0" y="329.4"/>
      <point x="444.0" y="437.6" type="curve"/>
      <point x="94.60000000000001" y="437.6" type="line"/>
      <point x="54.999999999999986" y="170.60000000000002"/>
      <point x="259.2" y="-20.0"/>
    </contour>
  </outline>
</glyph>
<glyph name="six" format="2">
  <advance height="2479.0" width="1377.0"/>
  <unicode hex="0036"/>
  <outline>
    <contour>
      <point x="627.2" y="-20.0" type="curve" smooth="yes"/>
      <point x="960.0000000000001" y="-20.6"/>
      <point x="1221.0" y="183.6"/>
      <point x="1271.1999999999998" y="487.20000000000005" type="curve" smooth="yes"/>
      <point x="1319.4" y="771.6"/>
      <point x="1159.6000000000001" y="981.4"/>
      <point x="884.8000000000001" y="981.4" type="curve" smooth="yes"/>
      <point x="723.4" y="981.4"/>
      <point x="568.0" y="909.8000000000001"/>
      <point x="483.6" y="775.8" type="curve"/>
      <point x="471.8" y="756.6" type="line"/>
      <point x="520.6" y="1025.8"/>
      <point x="648.8" y="1203.6"/>
      <point x="835.8000000000001" y="1203.6" type="curve" smooth="yes"/>
      <point x="930.6" y="1203.6"/>
      <point x="998.4" y="1157.8000000000002"/>
      <point x="999.4" y="1061.0" type="curve"/>
      <point x="1348.2" y="1061.0" type="line"/>
      <point x="1361.6" y="1312.3999999999999"/>
      <point x="1172.6" y="1510.0"/>
      <point x="857.6" y="1510.0" type="curve" smooth="yes"/>
      <point x="485.0" y="1510.0"/>
      <point x="198.60000000000002" y="1221.3999999999999"/>
      <point x="117.2" y="738.0" type="curve" smooth="yes"/>
      <point x="24.200000000000006" y="187.0"/>
      <point x="292.4" y="-19.599999999999998"/>
    </contour>
    <contour>
      <point x="639.6" y="256.0" type="curve" smooth="yes"/>
      <point x="514.2" y="256.0"/>
      <point x="441.2" y="346.0"/>
      <point x="459.8" y="474.6" type="curve" smooth="yes"/>
      <point x="483.2" y="619.4"/>
      <point x="610.0" y="731.0"/>
      <point x="748.6" y="731.0" type="curve" smooth="yes"/>
      <point x="875.2" y="731.0"/>
      <point x="947.4" y="638.6"/>
      <point x="927.1999999999999" y="512.8000000000001" type="curve" smooth="yes"/>
      <point x="907.2" y="366.59999999999997"/>
      <point x="780.8" y="256.0"/>
    </contour>
  </outline>
</glyph>
<glyph name="seven" format="2">
  <advance height="2479.0" width="1234.6"/>
  <unicode hex="0037"/>
  <outline>
    <contour>
      <point x="80.0" y="0.0" type="line"/>
      <point x="450.6" y="0.0" type="line"/>
      <point x="1252.3999999999999" y="1197.8" type="line"/>
      <point x="1300.6" y="1489.0" type="line"/>
      <point x="225.0" y="1489.0" type="line"/>
      <point x="178.2" y="1199.4" type="line"/>
      <point x="880.6" y="1199.4" type="line"/>
      <point x="877.6" y="1190.0" type="line"/>
    </contour>
  </outline>
</glyph>
<glyph name="eight" format="2">
  <advance height="2479.0" width="1381.3999999999999"/>
  <unicode hex="0038"/>
  <outline>
    <contour>
      <point x="595.8" y="-20.0" type="curve" smooth="yes"/>
      <point x="942.6" y="-20.0"/>
      <point x="1224.0" y="160.4"/>
      <point x="1264.0" y="400.0" type="curve" smooth="yes"/>
      <point x="1296.2" y="586.6"/>
      <point x="1172.0" y="737.2"/>
      <point x="990.2" y="766.8" type="curve"/>
      <point x="990.2" y="777.6" type="line"/>
      <point x="1159.4" y="807.8000000000001"/>
      <point x="1298.3999999999999" y="938.6"/>
      <point x="1325.6" y="1104.6" type="curve" smooth="yes"/>
      <point x="1363.2" y="1336.6"/>
      <point x="1160.2" y="1510.0"/>
      <point x="844.1999999999999" y="1510.0" type="curve" smooth="yes"/>
      <point x="529.8000000000001" y="1510.0"/>
      <point x="272.79999999999995" y="1341.4"/>
      <point x="233.79999999999998" y="1109.2" type="curve" smooth="yes"/>
      <point x="206.8" y="944.6"/>
      <point x="299.40000000000003" y="808.2"/>
      <point x="456.4" y="777.6" type="curve"/>
      <point x="456.4" y="766.8" type="line"/>
      <point x="265.59999999999997" y="737.8000000000001"/>
      <point x="93.0" y="587.8000000000001"/>
      <point x="61.4" y="404.59999999999997" type="curve" smooth="yes"/>
      <point x="20.399999999999995" y="162.4"/>
      <point x="246.6" y="-20.0"/>
    </contour>
    <contour>
      <point x="634.5999999999999" y="235.2" type="curve" smooth="yes"/>
      <point x="504.79999999999995" y="235.2"/>
      <point x="424.79999999999995" y="315.20000000000005"/>
      <point x="444.0" y="429.8" type="curve" smooth="yes"/>
      <point x="463.2" y="547.0"/>
      <point x="572.0" y="632.0"/>
      <point x="703.0" y="632.0" type="curve" smooth="yes"/>
      <point x="831.8" y="632.0"/>
      <point x="911.8" y="550.8"/>
      <point x="892.2" y="434.4" type="curve" smooth="yes"/>
      <point x="873.4" y="319.6"/>
      <point x="767.8" y="235.2"/>
    </contour>
    <contour>
      <point x="741.0" y="886.2" type="curve" smooth="yes"/>
      <point x="628.4" y="886.2"/>
      <point x="559.4000000000001" y="960.4"/>
      <point x="577.2" y="1065.3999999999999" type="curve" smooth="yes"/>
      <point x="595.2" y="1171.2"/>
      <point x="690.8000000000001" y="1245.8"/>
      <point x="806.8" y="1245.8" type="curve" smooth="yes"/>
      <point x="919.2" y="1245.8"/>
      <point x="986.4" y="1175.3999999999999"/>
      <point x="968.1999999999999" y="1070.0" type="curve" smooth="yes"/>
      <point x="949.8" y="964.8000000000001"/>
      <point x="856.6" y="886.2"/>
    </contour>
  </outline>
</glyph>
<glyph name="nine" format="2">
  <advance height="2479.0" width="1377.0"/>
  <unicode hex="0039"/>
  <outline>
    <contour>
      <point x="813.8" y="1510.0" type="curve" smooth="yes"/>
      <point x="481.6" y="1510.6"/>
      <point x="220.79999999999998" y="1306.2"/>
      <point x="169.8" y="1005.6" type="curve" smooth="yes"/>
      <point x="122.4" y="722.8"/>
      <point x="282.2" y="513.2"/>
      <point x="556.1999999999999" y="513.2" type="curve" smooth="yes"/>
      <point x="718.4" y="513.2"/>
      <point x="873.8" y="585.6"/>
      <point x="957.4" y="718.8000000000001" type="curve"/>
      <point x="969.4" y="737.8000000000001" type="line"/>
      <point x="921.4" y="464.0"/>
      <point x="792.8" y="286.4"/>
      <point x="605.4" y="286.4" type="curve" smooth="yes"/>
      <point x="510.20000000000005" y="286.4"/>
      <point x="442.0" y="331.20000000000005"/>
      <point x="441.6" y="433.40000000000003" type="curve"/>
      <point x="92.79999999999998" y="433.40000000000003" type="line"/>
      <point x="80.2" y="176.79999999999998"/>
      <point x="268.2" y="-20.0"/>
      <point x="583.4" y="-20.0" type="curve" smooth="yes"/>
      <point x="956.8000000000001" y="-20.0"/>
      <point x="1242.3999999999999" y="268.59999999999997"/>
      <point x="1324.6" y="757.2" type="curve" smooth="yes"/>
      <point x="1416.8" y="1303.6"/>
      <point x="1149.4" y="1509.4"/>
    </contour>
    <contour>
      <point x="801.4" y="1233.2" type="curve" smooth="yes"/>
      <point x="927.5999999999999" y="1233.2"/>
      <point x="999.8" y="1143.0"/>
      <point x="981.2" y="1017.4" type="curve" smooth="yes"/>
      <point x="959.4" y="876.0"/>
      <point x="831.8" y="763.6"/>
      <point x="692.4" y="763.6" type="curve" smooth="yes"/>
      <point x="565.8000000000001" y="763.6"/>
      <point x="496.00000000000006" y="855.0"/>
      <point x="513.8000000000001" y="980.1999999999999" type="curve" smooth="yes"/>
      <point x="533.8" y="1123.2"/>
      <point x="661.0" y="1233.2"/>
    </contour>
  </outline>
</glyph>
<glyph name="less" format="2">
  <advance height="2479.0" width="1406.0"/>
  <unicode hex="003C"/>
  <outline>
    <contour>
      <point x="158.2" y="449.6" type="line"/>
      <point x="1137.8000000000002" y="7.0" type="line"/>
      <point x="1193.0" y="337.8" type="line"/>
      <point x="538.8" y="597.4" type="line"/>
      <point x="547.2" y="581.4" type="line"/>
      <point x="555.0" y="619.2" type="line"/>
      <point x="541.8" y="603.4" type="line"/>
      <point x="1278.8000000000002" y="863.8" type="line"/>
      <point x="1334.2" y="1193.8" type="line"/>
      <point x="209.6" y="752.0" type="line"/>
    </contour>
  </outline>
</glyph>
<glyph name="equal" format="2">
  <advance height="2479.0" width="1406.0"/>
  <unicode hex="003D"/>
  <outline>
    <contour>
      <point x="206.6" y="704.6" type="line"/>
      <point x="1246.6" y="704.6" type="line"/>
      <point x="1296.6" y="996.8" type="line"/>
      <point x="255.8" y="996.8" type="line"/>
    </contour>
    <contour>
      <point x="125.2" y="204.0" type="line"/>
      <point x="1165.2" y="204.0" type="line"/>
      <point x="1212.0" y="496.2" type="line"/>
      <point x="172.0" y="496.2" type="line"/>
    </contour>
  </outline>
</glyph>
<glyph name="greater" format="2">
  <advance height="2479.0" width="1406.0"/>
  <unicode hex="003E"/>
  <outline>
    <contour>
      <point x="1219.2" y="449.6" type="line"/>
      <point x="1269.8000000000002" y="752.0" type="line"/>
      <point x="287.8" y="1193.8" type="line"/>
      <point x="233.00000000000003" y="863.8" type="line"/>
      <point x="886.8" y="603.4" type="line"/>
      <point x="878.4" y="619.2" type="line"/>
      <point x="870.6" y="581.4" type="line"/>
      <point x="883.8" y="597.4" type="line"/>
      <point x="147.4" y="337.8" type="line"/>
      <point x="92.19999999999999" y="7.0" type="line"/>
    </contour>
  </outline>
</glyph>
<glyph name="question" format="2">
  <advance height="2479.0" width="1190.2"/>
  <unicode hex="003F"/>
  <outline>
    <contour>
      <point x="376.4" y="455.8" type="line"/>
      <point x="685.6" y="455.8" type="line"/>
      <point x="691.0" y="487.20000000000005" type="line" smooth="yes"/>
      <point x="713.4" y="615.8"/>
      <point x="777.6" y="677.8000000000001"/>
      <point x="898.4" y="742.4000000000001" type="curve" smooth="yes"/>
      <point x="1051.2" y="822.4"/>
      <point x="1160.0" y="929.0"/>
      <point x="1188.4" y="1103.4" type="curve" smooth="yes"/>
      <point x="1232.0" y="1367.2"/>
      <point x="1037.6" y="1510.0"/>
      <point x="739.1999999999999" y="1510.0" type="curve" smooth="yes"/>
      <point x="464.0" y="1510.0"/>
      <point x="217.4" y="1373.6"/>
      <point x="163.0" y="1068.2" type="curve"/>
      <point x="497.2" y="1068.2" type="line"/>
      <point x="514.4" y="1169.8"/>
      <point x="604.2" y="1231.0"/>
      <point x="690.6" y="1231.0" type="curve" smooth="yes"/>
      <point x="776.2" y="1231.0"/>
      <point x="834.2" y="1172.8"/>
      <point x="820.6" y="1086.0" type="curve" smooth="yes"/>
      <point x="806.8000000000001" y="997.8"/>
      <point x="726.4" y="941.6"/>
      <point x="626.2" y="882.4" type="curve" smooth="yes"/>
      <point x="500.4" y="808.6"/>
      <point x="423.4" y="732.8"/>
      <point x="381.8" y="487.20000000000005" type="curve" smooth="yes"/>
    </contour>
    <component base="period" xOffset="238.4"/>
  </outline>
</glyph>
<glyph name="at" format="2">
  <advance height="2479.0" width="2175.4"/>
  <unicode hex="0040"/>
  <outline>
    <contour>
      <point x="960.4" y="-441.8" type="curve" smooth="yes"/>
      <point x="1187.0" y="-441.8"/>
      <point x="1402.6" y="-390.6"/>
      <point x="1504.8" y="-334.2" type="curve"/>
      <point x="1461.6" y="-98.6" type="line"/>
      <point x="1368.1999999999998" y="-134.2"/>
      <point x="1197.4" y="-171.39999999999998"/>
      <point x="1027.0" y="-171.39999999999998" type="curve" smooth="yes"/>
      <point x="561.1999999999999" y="-171.39999999999998"/>
      <point x="344.79999999999995" y="70.0"/>
      <point x="418.6" y="518.6" type="curve" smooth="yes"/>
      <point x="484.0" y="911.0"/>
      <point x="762.4" y="1232.2"/>
      <point x="1255.2" y="1232.2" type="curve" smooth="yes"/>
      <point x="1567.8" y="1232.2"/>
      <point x="1909.8000000000002" y="1118.4"/>
      <point x="1825.8" y="618.0" type="curve" smooth="yes"/>
      <point x="1783.6000000000001" y="349.2"/>
      <point x="1704.0" y="226.0"/>
      <point x="1620.0" y="226.0" type="curve" smooth="yes"/>
      <point x="1582.3999999999999" y="226.0"/>
      <point x="1561.8" y="252.6"/>
      <point x="1569.8" y="315.2" type="curve" smooth="yes"/>
      <point x="1689.6" y="1042.6" type="line"/>
      <point x="1437.8000000000002" y="1042.6" type="line"/>
      <point x="1425.4" y="960.8" type="line"/>
      <point x="1414.0" y="960.8" type="line"/>
      <point x="1397.8000000000002" y="1024.8"/>
      <point x="1241.8" y="1087.0"/>
      <point x="1066.3999999999999" y="1058.6" type="curve" smooth="yes"/>
      <point x="874.1999999999999" y="1028.2"/>
      <point x="625.6" y="876.2"/>
      <point x="565.0" y="514.2" type="curve" smooth="yes"/>
      <point x="505.20000000000005" y="149.39999999999998"/>
      <point x="697.2" y="-13.800000000000004"/>
      <point x="916.0" y="-27.60000000000001" type="curve" smooth="yes"/>
      <point x="1078.0" y="-37.60000000000001"/>
      <point x="1259.2" y="27.39999999999999"/>
      <point x="1307.0" y="116.39999999999999" type="curve"/>
      <point x="1315.8" y="116.39999999999999" type="line"/>
      <point x="1316.0" y="24.199999999999996"/>
      <point x="1339.1999999999998" y="-52.60000000000001"/>
      <point x="1533.0" y="-35.8" type="curve" smooth="yes"/>
      <point x="1854.0" y="-12.600000000000001"/>
      <point x="2041.2000000000003" y="213.79999999999998"/>
      <point x="2102.6" y="596.6" type="curve" smooth="yes"/>
      <point x="2196.2000000000003" y="1153.0"/>
      <point x="1890.3999999999999" y="1499.6"/>
      <point x="1300.8" y="1499.6" type="curve" smooth="yes"/>
      <point x="654.1999999999999" y="1499.6"/>
      <point x="222.0" y="1096.4"/>
      <point x="123.4" y="505.4" type="curve" smooth="yes"/>
      <point x="25.799999999999994" y="-91.4"/>
      <point x="333.8" y="-441.8"/>
    </contour>
    <contour>
      <point x="1058.0" y="242.0" type="curve" smooth="yes"/>
      <point x="868.2" y="242.0"/>
      <point x="827.8" y="378.8"/>
      <point x="851.2" y="523.2" type="curve" smooth="yes"/>
      <point x="879.4" y="687.4"/>
      <point x="984.0" y="783.6"/>
      <point x="1144.3999999999999" y="783.6" type="curve" smooth="yes"/>
      <point x="1332.2" y="783.6"/>
      <point x="1354.8" y="676.8"/>
      <point x="1331.3999999999999" y="525.6" type="curve" smooth="yes"/>
      <point x="1304.2" y="342.2"/>
      <point x="1231.3999999999999" y="242.0"/>
    </contour>
  </outline>
</glyph>
<glyph name="A" format="2">
  <advance height="2479.0" width="1580.2"/>
  <unicode hex="0041"/>
  <anchor x="696.6" y="0.0" name="bottom"/>
  <anchor x="1439.0" y="0.0" name="ogonek"/>
  <anchor x="621.0" y="1489.0" name="tonos"/>
  <anchor x="976.6" y="1676.0" name="top"/>
  <outline>
    <contour>
      <point x="341.6" y="0.0" type="line"/>
      <point x="877.4" y="1114.0" type="line"/>
      <point x="889.4" y="1114.0" type="line"/>
      <point x="1052.4" y="0.0" type="line"/>
      <point x="1439.0" y="0.0" type="line"/>
      <point x="1184.0" y="1489.0" type="line"/>
      <point x="704.2" y="1489.0" type="line"/>
      <point x="-45.8" y="0.0" type="line"/>
    </contour>
    <contour>
      <point x="388.4" y="586.8" type="line"/>
      <point x="341.6" y="312.4" type="line"/>
      <point x="1150.0" y="312.4" type="line"/>
      <point x="1197.6000000000001" y="586.8" type="line"/>
    </contour>
  </outline>
</glyph>
<glyph name="B" format="2">
  <advance height="2479.0" width="1360.0"/>
  <unicode hex="0042"/>
  <anchor x="566.6" y="0.0" name="bottom"/>
  <anchor x="846.2" y="1676.0" name="top"/>
  <outline>
    <contour>
      <point x="19.799999999999997" y="0.0" type="line"/>
      <point x="688.1999999999999" y="0.0" type="line" smooth="yes"/>
      <point x="1017.0" y="0.0"/>
      <point x="1236.0" y="176.0"/>
      <point x="1275.6" y="416.8" type="curve" smooth="yes"/>
      <point x="1311.2" y="631.0"/>
      <point x="1177.8000000000002" y="768.6"/>
      <point x="997.4000000000001" y="775.2" type="curve"/>
      <point x="1000.4000000000001" y="789.4" type="line"/>
      <point x="1169.0" y="824.1999999999999"/>
      <point x="1304.2" y="943.5999999999999"/>
      <point x="1333.8" y="1112.4" type="curve" smooth="yes"/>
      <point x="1371.0" y="1337.6"/>
      <point x="1222.2" y="1489.0"/>
      <point x="887.8" y="1489.0" type="curve" smooth="yes"/>
      <point x="267.0" y="1489.0" type="line"/>
    </contour>
    <contour>
      <point x="429.2" y="290.4" type="line"/>
      <point x="485.8" y="645.2" type="line"/>
      <point x="715.1999999999999" y="645.2" type="line" smooth="yes"/>
      <point x="854.1999999999999" y="645.2"/>
      <point x="925.0" y="572.6"/>
      <point x="906.8000000000001" y="458.4" type="curve" smooth="yes"/>
      <point x="890.2" y="353.0"/>
      <point x="805.4" y="290.4"/>
      <point x="652.0" y="290.4" type="curve" smooth="yes"/>
    </contour>
    <contour>
      <point x="526.2" y="876.6" type="line"/>
      <point x="579.4000000000001" y="1203.4" type="line"/>
      <point x="785.0" y="1203.4" type="line" smooth="yes"/>
      <point x="903.8" y="1203.4"/>
      <point x="971.4" y="1143.3999999999999"/>
      <point x="954.5999999999999" y="1042.8" type="curve" smooth="yes"/>
      <point x="938.8" y="939.4"/>
      <point x="841.8000000000001" y="876.6"/>
      <point x="725.1999999999999" y="876.6" type="curve" smooth="yes"/>
    </contour>
  </outline>
</glyph>
<glyph name="C" format="2">
  <advance height="2479.0" width="1593.8"/>
  <unicode hex="0043"/>
  <anchor x="703.8" y="2.4000000000000004" name="cedilla"/>
  <anchor x="989.0" y="1676.0" name="top"/>
  <outline>
    <contour>
      <point x="1527.0" y="949.6" type="line"/>
      <point x="1549.0" y="1305.8"/>
      <point x="1311.8" y="1510.0"/>
      <point x="940.0" y="1510.0" type="curve" smooth="yes"/>
      <point x="554.8" y="1510.0"/>
      <point x="212.20000000000002" y="1250.0"/>
      <point x="131.6" y="765.6" type="curve"/>
      <point x="50.400000000000006" y="265.40000000000003"/>
      <point x="312.8" y="-20.0"/>
      <point x="726.2" y="-20.0" type="curve" smooth="yes"/>
      <point x="1126.6" y="-20.0"/>
      <point x="1387.3999999999999" y="260.0"/>
      <point x="1457.6000000000001" y="523.4" type="curve"/>
      <point x="1096.0" y="523.4" type="line"/>
      <point x="1047.3999999999999" y="382.20000000000005"/>
      <point x="916.2" y="295.20000000000005"/>
      <point x="745.8000000000001" y="295.20000000000005" type="curve" smooth="yes"/>
      <point x="545.5999999999999" y="295.20000000000005"/>
      <point x="446.00000000000006" y="438.4"/>
      <point x="491.6" y="723.4" type="curve"/>
      <point x="541.2" y="1018.8"/>
      <point x="710.1999999999999" y="1194.6"/>
      <point x="935.8" y="1194.6" type="curve" smooth="yes"/>
      <point x="1092.6000000000001" y="1194.6"/>
      <point x="1175.2" y="1100.6"/>
      <point x="1168.1999999999998" y="949.6" type="curve"/>
    </contour>
  </outline>
</glyph>
<glyph name="D" format="2">
  <advance height="2479.0" width="1495.2"/>
  <unicode hex="0044"/>
  <anchor x="552.8000000000001" y="0.0" name="bottom"/>
  <anchor x="336.0" y="784.0" name="cross"/>
  <anchor x="821.8" y="1676.0" name="top"/>
  <outline>
    <contour>
      <point x="578.6" y="0.0" type="line" smooth="yes"/>
      <point x="1032.6000000000001" y="0.0"/>
      <point x="1349.3999999999999" y="269.6"/>
      <point x="1425.3999999999999" y="726.4" type="curve" smooth="yes"/>
      <point x="1504.2" y="1200.0"/>
      <point x="1262.8" y="1489.0"/>
      <point x="809.0" y="1489.0" type="curve" smooth="yes"/>
      <point x="413.59999999999997" y="1489.0" type="line"/>
      <point x="361.79999999999995" y="1182.6" type="line"/>
      <point x="755.0" y="1182.6" type="line" smooth="yes"/>
      <point x="1010.4000000000001" y="1182.6"/>
      <point x="1124.0" y="1077.2"/>
      <point x="1072.6000000000001" y="763.8000000000001" type="curve" smooth="yes"/>
      <point x="1018.0" y="434.0"/>
      <point x="851.1999999999999" y="306.4"/>
      <point x="600.6" y="306.4" type="curve" smooth="yes"/>
      <point x="224.6" y="306.4" type="line"/>
      <point x="173.0" y="0.0" type="line"/>
    </contour>
    <contour>
      <point x="627.0" y="1489.0" type="line"/>
      <point x="267.0" y="1489.0" type="line"/>
      <point x="19.799999999999997" y="0.0" type="line"/>
      <point x="379.2" y="0.0" type="line"/>
    </contour>
  </outline>
</glyph>
<glyph name="E" format="2">
  <advance height="2479.0" width="1264.2"/>
  <unicode hex="0045"/>
  <anchor x="539.4" y="0.0" name="bottom"/>
  <anchor x="542.4" y="0.0" name="cedilla"/>
  <anchor x="1058.0" y="0.0" name="ogonek"/>
  <anchor x="224.8" y="1489.0" name="tonos"/>
  <anchor x="821.4000000000001" y="1676.0" name="top"/>
  <outline>
    <contour>
      <point x="19.799999999999997" y="0.0" type="line"/>
      <point x="1058.0" y="0.0" type="line"/>
      <point x="1108.0" y="292.8" type="line"/>
      <point x="429.2" y="292.8" type="line"/>
      <point x="478.0" y="598.8" type="line"/>
      <point x="1103.6" y="598.8" type="line"/>
      <point x="1152.8" y="891.6" type="line"/>
      <point x="528.0" y="891.6" type="line"/>
      <point x="577.0" y="1197.0" type="line"/>
      <point x="1255.8" y="1197.0" type="line"/>
      <point x="1305.8" y="1489.0" type="line"/>
      <point x="267.0" y="1489.0" type="line"/>
    </contour>
  </outline>
</glyph>
<glyph name="F" format="2">
  <advance height="2479.0" width="1197.0"/>
  <unicode hex="0046"/>
  <anchor x="536.0" y="12.0" name="bottom"/>
  <anchor x="242.4" y="269.8" name="cross"/>
  <anchor x="813.6" y="1676.0" name="top"/>
  <outline>
    <contour>
      <point x="19.799999999999997" y="0.0" type="line"/>
      <point x="379.2" y="0.0" type="line"/>
      <point x="478.0" y="598.8" type="line"/>
      <point x="1070.3999999999999" y="598.8" type="line"/>
      <point x="1119.6" y="891.6" type="line"/>
      <point x="528.0" y="891.6" type="line"/>
      <point x="577.0" y="1197.0" type="line"/>
      <point x="1233.8" y="1197.0" type="line"/>
      <point x="1283.2" y="1489.0" type="line"/>
      <point x="267.0" y="1489.0" type="line"/>
    </contour>
  </outline>
</glyph>
<glyph name="G" format="2">
  <advance height="2479.0" width="1617.1999999999998"/>
  <unicode hex="0047"/>
  <anchor x="704.8000000000001" y="4.800000000000001" name="bottom"/>
  <anchor x="984.4" y="1676.0" name="top"/>
  <outline>
    <contour>
      <point x="1164.0" y="1003.2" type="curve"/>
      <point x="1527.6" y="1003.2" type="line"/>
      <point x="1541.6" y="1300.0"/>
      <point x="1311.0" y="1510.0"/>
      <point x="967.4" y="1510.0" type="curve" smooth="yes"/>
      <point x="569.6" y="1510.0"/>
      <point x="208.0" y="1229.6"/>
      <point x="127.2" y="742.6" type="curve" smooth="yes"/>
      <point x="49.800000000000004" y="271.4"/>
      <point x="291.2" y="-20.0"/>
      <point x="717.4" y="-20.0" type="curve" smooth="yes"/>
      <point x="1101.2" y="-20.0"/>
      <point x="1414.3999999999999" y="217.4"/>
      <point x="1480.3999999999999" y="617.0" type="curve" smooth="yes"/>
      <point x="1512.6" y="814.6" type="line"/>
      <point x="871.1999999999999" y="814.6" type="line"/>
      <point x="827.8" y="552.2" type="line"/>
      <point x="1190.2" y="552.2" type="line"/>
      <point x="1123.8" y="560.0" type="line"/>
      <point x="1098.2" y="398.2"/>
      <point x="962.8000000000001" y="295.20000000000005"/>
      <point x="763.6" y="295.20000000000005" type="curve" smooth="yes"/>
      <point x="541.0" y="295.20000000000005"/>
      <point x="448.6" y="460.4"/>
      <point x="496.6" y="747.4" type="curve" smooth="yes"/>
      <point x="543.0" y="1031.2"/>
      <point x="720.0" y="1194.6"/>
      <point x="937.0" y="1194.6" type="curve" smooth="yes"/>
      <point x="1080.8" y="1194.6"/>
      <point x="1151.8" y="1123.8"/>
    </contour>
  </outline>
</glyph>
<glyph name="H" format="2">
  <advance height="2479.0" width="1532.0"/>
  <unicode hex="0048"/>
  <anchor x="672.6" y="0.0" name="bottom"/>
  <anchor x="195.6" y="0.0" name="cedilla"/>
  <anchor x="1516.2" y="143.2" name="cyrtic"/>
  <anchor x="1325.4" y="0.0" name="right"/>
  <anchor x="230.8" y="1489.0" name="tonos"/>
  <anchor x="953.4" y="1676.6" name="top"/>
  <outline>
    <contour>
      <point x="19.799999999999997" y="0.0" type="line"/>
      <point x="379.2" y="0.0" type="line"/>
      <point x="478.0" y="598.8" type="line"/>
      <point x="1065.6" y="598.8" type="line"/>
      <point x="966.8" y="0.0" type="line"/>
      <point x="1326.0" y="0.0" type="line"/>
      <point x="1573.0" y="1489.0" type="line"/>
      <point x="1213.8" y="1489.0" type="line"/>
      <point x="1115.0" y="891.6" type="line"/>
      <point x="528.0" y="891.6" type="line"/>
      <point x="627.0" y="1489.0" type="line"/>
      <point x="267.0" y="1489.0" type="line"/>
    </contour>
  </outline>
</glyph>
<glyph name="I" format="2">
  <advance height="2479.0" width="586.0"/>
  <unicode hex="0049"/>
  <anchor x="201.60000000000002" y="0.0" name="bottom"/>
  <anchor x="329.0" y="784.0" name="cross"/>
  <anchor x="379.2" y="0.0" name="ogonek"/>
  <anchor x="402.8" y="0.0" name="right"/>
  <anchor x="267.0" y="1489.0" name="tonos"/>
  <anchor x="479.59999999999997" y="1676.0" name="top"/>
  <outline>
    <contour>
      <point x="627.0" y="1489.0" type="line"/>
      <point x="267.0" y="1489.0" type="line"/>
      <point x="19.799999999999997" y="0.0" type="line"/>
      <point x="379.2" y="0.0" type="line"/>
    </contour>
  </outline>
</glyph>
<glyph name="J" format="2">
  <advance height="2479.0" width="1186.3999999999999"/>
  <unicode hex="004A"/>
  <anchor x="947.2" y="884.0" name="cross"/>
  <anchor x="1080.6" y="1676.0" name="top"/>
  <outline>
    <contour>
      <point x="872.2" y="1489.0" type="line"/>
      <point x="702.0" y="460.59999999999997" type="line"/>
      <point x="679.6" y="332.8"/>
      <point x="610.4" y="263.2"/>
      <point x="506.6" y="263.2" type="curve" smooth="yes"/>
      <point x="406.20000000000005" y="263.2"/>
      <point x="359.8" y="325.0"/>
      <point x="374.6" y="441.8" type="curve"/>
      <point x="16.999999999999996" y="441.8" type="line"/>
      <point x="-36.4" y="121.8"/>
      <point x="164.8" y="-20.0"/>
      <point x="442.79999999999995" y="-20.0" type="curve" smooth="yes"/>
      <point x="760.8000000000001" y="-20.0"/>
      <point x="1007.4" y="168.4"/>
      <point x="1056.8" y="458.2" type="curve"/>
      <point x="1227.3999999999999" y="1489.0" type="line"/>
    </contour>
  </outline>
</glyph>
<glyph name="K" format="2">
  <advance height="2479.0" width="1437.4"/>
  <unicode hex="004B"/>
  <anchor x="624.0" y="2.4000000000000004" name="bottom"/>
  <anchor x="899.8000000000001" y="1676.0" name="top"/>
  <outline>
    <contour>
      <point x="19.799999999999997" y="0.0" type="line"/>
      <point x="379.2" y="0.0" type="line"/>
      <point x="446.59999999999997" y="401.40000000000003" type="line"/>
      <point x="623.6" y="585.6" type="line"/>
      <point x="895.2" y="0.0" type="line"/>
      <point x="1325.2" y="0.0" type="line"/>
      <point x="926.6" y="824.2" type="line"/>
      <point x="1562.6" y="1489.0" type="line"/>
      <point x="1138.6" y="1489.0" type="line"/>
      <point x="542.8" y="859.8" type="line"/>
      <point x="523.4" y="859.8" type="line"/>
      <point x="627.0" y="1489.0" type="line"/>
      <point x="267.0" y="1489.0" type="line"/>
    </contour>
  </outline>
</glyph>
<glyph name="L" format="2">
  <advance height="2479.0" width="1165.6"/>
  <unicode hex="004C"/>
  <anchor x="474.40000000000003" y="0.0" name="bottom"/>
  <anchor x="329.0" y="784.0" name="cross"/>
  <anchor x="654.2" y="857.2" name="dot"/>
  <anchor x="841.8" y="1489.0" name="raccent"/>
  <anchor x="476.0" y="1676.0" name="top"/>
  <outline>
    <contour>
      <point x="19.799999999999997" y="0.0" type="line"/>
      <point x="999.2" y="0.0" type="line"/>
      <point x="1049.2" y="292.8" type="line"/>
      <point x="429.2" y="292.8" type="line"/>
      <point x="627.0" y="1489.0" type="line"/>
      <point x="267.0" y="1489.0" type="line"/>
    </contour>
  </outline>
</glyph>
<glyph name="M" format="2">
  <advance height="2479.0" width="1891.6"/>
  <unicode hex="004D"/>
  <anchor x="852.1999999999999" y="0.0" name="bottom"/>
  <anchor x="1680.6" y="0.0" name="right"/>
  <anchor x="1131.4" y="1676.0" name="top"/>
  <outline>
    <contour>
      <point x="267.0" y="1489.0" type="line"/>
      <point x="19.799999999999997" y="0.0" type="line"/>
      <point x="370.4" y="0.0" type="line"/>
      <point x="524.1999999999999" y="920.0" type="line"/>
      <point x="536.8000000000001" y="920.0" type="line"/>
      <point x="741.5999999999999" y="0.0" type="line"/>
      <point x="964.5999999999999" y="0.0" type="line"/>
      <point x="1474.6000000000001" y="915.2" type="line"/>
      <point x="1486.4" y="915.2" type="line"/>
      <point x="1335.0" y="0.0" type="line"/>
      <point x="1684.8" y="0.0" type="line"/>
      <point x="1932.6" y="1489.0" type="line"/>
      <point x="1486.4" y="1489.0" type="line"/>
      <point x="955.6" y="567.4000000000001" type="line"/>
      <point x="938.4" y="567.4000000000001" type="line"/>
      <point x="712.4" y="1489.0" type="line"/>
    </contour>
  </outline>
</glyph>
<glyph name="N" format="2">
  <advance height="2479.0" width="1493.4"/>
  <unicode hex="004E"/>
  <anchor x="654.8" y="0.0" name="bottom"/>
  <anchor x="1341.8" y="0.0" name="right"/>
  <anchor x="933.8" y="1676.0" name="top"/>
  <outline>
    <contour>
      <point x="1534.4" y="1489.0" type="line"/>
      <point x="1175.6" y="1489.0" type="line"/>
      <point x="1034.2" y="631.4000000000001" type="line"/>
      <point x="1021.8" y="631.4000000000001" type="line"/>
      <point x="576.2" y="1489.0" type="line"/>
      <point x="267.0" y="1489.0" type="line"/>
      <point x="19.799999999999997" y="0.0" type="line"/>
      <point x="379.2" y="0.0" type="line"/>
      <point x="523.0" y="860.2" type="line"/>
      <point x="533.0" y="860.2" type="line"/>
      <point x="982.0" y="0.0" type="line"/>
      <point x="1287.2" y="0.0" type="line"/>
    </contour>
  </outline>
</glyph>
<glyph name="O" format="2">
  <advance height="2479.0" width="1615.0"/>
  <unicode hex="004F"/>
  <anchor x="716.4" y="1.1999999999999993" name="bottom"/>
  <anchor x="913.0" y="4.800000000000001" name="ogonek"/>
  <anchor x="326.59999999999997" y="1489.0" name="tonos"/>
  <anchor x="993.4" y="1676.0" name="top"/>
  <outline>
    <contour>
      <point x="1545.1999999999998" y="721.8" type="curve"/>
      <point x="1628.1999999999998" y="1224.3999999999999"/>
      <point x="1356.0" y="1510.0"/>
      <point x="946.4" y="1510.0" type="curve" smooth="yes"/>
      <point x="554.8" y="1510.0"/>
      <point x="209.8" y="1245.2"/>
      <point x="130.8" y="763.2" type="curve"/>
      <point x="48.00000000000001" y="263.0"/>
      <point x="320.0" y="-20.0"/>
      <point x="732.6" y="-20.0" type="curve" smooth="yes"/>
      <point x="1122.2" y="-20.0"/>
      <point x="1464.8" y="240.0"/>
    </contour>
    <contour>
      <point x="1185.4" y="763.2" type="curve"/>
      <point x="1135.0" y="464.0"/>
      <point x="970.6" y="295.20000000000005"/>
      <point x="745.0" y="295.20000000000005" type="curve" smooth="yes"/>
      <point x="543.2" y="295.20000000000005"/>
      <point x="441.20000000000005" y="438.4"/>
      <point x="490.80000000000007" y="721.8" type="curve"/>
      <point x="538.8000000000001" y="1021.2"/>
      <point x="705.4" y="1194.6"/>
      <point x="933.4" y="1194.6" type="curve" smooth="yes"/>
      <point x="1137.6" y="1194.6"/>
      <point x="1231.0" y="1044.2"/>
    </contour>
  </outline>
</glyph>
<glyph name="P" format="2">
  <advance height="2479.0" width="1334.6000000000001"/>
  <unicode hex="0050"/>
  <anchor x="244.0" y="1489.0" name="tonos"/>
  <anchor x="842.1999999999999" y="1676.0" name="top"/>
  <outline>
    <contour>
      <point x="19.799999999999997" y="0.0" type="line"/>
      <point x="379.2" y="0.0" type="line"/>
      <point x="579.4000000000001" y="1199.4" type="line"/>
      <point x="757.2" y="1199.4" type="line" smooth="yes"/>
      <point x="919.0" y="1199.4"/>
      <point x="989.0" y="1112.6000000000001"/>
      <point x="967.1999999999999" y="974.0" type="curve" smooth="yes"/>
      <point x="944.6" y="836.2"/>
      <point x="844.6" y="745.6"/>
      <point x="680.8000000000001" y="745.6" type="curve" smooth="yes"/>
      <point x="367.4" y="745.6" type="line"/>
      <point x="320.59999999999997" y="462.4" type="line"/>
      <point x="700.0" y="462.4" type="line" smooth="yes"/>
      <point x="1043.6" y="462.4"/>
      <point x="1289.1999999999998" y="663.2"/>
      <point x="1340.1999999999998" y="974.0" type="curve" smooth="yes"/>
      <point x="1390.6" y="1280.6000000000001"/>
      <point x="1217.3999999999999" y="1489.0"/>
      <point x="882.0" y="1489.0" type="curve" smooth="yes"/>
      <point x="267.0" y="1489.0" type="line"/>
    </contour>
  </outline>
</glyph>
<glyph name="Q" format="2">
  <advance height="2479.0" width="1621.6000000000001"/>
  <unicode hex="0051"/>
  <anchor x="716.4" y="1.1999999999999993" name="bottom"/>
  <anchor x="913.0" y="4.800000000000001" name="ogonek"/>
  <anchor x="326.59999999999997" y="1489.0" name="tonos"/>
  <anchor x="993.4" y="1676.0" name="top"/>
  <outline>
    <contour>
      <point x="674.1999999999999" y="535.4" type="line"/>
      <point x="857.6" y="241.2" type="line"/>
      <point x="940.2" y="92.6" type="line"/>
      <point x="1087.2" y="-116.8" type="line"/>
      <point x="1412.3999999999999" y="-116.8" type="line"/>
      <point x="1203.0" y="191.4" type="line"/>
      <point x="1070.2" y="377.4" type="line"/>
      <point x="965.0" y="535.4" type="line"/>
    </contour>
    <component base="O"/>
  </outline>
</glyph>
<glyph name="R" format="2">
  <advance height="2479.0" width="1372.2"/>
  <unicode hex="0052"/>
  <anchor x="599.8" y="0.0" name="bottom"/>
  <anchor x="855.2" y="1676.0" name="top"/>
  <outline>
    <contour>
      <point x="19.799999999999997" y="0.0" type="line"/>
      <point x="379.2" y="0.0" type="line"/>
      <point x="579.4000000000001" y="1199.4" type="line"/>
      <point x="757.2" y="1199.4" type="line" smooth="yes"/>
      <point x="916.5999999999999" y="1199.4"/>
      <point x="992.0" y="1131.4"/>
      <point x="970.1999999999999" y="993.0" type="curve" smooth="yes"/>
      <point x="947.6" y="855.0"/>
      <point x="851.0" y="793.8"/>
      <point x="689.8000000000001" y="793.8" type="curve" smooth="yes"/>
      <point x="367.0" y="793.8" type="line"/>
      <point x="319.6" y="510.0" type="line"/>
      <point x="708.2" y="510.0" type="line" smooth="yes"/>
      <point x="1049.6" y="510.0"/>
      <point x="1292.1999999999998" y="684.6"/>
      <point x="1342.3999999999999" y="993.0" type="curve" smooth="yes"/>
      <point x="1393.6" y="1299.4"/>
      <point x="1217.3999999999999" y="1489.0"/>
      <point x="882.0" y="1489.0" type="curve" smooth="yes"/>
      <point x="267.0" y="1489.0" type="line"/>
    </contour>
    <contour>
      <point x="971.0" y="681.0" type="line"/>
      <point x="586.2" y="681.0" type="line"/>
      <point x="836.1999999999999" y="0.0" type="line"/>
      <point x="1229.4" y="0.0" type="line"/>
    </contour>
  </outline>
</glyph>
<glyph name="S" format="2">
  <advance height="2479.0" width="1352.4"/>
  <unicode hex="0053"/>
  <anchor x="588.6" y="-5.199999999999999" name="bottom"/>
  <anchor x="587.2" y="0.0" name="cedilla"/>
  <anchor x="863.6" y="1676.0" name="top"/>
  <outline>
    <contour>
      <point x="997.0" y="1040.1999999999998" type="curve"/>
      <point x="1340.8" y="1040.1999999999998" type="line"/>
      <point x="1386.0" y="1322.6000000000001"/>
      <point x="1195.0" y="1510.0"/>
      <point x="848.6" y="1510.0" type="curve" smooth="yes"/>
      <point x="507.59999999999997" y="1510.0"/>
      <point x="234.4" y="1325.6"/>
      <point x="188.79999999999998" y="1047.6" type="curve" smooth="yes"/>
      <point x="152.0" y="821.0"/>
      <point x="288.2" y="694.8000000000001"/>
      <point x="535.0" y="635.0" type="curve" smooth="yes"/>
      <point x="684.2" y="599.0" type="line" smooth="yes"/>
      <point x="842.4000000000001" y="562.2"/>
      <point x="910.2" y="516.0"/>
      <point x="896.1999999999999" y="432.6" type="curve" smooth="yes"/>
      <point x="881.4" y="342.40000000000003"/>
      <point x="785.6" y="278.6"/>
      <point x="640.4" y="278.6" type="curve" smooth="yes"/>
      <point x="480.79999999999995" y="278.6"/>
      <point x="387.0" y="352.6"/>
      <point x="403.4" y="496.0" type="curve"/>
      <point x="59.0" y="496.0" type="line"/>
      <point x="5.599999999999997" y="148.8"/>
      <point x="221.60000000000002" y="-18.8"/>
      <point x="595.2" y="-18.8" type="curve" smooth="yes"/>
      <point x="966.2" y="-18.8"/>
      <point x="1213.4" y="148.6"/>
      <point x="1261.6" y="432.0" type="curve" smooth="yes"/>
      <point x="1301.2" y="669.6"/>
      <point x="1162.4" y="815.5999999999999"/>
      <point x="879.8" y="879.8" type="curve" smooth="yes"/>
      <point x="757.8000000000001" y="908.6" type="line" smooth="yes"/>
      <point x="627.1999999999999" y="937.6"/>
      <point x="547.2" y="984.6"/>
      <point x="566.0" y="1072.6" type="curve" smooth="yes"/>
      <point x="580.2" y="1154.6"/>
      <point x="658.6" y="1212.4"/>
      <point x="798.1999999999999" y="1212.4" type="curve" smooth="yes"/>
      <point x="939.1999999999999" y="1212.4"/>
      <point x="1003.4000000000001" y="1149.0"/>
    </contour>
  </outline>
</glyph>
<glyph name="T" format="2">
  <advance height="2479.0" width="1387.0"/>
  <unicode hex="0054"/>
  <anchor x="599.2" y="0.0" name="bottom"/>
  <anchor x="598.6" y="0.0" name="cedilla"/>
  <anchor x="713.6" y="686.4" name="cross"/>
  <anchor x="956.8" y="143.2" name="cyrtic"/>
  <anchor x="730.6" y="0.0" name="right"/>
  <anchor x="880.8000000000001" y="1676.0" name="top"/>
  <outline>
    <contour>
      <point x="168.60000000000002" y="1197.0" type="line"/>
      <point x="620.5999999999999" y="1197.0" type="line"/>
      <point x="422.79999999999995" y="0.0" type="line"/>
      <point x="778.2" y="0.0" type="line"/>
      <point x="976.0" y="1197.0" type="line"/>
      <point x="1428.0" y="1197.0" type="line"/>
      <point x="1477.2" y="1489.0" type="line"/>
      <point x="217.8" y="1489.0" type="line"/>
    </contour>
  </outline>
</glyph>
<glyph name="U" format="2">
  <advance height="2479.0" width="1485.2"/>
  <unicode hex="0055"/>
  <anchor x="649.2" y="3.200000000000003" name="bottom"/>
  <anchor x="854.1999999999999" y="8.0" name="ogonek"/>
  <anchor x="768.1999999999999" y="0.0" name="right"/>
  <anchor x="926.8" y="1676.0" name="top"/>
  <outline>
    <contour>
      <point x="1166.8" y="1489.0" type="line"/>
      <point x="1012.2" y="559.6" type="line" smooth="yes"/>
      <point x="986.4000000000001" y="405.6"/>
      <point x="859.6" y="294.20000000000005"/>
      <point x="697.8" y="294.20000000000005" type="curve" smooth="yes"/>
      <point x="537.6" y="294.20000000000005"/>
      <point x="445.4" y="405.6"/>
      <point x="471.2" y="559.6" type="curve" smooth="yes"/>
      <point x="625.8000000000001" y="1489.0" type="line"/>
      <point x="265.8" y="1489.0" type="line"/>
      <point x="106.8" y="528.6" type="line" smooth="yes"/>
      <point x="51.199999999999996" y="195.6"/>
      <point x="266.8" y="-18.8"/>
      <point x="645.6" y="-18.8" type="curve" smooth="yes"/>
      <point x="1021.4" y="-18.8"/>
      <point x="1311.6000000000001" y="195.6"/>
      <point x="1366.4" y="528.6" type="curve" smooth="yes"/>
      <point x="1526.2" y="1489.0" type="line"/>
    </contour>
  </outline>
</glyph>
<glyph name="V" format="2">
  <advance height="2479.0" width="1580.2"/>
  <unicode hex="0056"/>
  <anchor x="696.0" y="0.0" name="bottom"/>
  <anchor x="974.6" y="1676.0" name="top"/>
  <outline>
    <contour>
      <point x="603.6" y="1489.0" type="line"/>
      <point x="200.2" y="1489.0" type="line"/>
      <point x="455.20000000000005" y="0.0" type="line"/>
      <point x="935.0" y="0.0" type="line"/>
      <point x="1685.0" y="1489.0" type="line"/>
      <point x="1281.6000000000001" y="1489.0" type="line"/>
      <point x="767.8000000000001" y="398.4" type="line"/>
      <point x="755.6" y="398.4" type="line"/>
    </contour>
  </outline>
</glyph>
<glyph name="W" format="2">
  <advance height="2479.0" width="2174.6"/>
  <unicode hex="0057"/>
  <anchor x="993.0" y="2.3999999999999986" name="bottom"/>
  <anchor x="1271.6000000000001" y="1676.0" name="top"/>
  <outline>
    <contour>
      <point x="371.59999999999997" y="0.0" type="line"/>
      <point x="718.4" y="0.0" type="line"/>
      <point x="1138.2" y="903.0" type="line"/>
      <point x="1150.0" y="903.0" type="line"/>
      <point x="1266.6000000000001" y="0.0" type="line"/>
      <point x="1613.4" y="0.0" type="line"/>
      <point x="2294.0" y="1489.0" type="line"/>
      <point x="1896.6000000000001" y="1489.0" type="line"/>
      <point x="1510.1999999999998" y="511.20000000000005" type="line"/>
      <point x="1497.6000000000001" y="511.20000000000005" type="line"/>
      <point x="1402.4" y="1489.0" type="line"/>
      <point x="1077.6000000000001" y="1489.0" type="line"/>
      <point x="659.6" y="513.6" type="line"/>
      <point x="648.0" y="513.6" type="line"/>
      <point x="583.4" y="1489.0" type="line"/>
      <point x="186.0" y="1489.0" type="line"/>
    </contour>
  </outline>
</glyph>
<glyph name="X" format="2">
  <advance height="2479.0" width="1512.6"/>
  <unicode hex="0058"/>
  <anchor x="663.0" y="-2.4000000000000004" name="bottom"/>
  <anchor x="787.4" y="745.0" name="cross"/>
  <anchor x="1316.3999999999999" y="143.2" name="cyrtic"/>
  <anchor x="1166.4" y="0.0" name="right"/>
  <anchor x="941.6" y="1676.0" name="top"/>
  <outline>
    <contour>
      <point x="617.1999999999999" y="1489.0" type="line"/>
      <point x="225.8" y="1489.0" type="line"/>
      <point x="553.4" y="745.0" type="line"/>
      <point x="-33.2" y="0.0" type="line"/>
      <point x="386.2" y="0.0" type="line"/>
      <point x="744.0" y="475.2" type="line"/>
      <point x="756.0" y="475.2" type="line"/>
      <point x="956.3999999999999" y="0.0" type="line"/>
      <point x="1359.8" y="0.0" type="line"/>
      <point x="1021.4" y="745.0" type="line"/>
      <point x="1593.2" y="1489.0" type="line"/>
      <point x="1175.3999999999999" y="1489.0" type="line"/>
      <point x="822.4" y="1018.8" type="line"/>
      <point x="811.2" y="1018.8" type="line"/>
    </contour>
  </outline>
</glyph>
<glyph name="Y" format="2">
  <advance height="2479.0" width="1524.2"/>
  <unicode hex="0059"/>
  <anchor x="668.8000000000001" y="0.0" name="bottom"/>
  <anchor x="763.8000000000001" y="563.4" name="cross"/>
  <anchor x="847.6" y="0.0" name="ogonek"/>
  <anchor x="95.2" y="1489.0" name="tonos"/>
  <anchor x="948.6" y="1676.0" name="top"/>
  <outline>
    <contour>
      <point x="192.6" y="1489.0" type="line"/>
      <point x="573.4" y="497.2" type="line"/>
      <point x="490.59999999999997" y="0.0" type="line"/>
      <point x="847.6" y="0.0" type="line"/>
      <point x="931.2" y="497.2" type="line"/>
      <point x="1639.8" y="1489.0" type="line"/>
      <point x="1237.8" y="1489.0" type="line"/>
      <point x="821.2" y="866.0" type="line"/>
      <point x="805.8" y="866.0" type="line"/>
      <point x="594.6" y="1489.0" type="line"/>
    </contour>
  </outline>
</glyph>
<glyph name="Z" format="2">
  <advance height="2479.0" width="1394.4"/>
  <unicode hex="005A"/>
  <anchor x="611.2" y="0.0" name="bottom"/>
  <anchor x="761.8000000000001" y="784.0" name="cross"/>
  <anchor x="889.8" y="1676.0" name="top"/>
  <outline>
    <contour>
      <point x="14.799999999999997" y="0.0" type="line"/>
      <point x="1193.0" y="0.0" type="line"/>
      <point x="1242.2" y="292.8" type="line"/>
      <point x="516.5999999999999" y="292.8" type="line"/>
      <point x="1406.1999999999998" y="1283.8" type="line"/>
      <point x="1440.6" y="1489.0" type="line"/>
      <point x="262.4" y="1489.0" type="line"/>
      <point x="213.2" y="1197.0" type="line"/>
      <point x="938.8000000000001" y="1197.0" type="line"/>
      <point x="49.8" y="205.4" type="line"/>
    </contour>
  </outline>
</glyph>
<glyph name="bracketleft" format="2">
  <advance height="2479.0" width="870.0"/>
  <unicode hex="005B"/>
  <outline>
    <contour>
      <point x="59.0" y="-330.2" type="line"/>
      <point x="681.0" y="-330.2" type="line"/>
      <point x="725.0" y="-69.6" type="line"/>
      <point x="448.20000000000005" y="-69.6" type="line"/>
      <point x="663.0" y="1242.6" type="line"/>
      <point x="940.6" y="1242.6" type="line"/>
      <point x="984.4" y="1503.0" type="line"/>
      <point x="363.0" y="1503.0" type="line"/>
    </contour>
  </outline>
</glyph>
<glyph name="backslash" format="2">
  <advance height="2479.0" width="817.2"/>
  <unicode hex="005C"/>
  <outline>
    <contour>
      <point x="370.0" y="-224.0" type="line"/>
      <point x="666.2" y="-224.0" type="line"/>
      <point x="480.4" y="1559.0" type="line"/>
      <point x="185.0" y="1559.0" type="line"/>
    </contour>
  </outline>
</glyph>
<glyph name="asciicircum" format="2">
  <advance height="2479.0" width="1011.2"/>
  <unicode hex="005E"/>
  <outline>
    <contour>
      <point x="617.0" y="1317.0" type="line"/>
      <point x="602.8000000000001" y="1235.4" type="line"/>
      <point x="654.8000000000001" y="1235.4" type="line"/>
      <point x="669.2" y="1317.0" type="line"/>
    </contour>
    <contour>
      <point x="106.6" y="815.0" type="line"/>
      <point x="373.0" y="815.0" type="line"/>
      <point x="638.4000000000001" y="1264.4" type="line"/>
      <point x="625.2" y="1264.4" type="line"/>
      <point x="747.2" y="815.0" type="line"/>
      <point x="991.6" y="815.0" type="line"/>
      <point x="789.5999999999999" y="1461.4" type="line"/>
      <point x="522.1999999999999" y="1461.4" type="line"/>
    </contour>
  </outline>
</glyph>
<glyph name="underscore" format="2">
  <advance height="2479.0" width="992.2"/>
  <unicode hex="005F"/>
  <anchor x="426.6" y="131.4" name="_bottom"/>
  <outline>
    <contour>
      <point x="899.8" y="0.0" type="line"/>
      <point x="-93.6" y="0.0" type="line"/>
      <point x="-136.4" y="-260.0" type="line"/>
      <point x="857.8" y="-260.0" type="line"/>
    </contour>
  </outline>
</glyph>
<glyph name="grave" format="2">
  <advance height="2479.0" width="1018.0"/>
  <unicode hex="0060"/>
  <anchor x="739.6" y="1303.0" name="_top"/>
  <anchor x="799.0" y="1676.0" name="top"/>
  <outline>
    <contour>
      <point x="614.2" y="1259.2" type="line"/>
      <point x="856.6" y="1259.2" type="line"/>
      <point x="763.0" y="1587.6" type="line"/>
      <point x="447.79999999999995" y="1587.6" type="line"/>
    </contour>
  </outline>
</glyph>
<glyph name="a" format="2">
  <advance height="2479.0" width="1199.0"/>
  <unicode hex="0061"/>
  <anchor x="506.20000000000005" y="0.0" name="bottom"/>
  <anchor x="1002.5999999999999" y="0.0" name="ogonek"/>
  <anchor x="739.8" y="1303.0" name="rhalfring"/>
  <anchor x="735.0" y="1303.0" name="top"/>
  <outline>
    <contour>
      <point x="331.6" y="-23.4" type="curve" smooth="yes"/>
      <point x="487.4" y="-23.4"/>
      <point x="606.4" y="41.4"/>
      <point x="685.4000000000001" y="155.8" type="curve"/>
      <point x="694.2" y="155.8" type="line"/>
      <point x="668.2" y="0.0" type="line"/>
      <point x="1002.5999999999999" y="0.0" type="line"/>
      <point x="1129.3999999999999" y="759.2" type="line" smooth="yes"/>
      <point x="1169.1999999999998" y="995.8"/>
      <point x="979.0" y="1132.0"/>
      <point x="697.0" y="1132.0" type="curve" smooth="yes"/>
      <point x="396.0" y="1132.0"/>
      <point x="199.2" y="980.2"/>
      <point x="137.8" y="776.4" type="curve"/>
      <point x="464.0" y="764.8" type="line"/>
      <point x="490.6" y="837.0"/>
      <point x="559.0" y="880.0"/>
      <point x="652.4" y="880.0" type="curve" smooth="yes"/>
      <point x="739.8" y="880.0"/>
      <point x="774.0" y="838.8"/>
      <point x="774.0" y="762.6" type="curve" smooth="yes"/>
      <point x="774.0" y="759.2" type="line" smooth="yes"/>
      <point x="774.0" y="690.6"/>
      <point x="684.6" y="676.8"/>
      <point x="492.20000000000005" y="659.6" type="curve" smooth="yes"/>
      <point x="263.2" y="640.8"/>
      <point x="60.8" y="557.0"/>
      <point x="19.999999999999996" y="309.8" type="curve" smooth="yes"/>
      <point x="-17.400000000000006" y="89.39999999999999"/>
      <point x="119.4" y="-23.4"/>
    </contour>
    <contour>
      <point x="481.40000000000003" y="209.8" type="curve" smooth="yes"/>
      <point x="398.2" y="209.8"/>
      <point x="347.8" y="254.6"/>
      <point x="359.20000000000005" y="327.2" type="curve" smooth="yes"/>
      <point x="370.40000000000003" y="399.8"/>
      <point x="435.20000000000005" y="442.4"/>
      <point x="539.4" y="457.8" type="curve" smooth="yes"/>
      <point x="605.0" y="469.20000000000005"/>
      <point x="691.0" y="482.2"/>
      <point x="733.2" y="503.4" type="curve"/>
      <point x="716.0" y="397.6" type="line" smooth="yes"/>
      <point x="698.6" y="288.2"/>
      <point x="594.2" y="209.8"/>
    </contour>
  </outline>
</glyph>
<glyph name="b" format="2">
  <advance height="2479.0" width="1311.0"/>
  <unicode hex="0062"/>
  <anchor x="541.6" y="0.0" name="bottom"/>
  <anchor x="407.8" y="1280.0" name="cross"/>
  <anchor x="923.8" y="1303.0" name="top"/>
  <outline>
    <contour>
      <point x="19.799999999999997" y="0.0" type="line"/>
      <point x="371.4" y="0.0" type="line"/>
      <point x="401.2" y="180.8" type="line"/>
      <point x="414.2" y="180.8" type="line"/>
      <point x="440.79999999999995" y="78.19999999999999"/>
      <point x="525.0" y="-16.6"/>
      <point x="694.4" y="-16.6" type="curve" smooth="yes"/>
      <point x="940.8" y="-16.6"/>
      <point x="1173.6" y="177.8"/>
      <point x="1236.6" y="558.4" type="curve" smooth="yes"/>
      <point x="1301.8" y="952.0"/>
      <point x="1121.6" y="1132.0"/>
      <point x="887.4" y="1132.0" type="curve" smooth="yes"/>
      <point x="711.8" y="1132.0"/>
      <point x="595.4" y="1028.4"/>
      <point x="537.4" y="925.6" type="curve"/>
      <point x="530.4" y="925.6" type="line"/>
      <point x="622.8" y="1489.0" type="line"/>
      <point x="267.0" y="1489.0" type="line"/>
    </contour>
    <contour>
      <point x="461.0" y="559.0" type="curve" smooth="yes"/>
      <point x="490.0" y="741.0"/>
      <point x="585.0" y="853.8"/>
      <point x="715.8000000000001" y="853.8" type="curve" smooth="yes"/>
      <point x="847.4" y="853.8"/>
      <point x="900.1999999999999" y="738.0"/>
      <point x="871.8" y="559.0" type="curve" smooth="yes"/>
      <point x="842.8" y="378.4"/>
      <point x="749.4" y="261.4"/>
      <point x="618.2" y="261.4" type="curve" smooth="yes"/>
      <point x="488.2" y="261.4"/>
      <point x="432.0" y="377.8"/>
    </contour>
  </outline>
</glyph>
<glyph name="c" format="2">
  <advance height="2479.0" width="1222.0"/>
  <unicode hex="0063"/>
  <anchor x="544.6" y="0.0" name="cedilla"/>
  <anchor x="757.1999999999999" y="1303.0" name="top"/>
  <outline>
    <contour>
      <point x="538.0" y="-20.6" type="curve" smooth="yes"/>
      <point x="852.8" y="-20.6"/>
      <point x="1075.8000000000002" y="160.8"/>
      <point x="1133.4" y="437.2" type="curve"/>
      <point x="800.8000000000001" y="437.2" type="line"/>
      <point x="767.0" y="320.0"/>
      <point x="685.8000000000001" y="254.2"/>
      <point x="587.2" y="254.2" type="curve" smooth="yes"/>
      <point x="463.2" y="254.2"/>
      <point x="399.8" y="360.0"/>
      <point x="431.8" y="559.0" type="curve" smooth="yes"/>
      <point x="463.0" y="756.0"/>
      <point x="563.6" y="861.0"/>
      <point x="689.6" y="861.0" type="curve" smooth="yes"/>
      <point x="790.0" y="861.0"/>
      <point x="844.4" y="791.2"/>
      <point x="839.0" y="678.2" type="curve"/>
      <point x="1171.8000000000002" y="678.2" type="line"/>
      <point x="1209.6" y="952.8"/>
      <point x="1039.6" y="1132.0"/>
      <point x="729.4" y="1132.0" type="curve" smooth="yes"/>
      <point x="377.6" y="1132.0"/>
      <point x="124.39999999999999" y="897.8"/>
      <point x="69.6" y="555.4" type="curve" smooth="yes"/>
      <point x="11.999999999999996" y="213.2"/>
      <point x="183.79999999999998" y="-20.6"/>
    </contour>
  </outline>
</glyph>
<glyph name="d" format="2">
  <advance height="2479.0" width="1311.6000000000001"/>
  <unicode hex="0064"/>
  <anchor x="559.4" y="0.0" name="bottom"/>
  <anchor x="1139.6000000000001" y="1280.0" name="cross"/>
  <anchor x="1476.8000000000002" y="1489.0" name="raccent"/>
  <anchor x="717.6" y="1489.0" name="top"/>
  <outline>
    <contour>
      <point x="426.40000000000003" y="-16.6" type="curve" smooth="yes"/>
      <point x="594.2" y="-16.6"/>
      <point x="710.0" y="78.19999999999999"/>
      <point x="772.4" y="180.8" type="curve"/>
      <point x="783.8" y="180.8" type="line"/>
      <point x="753.0" y="0.0" type="line"/>
      <point x="1105.4" y="0.0" type="line"/>
      <point x="1352.6000000000001" y="1489.0" type="line"/>
      <point x="996.6" y="1489.0" type="line"/>
      <point x="903.0" y="925.6" type="line"/>
      <point x="895.4" y="925.6" type="line"/>
      <point x="869.8000000000001" y="1028.4"/>
      <point x="790.4000000000001" y="1132.0"/>
      <point x="614.0" y="1132.0" type="curve" smooth="yes"/>
      <point x="380.8" y="1132.0"/>
      <point x="140.0" y="952.0"/>
      <point x="74.6" y="558.4" type="curve" smooth="yes"/>
      <point x="11.799999999999994" y="177.8"/>
      <point x="178.39999999999998" y="-16.6"/>
    </contour>
    <contour>
      <point x="594.1999999999999" y="261.4" type="curve" smooth="yes"/>
      <point x="462.20000000000005" y="261.4"/>
      <point x="409.20000000000005" y="378.4"/>
      <point x="439.6" y="559.0" type="curve" smooth="yes"/>
      <point x="468.80000000000007" y="738.0"/>
      <point x="560.2" y="853.8"/>
      <point x="691.6" y="853.8" type="curve" smooth="yes"/>
      <point x="822.4" y="853.8"/>
      <point x="880.2" y="741.0"/>
      <point x="850.4" y="559.0" type="curve" smooth="yes"/>
      <point x="820.2" y="377.8"/>
      <point x="723.4" y="261.4"/>
    </contour>
  </outline>
</glyph>
<glyph name="e" format="2">
  <advance height="2479.0" width="1244.1999999999998"/>
  <unicode hex="0065"/>
  <anchor x="524.2" y="0.0" name="bottom"/>
  <anchor x="529.5999999999999" y="0.0" name="cedilla"/>
  <anchor x="833.2" y="39.2" name="ogonek"/>
  <anchor x="740.2" y="1303.0" name="top"/>
  <outline>
    <contour>
      <point x="538.6" y="-20.6" type="curve"/>
      <point x="832.8" y="-20.6"/>
      <point x="1046.4" y="120.4"/>
      <point x="1125.6000000000001" y="340.6" type="curve"/>
      <point x="800.6" y="349.8" type="line"/>
      <point x="760.8" y="275.4"/>
      <point x="680.8" y="235.8"/>
      <point x="587.8" y="235.8" type="curve" smooth="yes"/>
      <point x="449.2" y="235.8"/>
      <point x="382.2" y="317.6"/>
      <point x="404.6" y="459.59999999999997" type="curve" smooth="yes"/>
      <point x="443.8" y="671.6" type="line" smooth="yes"/>
      <point x="465.2" y="785.5999999999999"/>
      <point x="569.6" y="874.6"/>
      <point x="686.6" y="874.6" type="curve"/>
      <point x="803.1999999999999" y="874.6"/>
      <point x="871.2" y="794.0"/>
      <point x="853.4" y="679.4" type="curve"/>
      <point x="213.79999999999998" y="679.4" type="line"/>
      <point x="181.0" y="472.0" type="line"/>
      <point x="1151.0" y="472.0" type="line"/>
      <point x="1165.2" y="561.8" type="line" smooth="yes"/>
      <point x="1225.8" y="928.2"/>
      <point x="1037.0" y="1132.0"/>
      <point x="719.8" y="1132.0" type="curve" smooth="yes"/>
      <point x="382.6" y="1132.0"/>
      <point x="127.2" y="900.2"/>
      <point x="69.6" y="554.8" type="curve" smooth="yes"/>
      <point x="9.399999999999997" y="197.4"/>
      <point x="187.8" y="-20.6"/>
    </contour>
  </outline>
</glyph>
<glyph name="f" format="2">
  <advance height="2479.0" width="807.8000000000001"/>
  <unicode hex="0066"/>
  <anchor x="263.0" y="0.0" name="bottom"/>
  <anchor x="367.59999999999997" y="617.8" name="cross"/>
  <anchor x="658.8" y="1676.0" name="top"/>
  <outline>
    <contour>
      <point x="841.5999999999999" y="1117.0" type="line"/>
      <point x="123.39999999999999" y="1117.0" type="line"/>
      <point x="78.8" y="855.2" type="line"/>
      <point x="797.5999999999999" y="855.2" type="line"/>
    </contour>
    <component base="_part.f_base" xOffset="-13.600000000000001"/>
  </outline>
</glyph>
<glyph name="g" format="2">
  <advance height="2479.0" width="1313.3999999999999"/>
  <unicode hex="0067"/>
  <anchor x="475.6" y="-421.2" name="bottom"/>
  <anchor x="1021.4" y="566.4" name="cross"/>
  <anchor x="759.4" y="1303.0" name="top"/>
  <outline>
    <contour>
      <point x="470.40000000000003" y="-442.0" type="curve" smooth="yes"/>
      <point x="805.2" y="-442.0"/>
      <point x="1061.8" y="-289.6"/>
      <point x="1106.6" y="-4.0" type="curve" smooth="yes"/>
      <point x="1293.3999999999999" y="1117.0" type="line"/>
      <point x="938.5999999999999" y="1117.0" type="line"/>
      <point x="907.1999999999999" y="925.6" type="line"/>
      <point x="897.2" y="925.6" type="line"/>
      <point x="870.2" y="1028.4"/>
      <point x="791.0" y="1132.0"/>
      <point x="614.4" y="1132.0" type="curve" smooth="yes"/>
      <point x="381.20000000000005" y="1132.0"/>
      <point x="139.6" y="952.0"/>
      <point x="74.8" y="560.0" type="curve" smooth="yes"/>
      <point x="11.999999999999993" y="180.6"/>
      <point x="185.4" y="15.4"/>
      <point x="430.8" y="15.4" type="curve" smooth="yes"/>
      <point x="595.2" y="15.4"/>
      <point x="718.2" y="92.19999999999999"/>
      <point x="776.2" y="195.0" type="curve"/>
      <point x="788.8" y="195.0" type="line"/>
      <point x="756.1999999999999" y="-1.5999999999999979" type="line" smooth="yes"/>
      <point x="735.4" y="-143.79999999999998"/>
      <point x="638.1999999999999" y="-195.8"/>
      <point x="518.4000000000001" y="-195.8" type="curve" smooth="yes"/>
      <point x="403.00000000000006" y="-195.8"/>
      <point x="344.59999999999997" y="-152.8"/>
      <point x="335.20000000000005" y="-82.8" type="curve"/>
      <point x="-5.200000000000003" y="-102.0" type="line"/>
      <point x="-8.600000000000005" y="-297.4"/>
      <point x="150.6" y="-442.0"/>
    </contour>
    <contour>
      <point x="595.6" y="274.4" type="curve" smooth="yes"/>
      <point x="463.40000000000003" y="274.4"/>
      <point x="411.00000000000006" y="381.4"/>
      <point x="439.6" y="560.6" type="curve" smooth="yes"/>
      <point x="468.00000000000006" y="738.0"/>
      <point x="559.4" y="853.8"/>
      <point x="691.4" y="853.8" type="curve" smooth="yes"/>
      <point x="821.8" y="853.8"/>
      <point x="879.2" y="741.0"/>
      <point x="850.4" y="560.6" type="curve" smooth="yes"/>
      <point x="821.4" y="380.8"/>
      <point x="724.5999999999999" y="274.4"/>
    </contour>
  </outline>
</glyph>
<glyph name="h" format="2">
  <advance height="2479.0" width="1301.2"/>
  <unicode hex="0068"/>
  <anchor x="560.1999999999999" y="0.0" name="bottom"/>
  <anchor x="200.40000000000003" y="0.0" name="cedilla"/>
  <anchor x="406.2" y="1277.4" name="cross"/>
  <anchor x="472.59999999999997" y="1676.0" name="top"/>
  <outline>
    <contour>
      <point x="483.6" y="636.8" type="line" smooth="yes"/>
      <point x="504.2" y="764.6"/>
      <point x="593.6" y="840.2"/>
      <point x="706.4" y="840.2" type="curve" smooth="yes"/>
      <point x="820.0" y="840.2"/>
      <point x="873.1999999999999" y="766.4"/>
      <point x="853.8" y="642.0" type="curve" smooth="yes"/>
      <point x="746.4" y="0.0" type="line"/>
      <point x="1101.6" y="0.0" type="line"/>
      <point x="1221.4" y="712.4" type="line" smooth="yes"/>
      <point x="1262.8" y="965.2"/>
      <point x="1136.6000000000001" y="1132.0"/>
      <point x="903.1999999999999" y="1132.0" type="curve" smooth="yes"/>
      <point x="735.0" y="1132.0"/>
      <point x="602.6" y="1049.4"/>
      <point x="530.2" y="912.6" type="curve"/>
      <point x="518.6" y="912.6" type="line"/>
      <point x="613.4" y="1489.0" type="line"/>
      <point x="269.4" y="1489.0" type="line"/>
      <point x="22.4" y="0.0" type="line"/>
      <point x="377.6" y="0.0" type="line"/>
    </contour>
  </outline>
</glyph>
<glyph name="k" format="2">
  <advance height="2479.0" width="1218.8000000000002"/>
  <unicode hex="006B"/>
  <anchor x="527.0" y="0.0" name="bottom"/>
  <anchor x="479.8" y="1676.0" name="top"/>
  <outline>
    <contour>
      <point x="391.0" y="293.4" type="line"/>
      <point x="641.8000000000001" y="543.8" type="line"/>
      <point x="735.0" y="543.8" type="line"/>
      <point x="1296.6000000000001" y="1117.0" type="line"/>
      <point x="893.4" y="1117.0" type="line"/>
      <point x="511.6" y="717.6" type="line"/>
      <point x="462.2" y="717.6" type="line"/>
    </contour>
    <contour>
      <point x="22.4" y="0.0" type="line"/>
      <point x="377.6" y="0.0" type="line"/>
      <point x="624.6" y="1489.0" type="line"/>
      <point x="269.4" y="1489.0" type="line"/>
    </contour>
    <contour>
      <point x="715.6" y="0.0" type="line"/>
      <point x="1127.2" y="0.0" type="line"/>
      <point x="777.2" y="716.0" type="line"/>
      <point x="500.6" y="464.2" type="line"/>
    </contour>
  </outline>
</glyph>
<glyph name="m" format="2">
  <advance height="2479.0" width="1896.8"/>
  <unicode hex="006D"/>
  <anchor x="860.1999999999999" y="0.0" name="bottom"/>
  <anchor x="1077.6" y="1303.0" name="top"/>
  <outline>
    <contour>
      <point x="22.4" y="0.0" type="line"/>
      <point x="377.6" y="0.0" type="line"/>
      <point x="489.6" y="661.2" type="line" smooth="yes"/>
      <point x="505.20000000000005" y="771.4"/>
      <point x="582.8" y="842.6"/>
      <point x="675.2" y="842.6" type="curve" smooth="yes"/>
      <point x="767.8" y="842.6"/>
      <point x="818.0" y="777.8000000000001"/>
      <point x="802.8" y="674.6" type="curve" smooth="yes"/>
      <point x="689.1999999999999" y="0.0" type="line"/>
      <point x="1031.2" y="0.0" type="line"/>
      <point x="1143.8" y="667.0" type="line" smooth="yes"/>
      <point x="1159.6" y="773.8"/>
      <point x="1229.8" y="842.6"/>
      <point x="1327.0" y="842.6" type="curve" smooth="yes"/>
      <point x="1418.6000000000001" y="842.6"/>
      <point x="1472.3999999999999" y="781.8"/>
      <point x="1456.0" y="671.2" type="curve" smooth="yes"/>
      <point x="1342.2" y="0.0" type="line"/>
      <point x="1698.0" y="0.0" type="line"/>
      <point x="1823.0" y="752.0" type="line" smooth="yes"/>
      <point x="1862.1999999999998" y="988.1999999999999"/>
      <point x="1739.3999999999999" y="1132.0"/>
      <point x="1530.2" y="1132.0" type="curve" smooth="yes"/>
      <point x="1364.6" y="1132.0"/>
      <point x="1219.2" y="1044.6000000000001"/>
      <point x="1156.8" y="912.6" type="curve"/>
      <point x="1145.0" y="912.6" type="line"/>
      <point x="1137.2" y="1045.2"/>
      <point x="1031.0" y="1132.0"/>
      <point x="877.0" y="1132.0" type="curve" smooth="yes"/>
      <point x="723.1999999999999" y="1132.0"/>
      <point x="593.6" y="1047.6"/>
      <point x="525.0" y="912.6" type="curve"/>
      <point x="512.6" y="912.6" type="line"/>
      <point x="546.4" y="1117.0" type="line"/>
      <point x="208.4" y="1117.0" type="line"/>
    </contour>
  </outline>
</glyph>
<glyph name="n" format="2">
  <advance height="2479.0" width="1299.0"/>
  <unicode hex="006E"/>
  <anchor x="559.6" y="0.0" name="bottom"/>
  <anchor x="774.6" y="1303.0" name="top"/>
  <outline>
    <contour>
      <point x="483.6" y="636.8" type="line" smooth="yes"/>
      <point x="505.0" y="764.6"/>
      <point x="593.1999999999999" y="840.2"/>
      <point x="704.8000000000001" y="840.2" type="curve" smooth="yes"/>
      <point x="818.4000000000001" y="840.2"/>
      <point x="871.6" y="765.8"/>
      <point x="851.4" y="642.0" type="curve" smooth="yes"/>
      <point x="744.1999999999999" y="0.0" type="line"/>
      <point x="1099.1999999999998" y="0.0" type="line"/>
      <point x="1219.1999999999998" y="712.4" type="line" smooth="yes"/>
      <point x="1261.1999999999998" y="964.5999999999999"/>
      <point x="1135.0" y="1132.0"/>
      <point x="901.4" y="1132.0" type="curve" smooth="yes"/>
      <point x="735.8" y="1132.0"/>
      <point x="595.0" y="1048.8"/>
      <point x="525.0" y="912.6" type="curve"/>
      <point x="512.6" y="912.6" type="line"/>
      <point x="546.4" y="1117.0" type="line"/>
      <point x="208.4" y="1117.0" type="line"/>
      <point x="22.4" y="0.0" type="line"/>
      <point x="377.6" y="0.0" type="line"/>
    </contour>
  </outline>
</glyph>
<glyph name="o" format="2">
  <advance height="2479.0" width="1268.4"/>
  <unicode hex="006F"/>
  <anchor x="541.4000000000001" y="0.0" name="bottom"/>
  <anchor x="699.8000000000001" y="0.0" name="ogonek"/>
  <anchor x="756.6" y="1303.0" name="top"/>
  <outline>
    <contour>
      <point x="540.2" y="-20.6" type="curve" smooth="yes"/>
      <point x="890.5999999999999" y="-20.6"/>
      <point x="1140.1999999999998" y="209.8"/>
      <point x="1197.8" y="553.0" type="curve" smooth="yes"/>
      <point x="1253.8" y="898.4"/>
      <point x="1078.6" y="1132.0"/>
      <point x="727.6" y="1132.0" type="curve" smooth="yes"/>
      <point x="376.0" y="1132.0"/>
      <point x="125.8" y="900.8000000000001"/>
      <point x="70.0" y="557.6" type="curve" smooth="yes"/>
      <point x="12.999999999999996" y="212.0"/>
      <point x="187.2" y="-20.6"/>
    </contour>
    <contour>
      <point x="580.0" y="247.0" type="curve" smooth="yes"/>
      <point x="451.0" y="247.0"/>
      <point x="400.8" y="371.0"/>
      <point x="431.2" y="555.4" type="curve" smooth="yes"/>
      <point x="461.6" y="741.4"/>
      <point x="556.6" y="868.2"/>
      <point x="687.8000000000001" y="868.2" type="curve" smooth="yes"/>
      <point x="815.6" y="868.2"/>
      <point x="865.8000000000001" y="743.8000000000001"/>
      <point x="836.6" y="560.0" type="curve" smooth="yes"/>
      <point x="805.8000000000001" y="373.2"/>
      <point x="710.2" y="247.0"/>
    </contour>
  </outline>
</glyph>
<glyph name="p" format="2">
  <advance height="2479.0" width="1319.2"/>
  <unicode hex="0070"/>
  <anchor x="136.79999999999998" y="-404.6" name="bottom"/>
  <anchor x="1190.1999999999998" y="-480.6" name="bottom0315"/>
  <anchor x="174.0" y="-163.0" name="cross"/>
  <anchor x="840.2" y="1303.0" name="top"/>
  <outline>
    <contour>
      <point x="-47.6" y="-419.0" type="line"/>
      <point x="310.20000000000005" y="-419.0" type="line"/>
      <point x="409.20000000000005" y="180.8" type="line"/>
      <point x="419.2" y="180.8" type="line"/>
      <point x="444.2" y="78.19999999999999"/>
      <point x="528.4000000000001" y="-16.6"/>
      <point x="698.8" y="-16.6" type="curve" smooth="yes"/>
      <point x="944.1999999999999" y="-16.6"/>
      <point x="1177.1999999999998" y="177.8"/>
      <point x="1240.8" y="558.4" type="curve" smooth="yes"/>
      <point x="1305.1999999999998" y="952.0"/>
      <point x="1124.2" y="1132.0"/>
      <point x="892.6" y="1132.0" type="curve" smooth="yes"/>
      <point x="715.2" y="1132.0"/>
      <point x="598.8000000000001" y="1028.4"/>
      <point x="542.4" y="925.6" type="curve"/>
      <point x="531.2" y="925.6" type="line"/>
      <point x="562.6" y="1117.0" type="line"/>
      <point x="210.2" y="1117.0" type="line"/>
    </contour>
    <contour>
      <point x="465.40000000000003" y="559.0" type="curve" smooth="yes"/>
      <point x="493.40000000000003" y="741.0"/>
      <point x="588.6" y="853.8"/>
      <point x="720.1999999999999" y="853.8" type="curve" smooth="yes"/>
      <point x="850.8000000000001" y="853.8"/>
      <point x="903.6" y="738.0"/>
      <point x="876.2" y="559.0" type="curve" smooth="yes"/>
      <point x="843.8" y="378.4"/>
      <point x="752.8000000000001" y="261.4"/>
      <point x="622.5999999999999" y="261.4" type="curve" smooth="yes"/>
      <point x="491.6" y="261.4"/>
      <point x="434.80000000000007" y="377.8"/>
    </contour>
  </outline>
</glyph>
<glyph name="q" format="2">
  <advance height="2479.0" width="1317.4"/>
  <unicode hex="0071"/>
  <anchor x="863.1999999999999" y="-404.6" name="bottom"/>
  <anchor x="907.0" y="-163.0" name="cross"/>
  <anchor x="725.0" y="1303.0" name="top"/>
  <outline>
    <contour>
      <point x="685.0" y="-419.0" type="line"/>
      <point x="1040.8000000000002" y="-419.0" type="line"/>
      <point x="1295.0" y="1117.0" type="line"/>
      <point x="943.4" y="1117.0" type="line"/>
      <point x="910.2" y="925.6" type="line"/>
      <point x="899.6" y="925.6" type="line"/>
      <point x="875.0" y="1028.4"/>
      <point x="794.0" y="1132.0"/>
      <point x="617.4" y="1132.0" type="curve" smooth="yes"/>
      <point x="384.2" y="1132.0"/>
      <point x="143.4" y="952.0"/>
      <point x="78.39999999999999" y="558.4" type="curve" smooth="yes"/>
      <point x="15.399999999999991" y="177.8"/>
      <point x="183.8" y="-16.6"/>
      <point x="429.99999999999994" y="-16.6" type="curve" smooth="yes"/>
      <point x="598.6" y="-16.6"/>
      <point x="715.1999999999999" y="78.19999999999999"/>
      <point x="776.0" y="180.8" type="curve"/>
      <point x="783.6" y="180.8" type="line"/>
    </contour>
    <contour>
      <point x="598.8000000000001" y="261.4" type="curve" smooth="yes"/>
      <point x="467.8" y="261.4"/>
      <point x="413.59999999999997" y="378.4"/>
      <point x="443.0" y="559.0" type="curve" smooth="yes"/>
      <point x="473.4" y="738.0"/>
      <point x="564.8000000000001" y="853.8"/>
      <point x="697.4" y="853.8" type="curve" smooth="yes"/>
      <point x="827.2" y="853.8"/>
      <point x="884.6" y="741.0"/>
      <point x="853.8000000000001" y="559.0" type="curve" smooth="yes"/>
      <point x="824.6" y="377.8"/>
      <point x="729.0" y="261.4"/>
    </contour>
  </outline>
</glyph>
<glyph name="r" format="2">
  <advance height="2479.0" width="862.6"/>
  <unicode hex="0072"/>
  <anchor x="199.2" y="0.0" name="bottom"/>
  <anchor x="288.2" y="535.0" name="cross"/>
  <anchor x="595.1999999999999" y="1303.0" name="top"/>
  <outline>
    <contour>
      <point x="20.0" y="0.0" type="line"/>
      <point x="375.20000000000005" y="0.0" type="line"/>
      <point x="475.20000000000005" y="607.0" type="line" smooth="yes"/>
      <point x="498.80000000000007" y="739.6"/>
      <point x="607.8" y="829.0"/>
      <point x="734.0" y="829.0" type="curve" smooth="yes"/>
      <point x="777.6" y="829.0"/>
      <point x="838.2" y="822.4"/>
      <point x="871.0" y="810.6" type="curve"/>
      <point x="923.2" y="1120.0" type="line"/>
      <point x="893.4" y="1127.8000000000002"/>
      <point x="859.2" y="1132.6"/>
      <point x="825.8" y="1132.6" type="curve" smooth="yes"/>
      <point x="704.0" y="1132.6"/>
      <point x="593.8000000000001" y="1061.4"/>
      <point x="528.6" y="913.6" type="curve"/>
      <point x="517.4000000000001" y="913.6" type="line"/>
      <point x="551.2" y="1117.0" type="line"/>
      <point x="206.0" y="1117.0" type="line"/>
    </contour>
  </outline>
</glyph>
<glyph name="s" format="2">
  <advance height="2479.0" width="1177.4"/>
  <unicode hex="0073"/>
  <anchor x="501.59999999999997" y="0.0" name="bottom"/>
  <anchor x="508.2" y="0.0" name="cedilla"/>
  <anchor x="719.0" y="1303.0" name="top"/>
  <outline>
    <contour>
      <point x="1121.8" y="775.8" type="line"/>
      <point x="1140.8000000000002" y="996.6"/>
      <point x="974.8000000000001" y="1132.0"/>
      <point x="662.6" y="1132.0" type="curve" smooth="yes"/>
      <point x="369.8" y="1132.0"/>
      <point x="165.39999999999998" y="1010.8"/>
      <point x="129.4" y="794.6" type="curve" smooth="yes"/>
      <point x="99.39999999999999" y="615.0"/>
      <point x="197.79999999999998" y="495.4"/>
      <point x="414.2" y="454.2" type="curve" smooth="yes"/>
      <point x="603.2" y="417.59999999999997" type="line" smooth="yes"/>
      <point x="693.4" y="399.4"/>
      <point x="722.8000000000001" y="378.6"/>
      <point x="717.6" y="337.4" type="curve" smooth="yes"/>
      <point x="708.2" y="272.59999999999997"/>
      <point x="626.5999999999999" y="223.20000000000002"/>
      <point x="526.6" y="225.60000000000002" type="curve" smooth="yes"/>
      <point x="435.40000000000003" y="227.20000000000002"/>
      <point x="379.8" y="268.2"/>
      <point x="376.4" y="350.4" type="curve"/>
      <point x="29.999999999999996" y="342.4" type="line"/>
      <point x="19.799999999999997" y="123.0"/>
      <point x="190.2" y="-20.6"/>
      <point x="517.6" y="-20.6" type="curve" smooth="yes"/>
      <point x="809.4" y="-20.6"/>
      <point x="1041.6" y="117.39999999999999"/>
      <point x="1079.2" y="339.0" type="curve" smooth="yes"/>
      <point x="1106.8" y="510.4"/>
      <point x="1007.4000000000001" y="615.1999999999999"/>
      <point x="792.2" y="658.0" type="curve" smooth="yes"/>
      <point x="583.4000000000001" y="699.0" type="line" smooth="yes"/>
      <point x="492.8" y="718.1999999999999"/>
      <point x="474.20000000000005" y="742.6"/>
      <point x="481.2" y="777.8000000000001" type="curve" smooth="yes"/>
      <point x="490.40000000000003" y="842.6"/>
      <point x="573.2" y="887.8"/>
      <point x="664.6" y="887.8" type="curve" smooth="yes"/>
      <point x="749.1999999999999" y="887.8"/>
      <point x="800.8000000000001" y="838.8000000000001"/>
      <point x="800.4000000000001" y="767.0" type="curve"/>
    </contour>
  </outline>
</glyph>
<glyph name="t" format="2">
  <advance height="2479.0" width="812.2"/>
  <unicode hex="0074"/>
  <anchor x="836.8000000000001" y="1562.0" name="raccent"/>
  <anchor x="353.59999999999997" y="0.0" name="bottom"/>
  <anchor x="463.0" y="0.0" name="cedilla"/>
  <anchor x="525.2" y="1531.4" name="top"/>
  <outline>
    <contour>
      <point x="836.0" y="1117.0" type="line"/>
      <point x="131.4" y="1117.0" type="line"/>
      <point x="87.60000000000001" y="855.2" type="line"/>
      <point x="792.2" y="855.2" type="line"/>
    </contour>
    <component base="_part.t_base"/>
  </outline>
</glyph>
<glyph name="u" format="2">
  <advance height="2479.0" width="1312.0"/>
  <unicode hex="0075"/>
  <anchor x="598.1999999999999" y="0.0" name="bottom"/>
  <anchor x="1096.6" y="0.0" name="ogonek"/>
  <anchor x="775.6" y="1303.0" name="top"/>
  <outline>
    <contour>
      <point x="821.4" y="482.6" type="line" smooth="yes"/>
      <point x="801.5999999999999" y="351.8"/>
      <point x="706.0" y="279.0"/>
      <point x="600.4" y="279.0" type="curve" smooth="yes"/>
      <point x="490.99999999999994" y="279.0"/>
      <point x="437.4" y="353.6"/>
      <point x="456.20000000000005" y="475.0" type="curve" smooth="yes"/>
      <point x="562.8000000000001" y="1117.0" type="line"/>
      <point x="207.6" y="1117.0" type="line"/>
      <point x="88.6" y="404.6" type="line" smooth="yes"/>
      <point x="47.199999999999996" y="152.4"/>
      <point x="172.79999999999998" y="-15.0"/>
      <point x="402.8" y="-15.0" type="curve" smooth="yes"/>
      <point x="569.1999999999999" y="-15.0"/>
      <point x="711.6" y="71.2"/>
      <point x="780.8" y="207.4" type="curve"/>
      <point x="792.0" y="207.4" type="line"/>
      <point x="757.5999999999999" y="0.0" type="line"/>
      <point x="1096.6" y="0.0" type="line"/>
      <point x="1283.6" y="1117.0" type="line"/>
      <point x="927.6" y="1117.0" type="line"/>
    </contour>
  </outline>
</glyph>
<glyph name="w" format="2">
  <advance height="2479.0" width="1766.4"/>
  <unicode hex="0077"/>
  <anchor x="783.0" y="0.0" name="bottom"/>
  <anchor x="1005.2" y="1303.0" name="top"/>
  <outline>
    <contour>
      <point x="229.0" y="0.0" type="line"/>
      <point x="609.2" y="0.0" type="line"/>
      <point x="891.4" y="650.8" type="line"/>
      <point x="904.4" y="650.8" type="line"/>
      <point x="971.2" y="0.0" type="line"/>
      <point x="1351.4" y="0.0" type="line"/>
      <point x="1829.4" y="1117.0" type="line"/>
      <point x="1471.8" y="1117.0" type="line"/>
      <point x="1207.0" y="406.6" type="line"/>
      <point x="1197.4" y="406.6" type="line"/>
      <point x="1150.8" y="1117.0" type="line"/>
      <point x="802.2" y="1117.0" type="line"/>
      <point x="521.1999999999999" y="401.20000000000005" type="line"/>
      <point x="511.59999999999997" y="401.20000000000005" type="line"/>
      <point x="480.6" y="1117.0" type="line"/>
      <point x="123.0" y="1117.0" type="line"/>
    </contour>
  </outline>
</glyph>
<glyph name="x" format="2">
  <advance height="2479.0" width="1198.6"/>
  <unicode hex="0078"/>
  <anchor x="506.4" y="0.0" name="bottom"/>
  <anchor x="599.4" y="559.0" name="cross"/>
  <anchor x="1042.4" y="143.2" name="cyrtic"/>
  <anchor x="860.8" y="0.0" name="right"/>
  <anchor x="721.4" y="1303.0" name="top"/>
  <outline>
    <contour>
      <point x="508.4" y="1117.0" type="line"/>
      <point x="148.0" y="1117.0" type="line"/>
      <point x="362.8" y="559.0" type="line"/>
      <point x="-54.800000000000004" y="0.0" type="line"/>
      <point x="306.4" y="0.0" type="line"/>
      <point x="567.1999999999999" y="370.6" type="line"/>
      <point x="711.0" y="0.0" type="line"/>
      <point x="1067.4" y="0.0" type="line"/>
      <point x="836.2" y="559.0" type="line"/>
      <point x="1241.4" y="1117.0" type="line"/>
      <point x="883.4" y="1117.0" type="line"/>
      <point x="630.8" y="748.8" type="line"/>
    </contour>
  </outline>
</glyph>
<glyph name="y" format="2">
  <advance height="2479.0" width="1219.2"/>
  <unicode hex="0079"/>
  <anchor x="883.6" y="-9.799999999999997" name="bottom"/>
  <anchor x="657.2" y="-419.0" name="ogonek"/>
  <anchor x="730.8000000000001" y="1303.0" name="top"/>
  <outline>
    <contour>
      <point x="169.2" y="-419.0" type="curve" smooth="yes"/>
      <point x="423.40000000000003" y="-419.0"/>
      <point x="572.6" y="-290.40000000000003"/>
      <point x="666.2" y="-106.6" type="curve" smooth="yes"/>
      <point x="1289.6" y="1117.0" type="line"/>
      <point x="901.2" y="1117.0" type="line"/>
      <point x="560.2" y="319.2" type="line"/>
      <point x="548.4" y="319.2" type="line"/>
      <point x="475.6" y="1117.0" type="line"/>
      <point x="116.6" y="1117.0" type="line"/>
      <point x="320.6" y="-39.2" type="line"/>
      <point x="300.6" y="-73.39999999999999" type="line" smooth="yes"/>
      <point x="250.8" y="-156.2"/>
      <point x="176.2" y="-159.0"/>
      <point x="78.00000000000001" y="-125.39999999999999" type="curve"/>
      <point x="-44.00000000000001" y="-383.8" type="line"/>
      <point x="7.199999999999994" y="-404.6"/>
      <point x="83.2" y="-419.0"/>
    </contour>
  </outline>
</glyph>
<glyph name="z" format="2">
  <advance height="2479.0" width="1196.8"/>
  <unicode hex="007A"/>
  <anchor x="505.20000000000005" y="0.0" name="bottom"/>
  <anchor x="594.6" y="559.0" name="cross"/>
  <anchor x="719.0" y="1303.0" name="top"/>
  <outline>
    <contour>
      <point x="24.800000000000004" y="0.0" type="line"/>
      <point x="987.2" y="0.0" type="line"/>
      <point x="1031.6000000000001" y="276.0" type="line"/>
      <point x="533.8000000000001" y="276.0" type="line"/>
      <point x="536.8000000000001" y="283.2" type="line"/>
      <point x="1118.0" y="894.4" type="line"/>
      <point x="1152.2" y="1117.0" type="line"/>
      <point x="229.4" y="1117.0" type="line"/>
      <point x="182.4" y="841.0" type="line"/>
      <point x="682.0" y="841.0" type="line"/>
      <point x="679.0" y="833.8" type="line"/>
      <point x="57.400000000000006" y="203.0" type="line"/>
    </contour>
  </outline>
</glyph>
<glyph name="braceleft" format="2">
  <advance height="2479.0" width="870.0"/>
  <unicode hex="007B"/>
  <outline>
    <contour>
      <point x="59.0" y="578.6" type="line"/>
      <point x="536.2" y="578.6"/>
      <point x="652.0" y="715.8"/>
      <point x="675.8" y="862.2" type="curve" smooth="yes"/>
      <point x="706.5999999999999" y="1048.2" type="line" smooth="yes"/>
      <point x="727.8" y="1180.2"/>
      <point x="766.8000000000001" y="1242.6"/>
      <point x="940.6" y="1242.6" type="curve"/>
      <point x="984.4" y="1503.0" type="line"/>
      <point x="687.4" y="1503.0"/>
      <point x="430.2" y="1479.3999999999999"/>
      <point x="370.4" y="1090.6" type="curve" smooth="yes"/>
      <point x="348.4" y="953.0" type="line" smooth="yes"/>
      <point x="325.59999999999997" y="807.1999999999999"/>
      <point x="255.4" y="744.0"/>
      <point x="87.60000000000001" y="744.0" type="curve"/>
    </contour>
    <contour>
      <point x="681.0" y="-330.2" type="curve"/>
      <point x="725.0" y="-69.6" type="line"/>
      <point x="551.2" y="-69.6"/>
      <point x="531.8" y="-7.2"/>
      <point x="553.5999999999999" y="124.6" type="curve" smooth="yes"/>
      <point x="584.4" y="310.8" type="line" smooth="yes"/>
      <point x="608.1999999999999" y="457.0"/>
      <point x="538.6" y="594.2"/>
      <point x="61.400000000000006" y="594.2" type="curve"/>
      <point x="35.400000000000006" y="429.0" type="line"/>
      <point x="205.6" y="429.0"/>
      <point x="247.79999999999998" y="365.59999999999997"/>
      <point x="224.99999999999997" y="220.0" type="curve" smooth="yes"/>
      <point x="203.79999999999998" y="82.2" type="line" smooth="yes"/>
      <point x="143.2" y="-306.40000000000003"/>
      <point x="384.0" y="-330.2"/>
    </contour>
    <contour>
      <point x="32.400000000000006" y="429.0" type="line"/>
      <point x="322.59999999999997" y="429.0" type="line"/>
      <point x="375.0" y="744.0" type="line"/>
      <point x="84.60000000000001" y="744.0" type="line"/>
    </contour>
  </outline>
</glyph>
<glyph name="bar" format="2">
  <advance height="2479.0" width="797.0"/>
  <unicode hex="007C"/>
  <outline>
    <contour>
      <point x="804.0" y="1969.0" type="line"/>
      <point x="460.6" y="1969.0" type="line"/>
      <point x="55.60000000000001" y="-480.0" type="line"/>
      <point x="398.40000000000003" y="-480.0" type="line"/>
    </contour>
  </outline>
</glyph>
<glyph name="asciitilde" format="2">
  <advance height="2479.0" width="1406.0"/>
  <unicode hex="007E"/>
  <outline>
    <contour>
      <point x="124.79999999999998" y="388.4" type="curve"/>
      <point x="389.0" y="388.4" type="line"/>
      <point x="405.20000000000005" y="507.59999999999997"/>
      <point x="462.0" y="554.4"/>
      <point x="526.4000000000001" y="554.4" type="curve" smooth="yes"/>
      <point x="577.0" y="554.4"/>
      <point x="596.0" y="532.8000000000001"/>
      <point x="645.8000000000001" y="483.0" type="curve" smooth="yes"/>
      <point x="732.2" y="396.59999999999997"/>
      <point x="802.1999999999999" y="358.6"/>
      <point x="898.8000000000001" y="358.6" type="curve" smooth="yes"/>
      <point x="1105.4" y="358.6"/>
      <point x="1259.0" y="529.4"/>
      <point x="1296.4" y="815.2" type="curve"/>
      <point x="1032.2" y="815.2" type="line"/>
      <point x="1014.4" y="699.1999999999999"/>
      <point x="958.2" y="649.4"/>
      <point x="892.4" y="649.4" type="curve" smooth="yes"/>
      <point x="842.8" y="649.4"/>
      <point x="816.6" y="677.1999999999999"/>
      <point x="772.4" y="722.2" type="curve" smooth="yes"/>
      <point x="679.6" y="815.0"/>
      <point x="610.5999999999999" y="846.6"/>
      <point x="520.4" y="846.6" type="curve" smooth="yes"/>
      <point x="307.40000000000003" y="846.6"/>
      <point x="160.4" y="676.8000000000001"/>
    </contour>
  </outline>
</glyph>
<glyph name="cent" format="2">
  <advance height="2479.0" width="1222.0"/>
  <unicode hex="00A2"/>
  <anchor x="575.8" y="189.4" name="cedilla"/>
  <anchor x="788.4" y="1492.4" name="top"/>
  <outline>
    <contour>
      <point x="472.00000000000006" y="0.0" type="line"/>
      <point x="591.2" y="0.0" type="line"/>
      <point x="855.6" y="1489.0" type="line"/>
      <point x="736.6" y="1489.0" type="line"/>
    </contour>
    <component base="c" xOffset="31.2" yOffset="189.4"/>
  </outline>
</glyph>
<glyph name="sterling" format="2">
  <advance height="2479.0" width="1403.2"/>
  <unicode hex="00A3"/>
  <outline>
    <contour>
      <point x="1168.6" y="0.0" type="line"/>
      <point x="1218.6" y="292.8" type="line"/>
      <point x="103.8" y="292.8" type="line"/>
      <point x="54.599999999999994" y="0.0" type="line"/>
    </contour>
    <contour>
      <point x="988.1999999999999" y="597.4" type="line"/>
      <point x="1035.6" y="873.0" type="line"/>
      <point x="197.6" y="873.0" type="line"/>
      <point x="149.4" y="597.4" type="line"/>
    </contour>
    <contour>
      <point x="740.0" y="1078.2" type="line"/>
      <point x="755.4" y="1177.2"/>
      <point x="810.1999999999999" y="1226.8"/>
      <point x="886.0" y="1226.8" type="curve" smooth="yes"/>
      <point x="966.6" y="1226.8"/>
      <point x="1027.0" y="1193.0"/>
      <point x="1010.2" y="1079.6" type="curve"/>
      <point x="1347.0" y="1084.0" type="line"/>
      <point x="1388.0" y="1345.0"/>
      <point x="1241.6" y="1510.0"/>
      <point x="929.5999999999999" y="1510.0" type="curve" smooth="yes"/>
      <point x="642.6" y="1510.0"/>
      <point x="417.6" y="1351.2"/>
      <point x="383.0" y="1078.2" type="curve" smooth="yes"/>
      <point x="300.59999999999997" y="439.8" type="line" smooth="yes"/>
      <point x="290.20000000000005" y="366.4"/>
      <point x="269.6" y="311.20000000000005"/>
      <point x="211.39999999999998" y="292.8" type="curve"/>
      <point x="397.59999999999997" y="187.0" type="line"/>
      <point x="569.4" y="251.8"/>
      <point x="643.1999999999999" y="326.6"/>
      <point x="661.2" y="463.0" type="curve" smooth="yes"/>
    </contour>
  </outline>
</glyph>
<glyph name="currency" format="2">
  <advance height="2479.0" width="1594.6"/>
  <unicode hex="00A4"/>
  <outline>
    <contour>
      <point x="703.2" y="-20.0" type="curve" smooth="yes"/>
      <point x="1039.4" y="-20.0"/>
      <point x="1365.4" y="253.0"/>
      <point x="1425.0" y="608.0" type="curve" smooth="yes"/>
      <point x="1482.2" y="963.0"/>
      <point x="1246.2" y="1233.0"/>
      <point x="909.4000000000001" y="1233.0" type="curve" smooth="yes"/>
      <point x="567.6" y="1233.0"/>
      <point x="245.8" y="963.0"/>
      <point x="188.60000000000002" y="608.0" type="curve"/>
      <point x="129.0" y="253.0"/>
      <point x="361.4" y="-20.0"/>
    </contour>
    <contour>
      <point x="735.6" y="179.2" type="curve" smooth="yes"/>
      <point x="496.0" y="179.2"/>
      <point x="340.79999999999995" y="365.6"/>
      <point x="383.0" y="608.0" type="curve"/>
      <point x="423.79999999999995" y="852.6"/>
      <point x="638.8" y="1036.8"/>
      <point x="878.4000000000001" y="1036.8" type="curve" smooth="yes"/>
      <point x="1111.0" y="1036.8"/>
      <point x="1271.0" y="852.6"/>
      <point x="1231.0" y="608.0" type="curve" smooth="yes"/>
      <point x="1188.8000000000002" y="365.6"/>
      <point x="969.0" y="179.2"/>
    </contour>
    <contour>
      <point x="1307.0" y="911.4" type="line"/>
      <point x="1553.0" y="1117.6" type="line"/>
      <point x="1428.6" y="1267.6" type="line"/>
      <point x="1185.3999999999999" y="1061.4" type="line"/>
    </contour>
    <contour>
      <point x="1211.6" y="-28.6" type="line"/>
      <point x="1386.0" y="121.6" type="line"/>
      <point x="1209.8000000000002" y="325.4" type="line"/>
      <point x="1038.3999999999999" y="178.4" type="line"/>
    </contour>
    <contour>
      <point x="191.20000000000002" y="-28.6" type="line"/>
      <point x="436.40000000000003" y="178.4" type="line"/>
      <point x="311.79999999999995" y="325.4" type="line"/>
      <point x="69.6" y="121.6" type="line"/>
    </contour>
    <contour>
      <point x="409.0" y="911.4" type="line"/>
      <point x="583.4" y="1061.4" type="line"/>
      <point x="408.0" y="1267.6" type="line"/>
      <point x="235.79999999999998" y="1117.6" type="line"/>
    </contour>
  </outline>
</glyph>
<glyph name="yen" format="2">
  <advance height="2479.0" width="1187.8"/>
  <unicode hex="00A5"/>
  <outline>
    <contour>
      <point x="547.1999999999999" y="1489.0" type="line"/>
      <point x="183.0" y="1489.0" type="line"/>
      <point x="440.2" y="569.2" type="line"/>
      <point x="709.5999999999999" y="764.8" type="line"/>
    </contour>
    <contour>
      <point x="553.0" y="774.4" type="line"/>
      <point x="748.2" y="569.2" type="line"/>
      <point x="1312.8" y="1489.0" type="line"/>
      <point x="949.4" y="1489.0" type="line"/>
    </contour>
    <contour>
      <point x="803.4" y="784.6" type="line"/>
      <point x="448.2" y="784.6" type="line"/>
      <point x="318.0" y="0.0" type="line"/>
      <point x="672.6" y="0.0" type="line"/>
    </contour>
    <contour>
      <point x="1085.3999999999999" y="776.4" type="line"/>
      <point x="132.6" y="776.4" type="line"/>
      <point x="100.39999999999999" y="580.6" type="line"/>
      <point x="1054.0" y="580.6" type="line"/>
    </contour>
    <contour>
      <point x="1039.2" y="488.4" type="line"/>
      <point x="86.39999999999999" y="488.4" type="line"/>
      <point x="51.999999999999986" y="292.6" type="line"/>
      <point x="1004.8" y="292.6" type="line"/>
    </contour>
  </outline>
</glyph>
<glyph name="brokenbar" format="2">
  <advance height="2479.0" width="760.8"/>
  <unicode hex="00A6"/>
  <outline>
    <contour>
      <point x="198.8" y="420.2" type="line"/>
      <point x="82.4" y="-279.0" type="line"/>
      <point x="398.4" y="-279.0" type="line"/>
      <point x="514.0" y="420.2" type="line"/>
    </contour>
    <contour>
      <point x="692.4" y="1489.0" type="line"/>
      <point x="376.4" y="1489.0" type="line"/>
      <point x="261.0" y="792.8" type="line"/>
      <point x="577.0" y="792.8" type="line"/>
    </contour>
  </outline>
</glyph>
<glyph name="section" format="2">
  <advance height="2479.0" width="1242.6"/>
  <unicode hex="00A7"/>
  <outline>
    <contour>
      <point x="1144.2" y="1113.8" type="line"/>
      <point x="1180.8" y="1341.6"/>
      <point x="1030.2" y="1510.0"/>
      <point x="765.4000000000001" y="1510.0" type="curve" smooth="yes"/>
      <point x="506.4" y="1510.0"/>
      <point x="300.6" y="1348.6"/>
      <point x="264.59999999999997" y="1131.0" type="curve" smooth="yes"/>
      <point x="245.00000000000003" y="1012.2"/>
      <point x="281.2" y="922.8"/>
      <point x="347.0" y="847.4" type="curve"/>
      <point x="347.0" y="846.2" type="line"/>
      <point x="284.4" y="830.4"/>
      <point x="173.0" y="791.0"/>
      <point x="137.6" y="663.6" type="curve" smooth="yes"/>
      <point x="77.4" y="438.8"/>
      <point x="242.8" y="351.8"/>
      <point x="320.8" y="319.0" type="curve" smooth="yes"/>
      <point x="578.6" y="205.6" type="line" smooth="yes"/>
      <point x="623.4" y="183.2"/>
      <point x="694.4" y="142.8"/>
      <point x="684.4000000000001" y="79.2" type="curve" smooth="yes"/>
      <point x="673.8" y="20.0"/>
      <point x="599.2" y="-1.5999999999999943"/>
      <point x="536.0" y="-4.0" type="curve" smooth="yes"/>
      <point x="428.20000000000005" y="-11.199999999999989"/>
      <point x="373.79999999999995" y="32.400000000000006"/>
      <point x="386.40000000000003" y="107.4" type="curve"/>
      <point x="78.39999999999999" y="107.4" type="line"/>
      <point x="37.19999999999999" y="-139.2"/>
      <point x="200.8" y="-300.6"/>
      <point x="482.0" y="-300.6" type="curve" smooth="yes"/>
      <point x="743.5999999999999" y="-300.6"/>
      <point x="957.0" y="-155.2"/>
      <point x="997.5999999999999" y="79.2" type="curve" smooth="yes"/>
      <point x="1015.8" y="195.4"/>
      <point x="984.2" y="286.0"/>
      <point x="909.6" y="361.4" type="curve"/>
      <point x="916.8" y="364.4" type="line"/>
      <point x="967.2" y="377.8"/>
      <point x="1086.0" y="420.8"/>
      <point x="1122.2" y="547.2" type="curve" smooth="yes"/>
      <point x="1183.8" y="768.8"/>
      <point x="1015.4" y="856.0"/>
      <point x="944.4" y="888.0" type="curve" smooth="yes"/>
      <point x="683.6" y="1005.2" type="line" smooth="yes"/>
      <point x="633.1999999999999" y="1022.2"/>
      <point x="562.1999999999999" y="1067.0"/>
      <point x="574.6" y="1131.0" type="curve" smooth="yes"/>
      <point x="584.0" y="1199.0"/>
      <point x="656.2" y="1216.0"/>
      <point x="715.2" y="1216.0" type="curve" smooth="yes"/>
      <point x="805.0" y="1216.0"/>
      <point x="847.2" y="1171.8"/>
      <point x="836.6" y="1113.8" type="curve"/>
    </contour>
    <contour>
      <point x="831.8" y="525.6" type="curve"/>
      <point x="816.4" y="483.4"/>
      <point x="773.4" y="462.8"/>
      <point x="735.1999999999999" y="479.4" type="curve" smooth="yes"/>
      <point x="519.2" y="571.6" type="line" smooth="yes"/>
      <point x="438.4" y="603.6"/>
      <point x="409.8" y="646.6"/>
      <point x="425.6" y="684.4" type="curve" smooth="yes"/>
      <point x="440.0" y="724.8"/>
      <point x="482.4" y="749.0"/>
      <point x="527.0" y="729.4" type="curve" smooth="yes"/>
      <point x="741.4" y="638.6" type="line" smooth="yes"/>
      <point x="823.0" y="604.8"/>
      <point x="848.4000000000001" y="564.0"/>
    </contour>
  </outline>
</glyph>
<glyph name="dieresis" format="2">
  <advance height="2479.0" width="1056.4"/>
  <unicode hex="00A8"/>
  <anchor x="650.2" y="1303.0" name="_top"/>
  <anchor x="714.2" y="1676.0" name="top"/>
  <outline>
    <contour>
      <point x="438.4" y="1259.0" type="curve" smooth="yes"/>
      <point x="518.4" y="1259.0"/>
      <point x="592.0" y="1320.2"/>
      <point x="603.4" y="1396.0" type="curve" smooth="yes"/>
      <point x="619.4" y="1494.6000000000001"/>
      <point x="551.6" y="1575.2"/>
      <point x="451.4" y="1575.2" type="curve" smooth="yes"/>
      <point x="370.0" y="1575.2"/>
      <point x="296.0" y="1515.2"/>
      <point x="282.2" y="1438.1999999999998" type="curve" smooth="yes"/>
      <point x="266.79999999999995" y="1340.8"/>
      <point x="336.8" y="1259.0"/>
    </contour>
    <contour>
      <point x="892.6" y="1259.0" type="curve" smooth="yes"/>
      <point x="972.6" y="1259.0"/>
      <point x="1045.4" y="1320.2"/>
      <point x="1056.8" y="1396.0" type="curve" smooth="yes"/>
      <point x="1073.6" y="1494.6000000000001"/>
      <point x="1005.8000000000001" y="1575.2"/>
      <point x="904.8000000000001" y="1575.2" type="curve" smooth="yes"/>
      <point x="824.2" y="1575.2"/>
      <point x="749.5999999999999" y="1515.2"/>
      <point x="736.4" y="1438.1999999999998" type="curve" smooth="yes"/>
      <point x="719.8" y="1340.2"/>
      <point x="791.0" y="1259.0"/>
    </contour>
  </outline>
</glyph>
<glyph name="copyright" format="2">
  <advance height="2479.0" width="1873.0"/>
  <unicode hex="00A9"/>
  <outline>
    <contour>
      <point x="569.4" y="745.0" type="curve" smooth="yes"/>
      <point x="532.6" y="522.8"/>
      <point x="683.4" y="341.8"/>
      <point x="905.4" y="341.8" type="curve" smooth="yes"/>
      <point x="1102.0" y="341.8"/>
      <point x="1287.4" y="483.6"/>
      <point x="1338.6000000000001" y="670.4" type="curve"/>
      <point x="1109.0" y="670.4" type="line"/>
      <point x="1084.6" y="605.0"/>
      <point x="1010.6" y="561.8"/>
      <point x="931.2" y="561.8" type="curve" smooth="yes"/>
      <point x="825.6" y="561.8"/>
      <point x="772.2" y="644.2"/>
      <point x="789.4" y="745.8" type="curve" smooth="yes"/>
      <point x="807.2" y="856.0"/>
      <point x="902.0" y="928.0"/>
      <point x="1005.8" y="928.0" type="curve" smooth="yes"/>
      <point x="1086.4" y="928.0"/>
      <point x="1134.2" y="885.1999999999999"/>
      <point x="1137.2" y="819.6" type="curve"/>
      <point x="1366.8" y="819.6" type="line"/>
      <point x="1376.4" y="1005.4"/>
      <point x="1235.2" y="1147.4"/>
      <point x="1038.8" y="1147.4" type="curve" smooth="yes"/>
      <point x="816.6" y="1147.4"/>
      <point x="606.0" y="967.0"/>
    </contour>
    <component base="whiteCircle" xOffset="0.19999999999999996"/>
  </outline>
</glyph>
<glyph name="ordfeminine" format="2">
  <advance height="2479.0" width="1023.8"/>
  <unicode hex="00AA"/>
  <outline>
    <contour>
      <point x="687.0" y="861.0" type="line"/>
      <point x="678.2" y="804.2"/>
      <point x="680.6" y="749.0"/>
      <point x="686.4" y="704.6" type="curve"/>
      <point x="870.8" y="704.6" type="line"/>
      <point x="857.8" y="769.8"/>
      <point x="864.8000000000001" y="832.6"/>
      <point x="874.4000000000001" y="887.0" type="curve" smooth="yes"/>
      <point x="927.2" y="1201.0" type="line"/>
      <point x="956.2" y="1385.0"/>
      <point x="849.4" y="1478.0"/>
      <point x="668.2" y="1478.0" type="curve" smooth="yes"/>
      <point x="474.4" y="1478.0"/>
      <point x="330.2" y="1379.0"/>
      <point x="307.2" y="1242.6" type="curve"/>
      <point x="484.8" y="1231.0" type="line"/>
      <point x="496.8" y="1295.0"/>
      <point x="554.8" y="1329.0"/>
      <point x="644.2" y="1329.0" type="curve" smooth="yes"/>
      <point x="728.0" y="1329.0"/>
      <point x="757.0" y="1281.2"/>
      <point x="745.0" y="1201.0" type="curve"/>
    </contour>
    <contour>
      <point x="782.4" y="1149.6" type="line"/>
      <point x="632.6" y="1149.6" type="line"/>
      <point x="393.0" y="1149.6"/>
      <point x="262.6" y="1068.0"/>
      <point x="239.6" y="919.0" type="curve" smooth="yes"/>
      <point x="216.6" y="783.0"/>
      <point x="294.0" y="692.0"/>
      <point x="458.8" y="692.0" type="curve" smooth="yes"/>
      <point x="600.6" y="692.0"/>
      <point x="690.0" y="766.2"/>
      <point x="733.4" y="832.6" type="curve"/>
      <point x="733.4" y="951.0" type="line"/>
      <point x="727.4" y="902.0"/>
      <point x="611.8000000000001" y="835.6"/>
      <point x="528.2" y="835.6" type="curve" smooth="yes"/>
      <point x="444.8" y="835.6"/>
      <point x="413.4" y="870.0"/>
      <point x="421.4" y="922.6" type="curve" smooth="yes"/>
      <point x="430.4" y="980.6"/>
      <point x="493.2" y="1033.6"/>
      <point x="611.8000000000001" y="1033.6" type="curve"/>
      <point x="762.4" y="1033.6" type="line"/>
    </contour>
  </outline>
</glyph>
<glyph name="logicalnot" format="2">
  <advance height="2479.0" width="1214.6"/>
  <unicode hex="00AC"/>
  <outline>
    <contour>
      <point x="1084.8" y="806.0" type="line"/>
      <point x="217.0" y="806.0" type="line"/>
      <point x="188.0" y="634.0" type="line"/>
      <point x="1055.0" y="634.0" type="line"/>
    </contour>
    <contour>
      <point x="1073.0" y="727.0" type="line"/>
      <point x="864.8" y="727.0" type="line"/>
      <point x="806.8" y="375.0" type="line"/>
      <point x="1015.0" y="375.0" type="line"/>
    </contour>
  </outline>
</glyph>
<glyph name="registered" format="2">
  <advance height="2479.0" width="1354.6"/>
  <unicode hex="00AE"/>
  <outline>
    <contour>
      <point x="484.6" y="666.0" type="line"/>
      <point x="631.4" y="666.0" type="line"/>
      <point x="702.1999999999999" y="1094.4" type="line"/>
      <point x="783.0" y="1094.4" type="line" smooth="yes"/>
      <point x="825.1999999999999" y="1094.4"/>
      <point x="852.1999999999999" y="1072.2"/>
      <point x="844.6" y="1023.0" type="curve" smooth="yes"/>
      <point x="837.1999999999999" y="976.5999999999999"/>
      <point x="802.1999999999999" y="951.8"/>
      <point x="759.0" y="951.8" type="curve" smooth="yes"/>
      <point x="611.8" y="951.8" type="line"/>
      <point x="594.6" y="845.6" type="line"/>
      <point x="769.0" y="845.6" type="line" smooth="yes"/>
      <point x="885.6" y="845.6"/>
      <point x="977.6" y="909.8"/>
      <point x="997.0" y="1023.0" type="curve" smooth="yes"/>
      <point x="1016.4" y="1135.2"/>
      <point x="946.6" y="1203.0"/>
      <point x="832.8" y="1203.0" type="curve" smooth="yes"/>
      <point x="573.6" y="1203.0" type="line"/>
    </contour>
    <contour>
      <point x="874.8" y="912.6" type="line"/>
      <point x="723.8" y="912.6" type="line"/>
      <point x="791.2" y="666.0" type="line"/>
      <point x="952.1999999999999" y="666.0" type="line"/>
    </contour>
    <contour>
      <point x="738.4" y="346.0" type="curve" smooth="yes"/>
      <point x="1060.8" y="346.0"/>
      <point x="1320.2" y="607.0"/>
      <point x="1320.2" y="928.0" type="curve" smooth="yes"/>
      <point x="1320.4" y="1249.0"/>
      <point x="1059.2" y="1510.0"/>
      <point x="738.4" y="1510.0" type="curve" smooth="yes"/>
      <point x="417.0" y="1510.0"/>
      <point x="156.20000000000002" y="1249.0"/>
      <point x="156.4" y="928.0" type="curve" smooth="yes"/>
      <point x="156.6" y="607.0"/>
      <point x="417.0" y="346.0"/>
    </contour>
    <contour>
      <point x="738.4" y="504.4" type="curve" smooth="yes"/>
      <point x="504.6" y="504.4"/>
      <point x="314.6" y="694.4"/>
      <point x="314.6" y="928.0" type="curve" smooth="yes"/>
      <point x="314.8" y="1161.6"/>
      <point x="504.6" y="1351.6"/>
      <point x="738.4" y="1351.6" type="curve" smooth="yes"/>
      <point x="971.8" y="1351.6"/>
      <point x="1161.8" y="1161.6"/>
      <point x="1162.0" y="928.0" type="curve" smooth="yes"/>
      <point x="1162.2" y="694.4"/>
      <point x="973.4" y="504.4"/>
    </contour>
  </outline>
</glyph>
<glyph name="macron" format="2">
  <advance height="2479.0" width="1238.2"/>
  <unicode hex="00AF"/>
  <anchor x="742.8000000000001" y="1303.0" name="_top"/>
  <outline>
    <contour>
      <point x="1130.8" y="1489.0" type="line"/>
      <point x="410.6" y="1489.0" type="line"/>
      <point x="382.8" y="1313.6" type="line"/>
      <point x="1103.0" y="1313.6" type="line"/>
    </contour>
  </outline>
</glyph>
<glyph name="degree" format="2">
  <advance height="2479.0" width="944.6"/>
  <unicode hex="00B0"/>
  <outline>
    <contour>
      <point x="566.8000000000001" y="768.8" type="curve" smooth="yes"/>
      <point x="768.6" y="768.8"/>
      <point x="932.0" y="932.4"/>
      <point x="932.0" y="1134.2" type="curve" smooth="yes"/>
      <point x="932.0" y="1335.8"/>
      <point x="768.6" y="1498.6"/>
      <point x="566.8000000000001" y="1498.6" type="curve" smooth="yes"/>
      <point x="365.0" y="1498.6"/>
      <point x="202.20000000000002" y="1335.8"/>
      <point x="202.20000000000002" y="1134.2" type="curve" smooth="yes"/>
      <point x="202.20000000000002" y="932.4"/>
      <point x="365.0" y="768.8"/>
    </contour>
    <contour>
      <point x="566.8000000000001" y="996.2" type="curve" smooth="yes"/>
      <point x="490.59999999999997" y="996.2"/>
      <point x="429.0" y="1058.0"/>
      <point x="429.0" y="1134.2" type="curve" smooth="yes"/>
      <point x="429.0" y="1210.2"/>
      <point x="490.59999999999997" y="1272.0"/>
      <point x="566.8000000000001" y="1272.0" type="curve" smooth="yes"/>
      <point x="643.0" y="1272.0"/>
      <point x="704.6" y="1210.2"/>
      <point x="704.6" y="1134.2" type="curve" smooth="yes"/>
      <point x="704.6" y="1058.0"/>
      <point x="643.0" y="996.2"/>
    </contour>
  </outline>
</glyph>
<glyph name="plusminus" format="2">
  <advance height="2479.0" width="1406.0"/>
  <unicode hex="00B1"/>
  <outline>
    <contour>
      <point x="92.19999999999999" y="51.599999999999994" type="line"/>
      <point x="1146.0" y="51.599999999999994" type="line"/>
      <point x="1190.4" y="325.8" type="line"/>
      <point x="137.4" y="325.8" type="line"/>
    </contour>
    <contour>
      <point x="193.6" y="661.8" type="line"/>
      <point x="1246.6000000000001" y="661.8" type="line"/>
      <point x="1291.8000000000002" y="927.2" type="line"/>
      <point x="238.8" y="927.2" type="line"/>
    </contour>
    <contour>
      <point x="533.8000000000001" y="425.8" type="line"/>
      <point x="826.4" y="425.8" type="line"/>
      <point x="949.8000000000001" y="1163.4" type="line"/>
      <point x="656.6" y="1163.4" type="line"/>
    </contour>
  </outline>
</glyph>
<glyph name="twosuperior" format="2">
  <advance height="2479.0" width="867.6"/>
  <unicode hex="00B2"/>
  <anchor x="741.0" y="1235.0" name="cross"/>
  <outline>
    <contour>
      <point x="115.0" y="745.0" type="line"/>
      <point x="838.1999999999999" y="745.0" type="line"/>
      <point x="869.4" y="945.0" type="line"/>
      <point x="497.2" y="945.0" type="line"/>
      <point x="498.8" y="953.4" type="line"/>
      <point x="624.6" y="1025.6" type="line" smooth="yes"/>
      <point x="839.8" y="1141.2"/>
      <point x="912.2" y="1238.3999999999999"/>
      <point x="930.2" y="1355.8" type="curve" smooth="yes"/>
      <point x="953.2" y="1516.4"/>
      <point x="841.0" y="1649.0"/>
      <point x="611.0" y="1649.0" type="curve" smooth="yes"/>
      <point x="395.20000000000005" y="1649.0"/>
      <point x="223.2" y="1533.0"/>
      <point x="194.79999999999998" y="1342.6" type="curve"/>
      <point x="430.4" y="1342.6" type="line"/>
      <point x="445.4" y="1422.0"/>
      <point x="511.6" y="1456.8"/>
      <point x="587.4000000000001" y="1456.8" type="curve" smooth="yes"/>
      <point x="665.4" y="1456.8"/>
      <point x="718.1999999999999" y="1422.6"/>
      <point x="708.0" y="1358.8" type="curve" smooth="yes"/>
      <point x="696.0" y="1293.0"/>
      <point x="632.6" y="1256.3999999999999"/>
      <point x="550.6" y="1197.8" type="curve" smooth="yes"/>
      <point x="141.6" y="921.2" type="line"/>
    </contour>
  </outline>
</glyph>
<glyph name="threesuperior" format="2">
  <advance height="2479.0" width="911.0"/>
  <unicode hex="00B3"/>
  <outline>
    <contour>
      <point x="494.79999999999995" y="733.0" type="curve" smooth="yes"/>
      <point x="731.0" y="733.0"/>
      <point x="901.0" y="839.2"/>
      <point x="925.4" y="990.8" type="curve" smooth="yes"/>
      <point x="942.4" y="1106.4"/>
      <point x="865.6" y="1191.2"/>
      <point x="734.6" y="1201.6" type="curve"/>
      <point x="734.6" y="1210.0" type="line"/>
      <point x="851.8" y="1223.8"/>
      <point x="934.6" y="1274.6"/>
      <point x="950.2" y="1374.6" type="curve" smooth="yes"/>
      <point x="973.2" y="1520.0"/>
      <point x="851.8" y="1649.0"/>
      <point x="627.5999999999999" y="1649.0" type="curve" smooth="yes"/>
      <point x="424.79999999999995" y="1649.0"/>
      <point x="248.0" y="1540.8"/>
      <point x="219.0" y="1381.4" type="curve"/>
      <point x="454.2" y="1381.4" type="line"/>
      <point x="464.2" y="1430.3999999999999"/>
      <point x="550.2" y="1456.8"/>
      <point x="620.6" y="1456.8" type="curve" smooth="yes"/>
      <point x="697.4" y="1456.8"/>
      <point x="722.8000000000001" y="1428.6"/>
      <point x="715.2" y="1389.0" type="curve" smooth="yes"/>
      <point x="703.2" y="1332.8"/>
      <point x="641.2" y="1289.6"/>
      <point x="553.6" y="1289.6" type="curve" smooth="yes"/>
      <point x="446.2" y="1289.6" type="line"/>
      <point x="419.4" y="1108.6" type="line"/>
      <point x="536.4" y="1108.6" type="line" smooth="yes"/>
      <point x="634.6" y="1108.6"/>
      <point x="684.2" y="1084.4"/>
      <point x="674.2" y="1030.6" type="curve" smooth="yes"/>
      <point x="664.0" y="974.4"/>
      <point x="593.6" y="936.0"/>
      <point x="503.2" y="936.0" type="curve" smooth="yes"/>
      <point x="428.6" y="936.0"/>
      <point x="377.8" y="960.8"/>
      <point x="382.59999999999997" y="1006.2" type="curve"/>
      <point x="136.8" y="1006.2" type="line"/>
      <point x="113.80000000000001" y="843.4"/>
      <point x="260.8" y="733.0"/>
    </contour>
  </outline>
</glyph>
<glyph name="micro" format="2">
  <advance height="2479.0" width="1394.8"/>
  <unicode hex="00B5"/>
  <outline>
    <contour>
      <point x="-45.2" y="-400.6" type="line"/>
      <point x="294.0" y="-400.6" type="line"/>
      <point x="385.8" y="156.4" type="line"/>
      <point x="394.6" y="156.4" type="line"/>
      <point x="419.6" y="68.2"/>
      <point x="500.59999999999997" y="13.0"/>
      <point x="606.5999999999999" y="13.0" type="curve" smooth="yes"/>
      <point x="715.6" y="13.0"/>
      <point x="812.6" y="68.2"/>
      <point x="868.2" y="156.4" type="curve"/>
      <point x="877.0" y="156.4" type="line"/>
      <point x="849.6" y="0.0" type="line"/>
      <point x="1189.6" y="0.0" type="line"/>
      <point x="1375.6" y="1117.0" type="line"/>
      <point x="1019.8000000000001" y="1117.0" type="line"/>
      <point x="914.4" y="482.6" type="line" smooth="yes"/>
      <point x="895.0" y="362.4"/>
      <point x="787.1999999999999" y="279.0"/>
      <point x="651.5999999999999" y="279.0" type="curve" smooth="yes"/>
      <point x="517.6" y="279.0"/>
      <point x="436.4" y="362.4"/>
      <point x="455.80000000000007" y="482.6" type="curve" smooth="yes"/>
      <point x="561.2" y="1117.0" type="line"/>
      <point x="206.0" y="1117.0" type="line"/>
    </contour>
  </outline>
</glyph>
<glyph name="paragraph" format="2">
  <advance height="2479.0" width="1256.0"/>
  <unicode hex="00B6"/>
  <outline>
    <contour>
      <point x="1069.6000000000001" y="1225.0" type="line"/>
      <point x="1115.0" y="1489.0" type="line"/>
      <point x="760.8" y="1489.0" type="line" smooth="yes"/>
      <point x="430.2" y="1489.0"/>
      <point x="218.6" y="1289.0"/>
      <point x="172.4" y="1021.0" type="curve" smooth="yes"/>
      <point x="128.6" y="751.0"/>
      <point x="275.4" y="553.0"/>
      <point x="606.8" y="553.0" type="curve" smooth="yes"/>
      <point x="693.4" y="553.0" type="line"/>
      <point x="803.0" y="1225.0" type="line"/>
    </contour>
    <contour>
      <point x="781.2" y="0.0" type="line"/>
      <point x="1049.2" y="0.0" type="line"/>
      <point x="1297.0" y="1489.0" type="line"/>
      <point x="1028.2" y="1489.0" type="line"/>
    </contour>
  </outline>
</glyph>
<glyph name="cedilla" format="2">
  <advance height="2479.0" width="839.8"/>
  <unicode hex="00B8"/>
  <anchor x="328.4" y="0.0" name="_cedilla"/>
  <outline>
    <contour>
      <point x="260.2" y="6.0" type="line"/>
      <point x="200.40000000000003" y="-143.4" type="line"/>
      <point x="294.6" y="-157.0"/>
      <point x="336.0" y="-188.6"/>
      <point x="324.20000000000005" y="-246.0" type="curve" smooth="yes"/>
      <point x="309.79999999999995" y="-305.8"/>
      <point x="230.99999999999997" y="-336.6"/>
      <point x="98.6" y="-336.6" type="curve"/>
      <point x="75.0" y="-483.2" type="line"/>
      <point x="334.2" y="-483.2"/>
      <point x="502.20000000000005" y="-389.0"/>
      <point x="524.6" y="-237.6" type="curve" smooth="yes"/>
      <point x="543.0" y="-140.60000000000002"/>
      <point x="483.2" y="-76.0"/>
      <point x="379.4" y="-59.2" type="curve"/>
      <point x="402.4" y="6.0" type="line"/>
    </contour>
  </outline>
</glyph>
<glyph name="onesuperior" format="2">
  <advance height="2479.0" width="662.6"/>
  <unicode hex="00B9"/>
  <outline>
    <contour>
      <point x="316.2" y="745.0" type="line"/>
      <point x="548.8" y="745.0" type="line"/>
      <point x="697.8" y="1638.0" type="line"/>
      <point x="481.0" y="1638.0" type="line"/>
      <point x="226.79999999999998" y="1494.6" type="line"/>
      <point x="192.79999999999998" y="1291.8" type="line"/>
      <point x="423.20000000000005" y="1419.8" type="line"/>
      <point x="427.8" y="1419.8" type="line"/>
    </contour>
  </outline>
</glyph>
<glyph name="ordmasculine" format="2">
  <advance height="2479.0" width="1016.6"/>
  <unicode hex="00BA"/>
  <outline>
    <contour>
      <point x="230.2" y="1044.0" type="line"/>
      <point x="195.2" y="838.0"/>
      <point x="307.8" y="689.6"/>
      <point x="532.4" y="689.6" type="curve" smooth="yes"/>
      <point x="754.0" y="689.6"/>
      <point x="915.1999999999999" y="838.0"/>
      <point x="950.1999999999999" y="1044.0" type="curve"/>
      <point x="961.4" y="1120.6" type="line"/>
      <point x="996.4" y="1329.0"/>
      <point x="882.0" y="1478.0"/>
      <point x="659.8" y="1478.0" type="curve" smooth="yes"/>
      <point x="440.59999999999997" y="1478.0"/>
      <point x="276.2" y="1329.0"/>
      <point x="241.39999999999998" y="1120.6" type="curve"/>
    </contour>
    <contour>
      <point x="422.6" y="1120.6" type="line"/>
      <point x="443.40000000000003" y="1236.6"/>
      <point x="518.0" y="1329.0"/>
      <point x="636.8" y="1329.0" type="curve" smooth="yes"/>
      <point x="757.6" y="1329.0"/>
      <point x="801.0" y="1236.6"/>
      <point x="780.0" y="1120.6" type="curve"/>
      <point x="769.0" y="1044.0" type="line"/>
      <point x="748.0" y="925.0"/>
      <point x="675.8000000000001" y="838.0"/>
      <point x="557.8" y="838.0" type="curve" smooth="yes"/>
      <point x="437.0" y="838.0"/>
      <point x="390.6" y="925.0"/>
      <point x="411.40000000000003" y="1044.0" type="curve"/>
    </contour>
  </outline>
</glyph>
<glyph name="AE" format="2">
  <advance height="2479.0" width="2136.7999999999997"/>
  <unicode hex="00C6"/>
  <anchor x="1533.2" y="1676.0" name="top"/>
  <outline>
    <contour>
      <point x="-45.8" y="0.0" type="line"/>
      <point x="350.6" y="0.0" type="line"/>
      <point x="978.4" y="1129.0" type="line"/>
      <point x="1080.6000000000001" y="1129.0" type="line"/>
      <point x="892.4" y="0.0" type="line"/>
      <point x="1931.4" y="0.0" type="line"/>
      <point x="1980.6000000000001" y="292.8" type="line"/>
      <point x="1301.8" y="292.8" type="line"/>
      <point x="1350.6" y="598.8" type="line"/>
      <point x="1976.2" y="598.8" type="line"/>
      <point x="2026.2" y="891.6" type="line"/>
      <point x="1400.6" y="891.6" type="line"/>
      <point x="1449.6" y="1197.0" type="line"/>
      <point x="2129.2000000000003" y="1197.0" type="line"/>
      <point x="2178.4" y="1489.0" type="line"/>
      <point x="812.0" y="1489.0" type="line"/>
    </contour>
    <contour>
      <point x="356.2" y="312.4" type="line"/>
      <point x="1153.0" y="312.4" type="line"/>
      <point x="1200.6" y="586.8" type="line"/>
      <point x="403.0" y="586.8" type="line"/>
    </contour>
  </outline>
</glyph>
<glyph name="multiply" format="2">
  <advance height="2479.0" width="1406.0"/>
  <unicode hex="00D7"/>
  <outline>
    <contour>
      <point x="952.2" y="48.8" type="line"/>
      <point x="1204.0" y="264.4" type="line"/>
      <point x="465.0" y="1150.2" type="line"/>
      <point x="213.0" y="932.2" type="line"/>
    </contour>
    <contour>
      <point x="287.8" y="49.4" type="line"/>
      <point x="1314.6000000000001" y="928.0" type="line"/>
      <point x="1131.0" y="1149.6" type="line"/>
      <point x="104.2" y="268.59999999999997" type="line"/>
    </contour>
  </outline>
</glyph>
<glyph name="Oslash" format="2">
  <advance height="2479.0" width="1615.0"/>
  <unicode hex="00D8"/>
  <anchor x="716.2" y="0.5999999999999996" name="bottom"/>
  <anchor x="912.8000000000001" y="4.200000000000001" name="ogonek"/>
  <anchor x="326.4" y="1488.4" name="tonos"/>
  <anchor x="993.2" y="1675.4" name="top"/>
  <outline>
    <contour>
      <point x="267.2" y="-75.4" type="line"/>
      <point x="1547.2" y="1458.4" type="line"/>
      <point x="1409.0" y="1561.6" type="line"/>
      <point x="129.2" y="28.6" type="line"/>
    </contour>
    <component base="O" xOffset="-0.19999999999999996" yOffset="-0.5999999999999996"/>
  </outline>
</glyph>
<glyph name="Thorn" format="2">
  <advance height="2479.0" width="1400.8"/>
  <unicode hex="00DE"/>
  <outline>
    <contour>
      <point x="267.0" y="1489.0" type="line"/>
      <point x="20.0" y="0.0" type="line"/>
      <point x="379.2" y="0.0" type="line"/>
      <point x="626.2" y="1489.0" type="line"/>
    </contour>
    <contour>
      <point x="390.20000000000005" y="1227.4" type="line"/>
      <point x="345.0" y="956.2" type="line"/>
      <point x="733.8" y="956.2" type="line" smooth="yes"/>
      <point x="903.0" y="956.2"/>
      <point x="950.8" y="859.0"/>
      <point x="935.4" y="759.8" type="curve" smooth="yes"/>
      <point x="918.4" y="663.6"/>
      <point x="839.1999999999999" y="570.0"/>
      <point x="669.8" y="570.0" type="curve" smooth="yes"/>
      <point x="281.0" y="570.0" type="line"/>
      <point x="235.8" y="300.4" type="line"/>
      <point x="624.6" y="300.4" type="line" smooth="yes"/>
      <point x="997.6000000000001" y="300.4"/>
      <point x="1235.0" y="492.4"/>
      <point x="1279.4" y="762.6" type="curve" smooth="yes"/>
      <point x="1325.0" y="1033.0"/>
      <point x="1151.2" y="1227.4"/>
      <point x="778.1999999999999" y="1227.4" type="curve" smooth="yes"/>
    </contour>
  </outline>
</glyph>
<glyph name="germandbls" format="2">
  <advance height="2479.0" width="1384.8000000000002"/>
  <unicode hex="00DF"/>
  <outline>
    <contour>
      <point x="19.799999999999997" y="0.0" type="line"/>
      <point x="375.0" y="0.0" type="line"/>
      <point x="546.8" y="1031.2" type="line" smooth="yes"/>
      <point x="565.8" y="1145.4"/>
      <point x="653.6" y="1217.2"/>
      <point x="775.4000000000001" y="1217.2" type="curve" smooth="yes"/>
      <point x="892.1999999999999" y="1217.2"/>
      <point x="950.6" y="1147.0"/>
      <point x="932.6" y="1048.8" type="curve" smooth="yes"/>
      <point x="916.8000000000001" y="957.8"/>
      <point x="844.8000000000001" y="886.8"/>
      <point x="753.0" y="886.8" type="curve" smooth="yes"/>
      <point x="680.8" y="886.8" type="line"/>
      <point x="637.8" y="619.0" type="line"/>
      <point x="748.0" y="619.0" type="line" smooth="yes"/>
      <point x="885.6" y="619.0"/>
      <point x="961.0" y="554.4"/>
      <point x="943.4" y="450.0" type="curve" smooth="yes"/>
      <point x="929.0" y="347.8"/>
      <point x="837.8" y="283.2"/>
      <point x="715.5999999999999" y="283.2" type="curve" smooth="yes"/>
      <point x="575.1999999999999" y="283.2" type="line"/>
      <point x="528.4" y="0.0" type="line"/>
      <point x="735.4" y="0.0" type="line" smooth="yes"/>
      <point x="1025.6000000000001" y="0.0"/>
      <point x="1251.2" y="139.6"/>
      <point x="1299.2" y="410.0" type="curve" smooth="yes"/>
      <point x="1334.2" y="620.0"/>
      <point x="1239.8" y="774.2"/>
      <point x="1046.4" y="785.2" type="curve"/>
      <point x="1049.4" y="802.4" type="line"/>
      <point x="1185.2" y="836.2"/>
      <point x="1281.3999999999999" y="950.4"/>
      <point x="1305.0" y="1100.4" type="curve" smooth="yes"/>
      <point x="1350.6" y="1374.6000000000001"/>
      <point x="1114.4" y="1510.0"/>
      <point x="809.6" y="1510.0" type="curve" smooth="yes"/>
      <point x="481.6" y="1510.0"/>
      <point x="244.0" y="1354.2"/>
      <point x="200.60000000000002" y="1092.0" type="curve" smooth="yes"/>
    </contour>
  </outline>
</glyph>
<glyph name="ae" format="2">
  <advance height="2479.0" width="1873.1999999999998"/>
  <unicode hex="00E6"/>
  <anchor x="1040.0" y="1303.0" name="top"/>
  <outline>
    <contour>
      <point x="1193.4" y="-20.6" type="curve"/>
      <point x="1455.4" y="-20.6"/>
      <point x="1675.4" y="120.4"/>
      <point x="1754.8000000000002" y="340.6" type="curve"/>
      <point x="1429.8" y="349.8" type="line"/>
      <point x="1389.0" y="275.4"/>
      <point x="1309.4" y="235.8"/>
      <point x="1217.0" y="235.8" type="curve" smooth="yes"/>
      <point x="1080.3999999999999" y="235.8"/>
      <point x="1012.5999999999999" y="326.2"/>
      <point x="1034.3999999999999" y="463.2" type="curve" smooth="yes"/>
      <point x="1068.2" y="674.2" type="line" smooth="yes"/>
      <point x="1090.0" y="787.6"/>
      <point x="1193.6" y="874.6"/>
      <point x="1313.4" y="874.6" type="curve"/>
      <point x="1429.8" y="874.6"/>
      <point x="1500.2" y="794.0"/>
      <point x="1482.6" y="679.4" type="curve"/>
      <point x="872.6" y="679.4" type="line"/>
      <point x="839.8000000000001" y="472.0" type="line"/>
      <point x="1780.0" y="472.0" type="line"/>
      <point x="1794.3999999999999" y="561.8" type="line" smooth="yes"/>
      <point x="1854.8" y="928.2"/>
      <point x="1666.0" y="1132.0"/>
      <point x="1349.0" y="1132.0" type="curve" smooth="yes"/>
      <point x="1172.6" y="1132.0"/>
      <point x="1024.4" y="1066.8"/>
      <point x="901.6" y="907.4" type="curve"/>
      <point x="810.0" y="217.0" type="line"/>
      <point x="848.0" y="59.8"/>
      <point x="999.8" y="-20.6"/>
    </contour>
    <contour>
      <point x="481.40000000000003" y="214.4" type="curve" smooth="yes"/>
      <point x="398.2" y="214.4"/>
      <point x="347.8" y="254.6"/>
      <point x="359.20000000000005" y="327.2" type="curve" smooth="yes"/>
      <point x="370.40000000000003" y="399.8"/>
      <point x="435.20000000000005" y="442.4"/>
      <point x="539.4" y="457.8" type="curve" smooth="yes"/>
      <point x="605.0" y="469.20000000000005"/>
      <point x="691.0" y="482.2"/>
      <point x="733.2" y="503.4" type="curve"/>
      <point x="716.0" y="397.6" type="line" smooth="yes"/>
      <point x="697.8" y="288.2"/>
      <point x="594.2" y="214.4"/>
    </contour>
    <contour>
      <point x="354.8" y="-18.8" type="curve" smooth="yes"/>
      <point x="542.6" y="-18.8"/>
      <point x="731.6" y="51.0"/>
      <point x="817.2" y="176.0" type="curve"/>
      <point x="838.4" y="176.0" type="line"/>
      <point x="995.4000000000001" y="963.8" type="line"/>
      <point x="961.0" y="1081.4"/>
      <point x="848.8" y="1132.0"/>
      <point x="704.2" y="1132.0" type="curve" smooth="yes"/>
      <point x="393.6" y="1132.0"/>
      <point x="201.6" y="980.2"/>
      <point x="137.8" y="776.4" type="curve"/>
      <point x="464.0" y="764.8" type="line"/>
      <point x="490.59999999999997" y="837.0"/>
      <point x="557.8" y="880.0"/>
      <point x="651.1999999999999" y="880.0" type="curve" smooth="yes"/>
      <point x="738.6" y="880.0"/>
      <point x="785.8" y="837.6"/>
      <point x="774.0" y="762.6" type="curve" smooth="yes"/>
      <point x="774.0" y="759.2" type="line" smooth="yes"/>
      <point x="762.4" y="691.6"/>
      <point x="687.0" y="676.8"/>
      <point x="492.20000000000005" y="659.6" type="curve" smooth="yes"/>
      <point x="263.2" y="640.8"/>
      <point x="60.8" y="557.0"/>
      <point x="19.999999999999996" y="309.8" type="curve" smooth="yes"/>
      <point x="-17.400000000000006" y="89.4"/>
      <point x="117.00000000000001" y="-18.8"/>
    </contour>
  </outline>
</glyph>
<glyph name="eth" format="2">
  <advance height="2479.0" width="1241.8000000000002"/>
  <unicode hex="00F0"/>
  <outline>
    <contour>
      <point x="1086.0" y="1397.8" type="line"/>
      <point x="1101.1999999999998" y="1549.6" type="line"/>
      <point x="330.2" y="1182.4" type="line"/>
      <point x="314.4" y="1031.4" type="line"/>
    </contour>
    <contour>
      <point x="518.2" y="-23.0" type="curve" smooth="yes"/>
      <point x="864.2" y="-23.0"/>
      <point x="1115.0" y="217.2"/>
      <point x="1175.3999999999999" y="582.2" type="curve" smooth="yes"/>
      <point x="1264.1999999999998" y="1120.0"/>
      <point x="878.6" y="1480.3999999999999"/>
      <point x="409.8" y="1567.8" type="curve"/>
      <point x="365.0" y="1388.0" type="line"/>
      <point x="583.8" y="1305.4"/>
      <point x="809.4" y="1131.8"/>
      <point x="878.8000000000001" y="916.4" type="curve"/>
      <point x="863.2" y="916.4" type="line"/>
      <point x="814.6" y="980.2"/>
      <point x="728.2" y="1029.4"/>
      <point x="604.1999999999999" y="1029.4" type="curve" smooth="yes"/>
      <point x="327.4" y="1029.4"/>
      <point x="109.2" y="801.0"/>
      <point x="61.8" y="512.0" type="curve" smooth="yes"/>
      <point x="8.799999999999997" y="191.4"/>
      <point x="191.79999999999998" y="-23.0"/>
    </contour>
    <contour>
      <point x="572.2" y="241.4" type="curve" smooth="yes"/>
      <point x="433.0" y="241.4"/>
      <point x="373.79999999999995" y="359.6"/>
      <point x="401.79999999999995" y="536.8" type="curve" smooth="yes"/>
      <point x="430.4" y="707.4"/>
      <point x="522.6" y="818.6"/>
      <point x="667.4" y="818.6" type="curve" smooth="yes"/>
      <point x="815.0" y="818.6"/>
      <point x="867.6" y="701.0"/>
      <point x="839.4" y="534.4" type="curve" smooth="yes"/>
      <point x="809.2" y="354.0"/>
      <point x="707.4" y="241.4"/>
    </contour>
  </outline>
</glyph>
<glyph name="divide" format="2">
  <advance height="2479.0" width="1406.0"/>
  <unicode hex="00F7"/>
  <outline>
    <contour>
      <point x="1255.6000000000001" y="737.4" type="line"/>
      <point x="208.6" y="737.4" type="line"/>
      <point x="163.4" y="463.2" type="line"/>
      <point x="1211.2" y="463.2" type="line"/>
    </contour>
    <contour>
      <point x="628.2" y="-3.200000000000003" type="curve" smooth="yes"/>
      <point x="722.6" y="-3.200000000000003"/>
      <point x="809.8" y="71.99999999999999"/>
      <point x="826.0" y="167.0" type="curve" smooth="yes"/>
      <point x="844.8" y="282.2"/>
      <point x="768.2" y="376.6"/>
      <point x="653.6" y="376.6" type="curve" smooth="yes"/>
      <point x="559.0" y="376.6"/>
      <point x="469.8" y="302.8"/>
      <point x="453.8" y="209.20000000000002" type="curve" smooth="yes"/>
      <point x="434.8" y="92.6"/>
      <point x="512.6" y="-3.200000000000003"/>
    </contour>
    <contour>
      <point x="767.6" y="824.2" type="curve" smooth="yes"/>
      <point x="862.0" y="824.2"/>
      <point x="948.6" y="900.2"/>
      <point x="962.2" y="995.2" type="curve" smooth="yes"/>
      <point x="979.2" y="1110.4"/>
      <point x="905.1999999999999" y="1204.0"/>
      <point x="790.6" y="1204.0" type="curve" smooth="yes"/>
      <point x="695.2" y="1204.0"/>
      <point x="606.2" y="1131.2"/>
      <point x="590.2" y="1036.8" type="curve" smooth="yes"/>
      <point x="570.6" y="921.2"/>
      <point x="652.0" y="824.2"/>
    </contour>
  </outline>
</glyph>
<glyph name="oslash" format="2">
  <advance height="2479.0" width="1268.4"/>
  <unicode hex="00F8"/>
  <anchor x="541.4000000000001" y="0.0" name="bottom"/>
  <anchor x="699.8000000000001" y="0.0" name="ogonek"/>
  <anchor x="756.6" y="1303.0" name="top"/>
  <outline>
    <contour>
      <point x="200.6" y="-75.4" type="line"/>
      <point x="1201.3999999999999" y="1079.6" type="line"/>
      <point x="1066.2" y="1183.4" type="line"/>
      <point x="63.99999999999999" y="28.6" type="line"/>
    </contour>
    <component base="o"/>
  </outline>
</glyph>
<glyph name="thorn" format="2">
  <advance height="2479.0" width="1257.6"/>
  <unicode hex="00FE"/>
  <outline>
    <contour>
      <point x="267.0" y="1489.0" type="line"/>
      <point x="-50.0" y="-419.0" type="line"/>
      <point x="305.20000000000005" y="-419.0" type="line"/>
      <point x="412.6" y="223.4" type="line"/>
      <point x="334.40000000000003" y="537.2" type="line"/>
      <point x="531.6" y="933.6" type="line"/>
      <point x="622.2" y="1489.0" type="line"/>
    </contour>
    <contour>
      <point x="399.8" y="1004.8" type="line"/>
      <point x="251.0" y="106.39999999999999" type="line"/>
      <point x="404.6" y="106.39999999999999" type="line"/>
      <point x="432.0" y="19.799999999999997"/>
      <point x="523.6" y="-16.6"/>
      <point x="640.2" y="-16.6" type="curve" smooth="yes"/>
      <point x="883.2" y="-16.6"/>
      <point x="1120.2" y="175.4"/>
      <point x="1183.0" y="558.4" type="curve" smooth="yes"/>
      <point x="1248.2" y="952.0"/>
      <point x="1063.2" y="1132.0"/>
      <point x="834.0" y="1132.0" type="curve" smooth="yes"/>
      <point x="709.6" y="1132.0"/>
      <point x="606.0" y="1088.4"/>
      <point x="554.2" y="1004.8" type="curve"/>
    </contour>
    <contour>
      <point x="848.0" y="559.0" type="curve" smooth="yes"/>
      <point x="817.4" y="368.8"/>
      <point x="727.0" y="261.4"/>
      <point x="580.8000000000001" y="261.4" type="curve" smooth="yes"/>
      <point x="421.0" y="261.4"/>
      <point x="401.8" y="401.0"/>
      <point x="428.4" y="559.0" type="curve" smooth="yes"/>
      <point x="455.8" y="720.2"/>
      <point x="522.8" y="853.8"/>
      <point x="678.4000000000001" y="853.8" type="curve" smooth="yes"/>
      <point x="825.2" y="853.8"/>
      <point x="879.4" y="747.6"/>
    </contour>
  </outline>
</glyph>
<glyph name="dcroat" format="2">
  <advance height="2479.0" width="1311.6000000000001"/>
  <unicode hex="0111"/>
  <anchor x="559.4" y="0.0" name="bottom"/>
  <anchor x="1139.6000000000001" y="1280.0" name="cross"/>
  <anchor x="1476.8000000000002" y="1489.0" name="raccent"/>
  <anchor x="717.6" y="1489.0" name="top"/>
  <outline>
    <contour>
      <point x="663.1999999999999" y="1187.6" type="line"/>
      <point x="1417.6000000000001" y="1187.6" type="line"/>
      <point x="1452.6000000000001" y="1386.2" type="line"/>
      <point x="698.1999999999999" y="1386.2" type="line"/>
    </contour>
    <component base="d"/>
  </outline>
</glyph>
<glyph name="Hbar" format="2">
  <advance height="2479.0" width="1681.8000000000002"/>
  <unicode hex="0126"/>
  <anchor x="745.0" y="0.0" name="bottom"/>
  <anchor x="268.0" y="0.0" name="cedilla"/>
  <anchor x="1588.6" y="143.2" name="cyrtic"/>
  <anchor x="1397.8" y="0.0" name="right"/>
  <anchor x="303.20000000000005" y="1489.0" name="tonos"/>
  <anchor x="1025.8" y="1676.6" name="top"/>
  <outline>
    <contour>
      <point x="1731.6" y="1249.4" type="line"/>
      <point x="177.8" y="1249.4" type="line"/>
      <point x="147.4" y="1065.6" type="line"/>
      <point x="1701.3999999999999" y="1065.6" type="line"/>
    </contour>
    <component base="H" xOffset="72.4"/>
  </outline>
</glyph>
<glyph name="kgreenlandic" format="2">
  <advance height="2479.0" width="1218.8000000000002"/>
  <unicode hex="0138"/>
  <outline>
    <contour>
      <point x="391.0" y="293.4" type="line"/>
      <point x="641.8000000000001" y="543.8" type="line"/>
      <point x="735.0" y="543.8" type="line"/>
      <point x="1296.6000000000001" y="1117.0" type="line"/>
      <point x="893.4" y="1117.0" type="line"/>
      <point x="511.6" y="717.6" type="line"/>
      <point x="462.2" y="717.6" type="line"/>
    </contour>
    <contour>
      <point x="22.4" y="0.0" type="line"/>
      <point x="377.6" y="0.0" type="line"/>
      <point x="562.8000000000001" y="1117.0" type="line"/>
      <point x="206.8" y="1117.0" type="line"/>
    </contour>
    <contour>
      <point x="715.6" y="0.0" type="line"/>
      <point x="1127.2" y="0.0" type="line"/>
      <point x="777.2" y="716.0" type="line"/>
      <point x="500.6" y="464.2" type="line"/>
    </contour>
  </outline>
</glyph>
<glyph name="Lslash" format="2">
  <advance height="2479.0" width="1215.2"/>
  <unicode hex="0141"/>
  <anchor x="558.4" y="0.0" name="bottom"/>
  <anchor x="413.0" y="784.0" name="cross"/>
  <anchor x="738.2" y="857.2" name="dot"/>
  <anchor x="925.8" y="1489.0" name="raccent"/>
  <anchor x="560.0" y="1676.0" name="top"/>
  <outline>
    <contour>
      <point x="782.8000000000001" y="972.6" type="line"/>
      <point x="55.2" y="784.2" type="line"/>
      <point x="29.599999999999998" y="599.6" type="line"/>
      <point x="757.2" y="786.4" type="line"/>
    </contour>
    <component base="L" xOffset="84.0"/>
  </outline>
</glyph>
<glyph name="lslash" format="2">
  <advance height="2479.0" width="581.2"/>
  <unicode hex="0142"/>
  <anchor x="202.0" y="0.0" name="bottom"/>
  <anchor x="327.8" y="768.0" name="cross"/>
  <anchor x="746.6" y="1489.0" name="raccent"/>
  <anchor x="479.20000000000005" y="1676.0" name="top"/>
  <outline>
    <contour>
      <point x="670.8000000000001" y="982.2" type="line"/>
      <point x="19.4" y="793.8" type="line"/>
      <point x="-10.8" y="607.4" type="line"/>
      <point x="638.6" y="795.8" type="line"/>
    </contour>
    <component base="l"/>
  </outline>
</glyph>
<glyph name="Eng" format="2">
  <advance height="2479.0" width="1493.4"/>
  <unicode hex="014A"/>
  <anchor x="654.8" y="0.0" name="bottom"/>
  <anchor x="1341.8" y="0.0" name="right"/>
  <anchor x="933.8" y="1676.0" name="top"/>
  <outline>
    <contour>
      <point x="982.0" y="0.0" type="line"/>
      <point x="975.0" y="-46.39999999999999" type="line" smooth="yes"/>
      <point x="959.0" y="-135.2"/>
      <point x="883.8000000000001" y="-181.6"/>
      <point x="778.6" y="-181.6" type="curve" smooth="yes"/>
      <point x="735.4" y="-181.6"/>
      <point x="689.8000000000001" y="-176.2"/>
      <point x="656.4000000000001" y="-168.39999999999998" type="curve"/>
      <point x="611.8000000000001" y="-430.8" type="line"/>
      <point x="647.0" y="-442.2"/>
      <point x="692.1999999999999" y="-449.4"/>
      <point x="727.0" y="-449.4" type="curve" smooth="yes"/>
      <point x="1024.6" y="-449.4"/>
      <point x="1233.6000000000001" y="-352.4"/>
      <point x="1280.2" y="-39.8" type="curve" smooth="yes"/>
      <point x="1287.2" y="0.0" type="line"/>
    </contour>
    <component base="N"/>
  </outline>
</glyph>
<glyph name="eng" format="2">
  <advance height="2479.0" width="1305.3999999999999"/>
  <unicode hex="014B"/>
  <anchor x="559.6" y="0.0" name="bottom"/>
  <anchor x="774.6" y="1303.0" name="top"/>
  <outline>
    <contour>
      <point x="747.4" y="18.400000000000002" type="line"/>
      <point x="739.1999999999999" y="-29.4" type="line" smooth="yes"/>
      <point x="725.8" y="-97.39999999999999"/>
      <point x="678.2" y="-131.0"/>
      <point x="597.1999999999999" y="-131.0" type="curve" smooth="yes"/>
      <point x="558.0" y="-131.0"/>
      <point x="525.8" y="-125.6"/>
      <point x="495.00000000000006" y="-117.79999999999998" type="curve"/>
      <point x="420.80000000000007" y="-405.2" type="line"/>
      <point x="476.59999999999997" y="-416.6"/>
      <point x="533.0" y="-419.0"/>
      <point x="593.6" y="-419.0" type="curve" smooth="yes"/>
      <point x="856.6" y="-419.0"/>
      <point x="1043.8" y="-318.20000000000005"/>
      <point x="1094.3999999999999" y="-28.599999999999998" type="curve" smooth="yes"/>
      <point x="1103.1999999999998" y="22.400000000000002" type="line"/>
    </contour>
    <component base="n"/>
  </outline>
</glyph>
<glyph name="OE" format="2">
  <advance height="2479.0" width="2130.0"/>
  <unicode hex="0152"/>
  <anchor x="1405.2" y="0.0" name="bottom"/>
  <anchor x="1408.2" y="0.0" name="cedilla"/>
  <anchor x="1923.8000000000002" y="0.0" name="ogonek"/>
  <anchor x="1090.6000000000001" y="1489.0" name="tonos"/>
  <anchor x="1687.2" y="1676.0" name="top"/>
  <outline>
    <contour>
      <point x="688.0" y="0.0" type="curve" smooth="yes"/>
      <point x="1021.0" y="0.0" type="line"/>
      <point x="1071.6" y="292.8" type="line"/>
      <point x="737.8" y="292.8" type="line" smooth="yes"/>
      <point x="550.4" y="292.8"/>
      <point x="435.2" y="409.6"/>
      <point x="491.0" y="742.6" type="curve" smooth="yes"/>
      <point x="545.0" y="1073.8"/>
      <point x="698.6" y="1197.0"/>
      <point x="885.8" y="1197.0" type="curve" smooth="yes"/>
      <point x="1218.8" y="1197.0" type="line"/>
      <point x="1268.8" y="1489.0" type="line"/>
      <point x="935.2" y="1489.0" type="line" smooth="yes"/>
      <point x="548.0" y="1489.0"/>
      <point x="208.2" y="1239.4"/>
      <point x="127.2" y="742.6" type="curve" smooth="yes"/>
      <point x="45.99999999999999" y="248.8"/>
      <point x="301.0" y="0.0"/>
    </contour>
    <component base="E" xOffset="865.8000000000001"/>
  </outline>
</glyph>
<glyph name="tbar" format="2">
  <advance height="2479.0" width="813.0"/>
  <unicode hex="0167"/>
  <anchor x="354.4" y="0.0" name="bottom"/>
  <anchor x="463.8" y="0.0" name="cedilla"/>
  <anchor x="837.6" y="1562.0" name="raccent"/>
  <anchor x="526.0" y="1531.4" name="top"/>
  <outline>
    <contour>
      <point x="36.8" y="543.8" type="line"/>
      <point x="741.4" y="543.8" type="line"/>
      <point x="766.8" y="696.2" type="line"/>
      <point x="62.2" y="696.2" type="line"/>
    </contour>
    <component base="t" xOffset="0.8"/>
  </outline>
</glyph>
<glyph name="Bhook" format="2">
  <advance height="2479.0" width="1816.6000000000001"/>
  <unicode hex="0181"/>
  <anchor x="1023.1999999999999" y="0.0" name="bottom"/>
  <anchor x="1302.8000000000002" y="1676.0" name="top"/>
  <outline>
    <contour>
      <point x="880.1999999999999" y="1199.4" type="line"/>
      <point x="927.0" y="1489.0" type="line"/>
      <point x="686.0" y="1489.0" type="line" smooth="yes"/>
      <point x="397.40000000000003" y="1489.0"/>
      <point x="189.6" y="1334.4"/>
      <point x="149.60000000000002" y="1076.2" type="curve" smooth="yes"/>
      <point x="122.60000000000001" y="914.8" type="line"/>
      <point x="440.40000000000003" y="914.8" type="line"/>
      <point x="456.6" y="1011.4" type="line" smooth="yes"/>
      <point x="469.0" y="1100.4"/>
      <point x="517.4" y="1199.4"/>
      <point x="639.8" y="1199.4" type="curve" smooth="yes"/>
    </contour>
    <component base="B" xOffset="456.6"/>
  </outline>
</glyph>
<glyph name="Btopbar" format="2">
  <advance height="2479.0" width="1343.3999999999999"/>
  <unicode hex="0182"/>
  <outline>
    <contour>
      <point x="19.799999999999997" y="0.0" type="line"/>
      <point x="576.4" y="0.0" type="line" smooth="yes"/>
      <point x="941.4000000000001" y="0.0"/>
      <point x="1208.6000000000001" y="199.2"/>
      <point x="1257.0" y="487.8" type="curve" smooth="yes"/>
      <point x="1304.2" y="777.2"/>
      <point x="1100.4" y="964.0"/>
      <point x="736.8" y="964.0" type="curve" smooth="yes"/>
      <point x="540.4000000000001" y="964.0" type="line"/>
      <point x="577.0" y="1197.0" type="line"/>
      <point x="1235.0" y="1197.0" type="line"/>
      <point x="1284.2" y="1489.0" type="line"/>
      <point x="267.0" y="1489.0" type="line"/>
    </contour>
    <contour>
      <point x="426.8" y="285.0" type="line"/>
      <point x="493.59999999999997" y="685.6" type="line"/>
      <point x="690.0" y="685.6" type="line" smooth="yes"/>
      <point x="847.0" y="685.6"/>
      <point x="919.2" y="601.0"/>
      <point x="900.8" y="490.8" type="curve" smooth="yes"/>
      <point x="881.6" y="376.2"/>
      <point x="780.8000000000001" y="285.0"/>
      <point x="623.1999999999999" y="285.0" type="curve" smooth="yes"/>
    </contour>
  </outline>
</glyph>
<glyph name="btopbar" format="2">
  <advance height="2479.0" width="1311.0"/>
  <unicode hex="0183"/>
  <anchor x="541.6" y="0.0" name="bottom"/>
  <anchor x="407.8" y="1280.0" name="cross"/>
  <anchor x="923.8" y="1303.0" name="top"/>
  <outline>
    <contour>
      <point x="1228.0" y="1489.0" type="line"/>
      <point x="459.8" y="1489.0" type="line"/>
      <point x="416.40000000000003" y="1245.8" type="line"/>
      <point x="1188.4" y="1245.8" type="line"/>
    </contour>
    <component base="b"/>
  </outline>
</glyph>
<glyph name="Tonesix" format="2">
  <advance height="2479.0" width="1654.2"/>
  <unicode hex="0184"/>
  <outline>
    <contour>
      <point x="834.4" y="1489.0" type="line"/>
      <point x="181.39999999999998" y="1489.0" type="line"/>
      <point x="132.0" y="1197.0" type="line"/>
      <point x="785.1999999999999" y="1197.0" type="line"/>
    </contour>
    <contour>
      <point x="683.4" y="964.0" type="line"/>
      <point x="635.8" y="685.6" type="line"/>
      <point x="967.8" y="685.6" type="line"/>
      <point x="1123.8" y="685.6"/>
      <point x="1196.0" y="601.0"/>
      <point x="1178.6" y="490.8" type="curve"/>
      <point x="1158.6" y="376.2"/>
      <point x="1057.0" y="285.0"/>
      <point x="901.0" y="285.0" type="curve"/>
      <point x="703.8" y="285.0" type="line"/>
      <point x="904.0" y="1489.0" type="line"/>
      <point x="544.8000000000001" y="1489.0" type="line"/>
      <point x="297.6" y="0.0" type="line"/>
      <point x="853.4" y="0.0" type="line"/>
      <point x="1217.4" y="0.0"/>
      <point x="1486.2" y="199.2"/>
      <point x="1534.8" y="487.8" type="curve"/>
      <point x="1582.8" y="777.2"/>
      <point x="1378.6000000000001" y="964.0"/>
      <point x="1014.6" y="964.0" type="curve"/>
    </contour>
  </outline>
</glyph>
<glyph name="tonesix" format="2">
  <advance height="2479.0" width="1504.2"/>
  <unicode hex="0185"/>
  <outline>
    <contour>
      <point x="925.8000000000001" y="-23.0" type="curve" smooth="yes"/>
      <point x="1192.8000000000002" y="-23.0"/>
      <point x="1355.8000000000002" y="112.79999999999998"/>
      <point x="1401.8" y="389.40000000000003" type="curve" smooth="yes"/>
      <point x="1450.8" y="688.2"/>
      <point x="1309.6" y="847.0"/>
      <point x="1067.0" y="847.1999999999999" type="curve" smooth="yes"/>
      <point x="940.0" y="847.0"/>
      <point x="852.8000000000001" y="798.2"/>
      <point x="794.1999999999999" y="730.1999999999999" type="curve"/>
      <point x="784.6" y="730.1999999999999" type="line"/>
      <point x="848.1999999999999" y="1117.0" type="line"/>
      <point x="495.2" y="1117.0" type="line"/>
      <point x="463.4" y="911.2" type="line"/>
      <point x="457.40000000000003" y="911.2" type="line"/>
      <point x="305.20000000000005" y="0.0" type="line"/>
      <point x="659.2" y="0.0" type="line"/>
      <point x="669.8000000000001" y="74.4" type="line"/>
      <point x="683.4" y="74.4" type="line"/>
      <point x="715.2" y="11.999999999999996"/>
      <point x="789.4000000000001" y="-23.8"/>
    </contour>
    <contour>
      <point x="855.8000000000001" y="243.0" type="curve" smooth="yes"/>
      <point x="757.6" y="242.2"/>
      <point x="715.2" y="303.79999999999995"/>
      <point x="732.4000000000001" y="409.4" type="curve" smooth="yes"/>
      <point x="749.6" y="516.4"/>
      <point x="819.0" y="581.1999999999999"/>
      <point x="917.2" y="581.1999999999999" type="curve" smooth="yes"/>
      <point x="1016.5999999999999" y="581.1999999999999"/>
      <point x="1060.6" y="515.6"/>
      <point x="1043.3999999999999" y="411.59999999999997" type="curve" smooth="yes"/>
      <point x="1025.4" y="304.20000000000005"/>
      <point x="953.0" y="242.2"/>
    </contour>
    <contour>
      <point x="297.79999999999995" y="596.2" type="line"/>
      <point x="667.0" y="911.2" type="line"/>
      <point x="495.2" y="1117.0" type="line"/>
      <point x="126.00000000000001" y="801.2" type="line"/>
    </contour>
  </outline>
</glyph>
<glyph name="Chook" format="2">
  <advance height="2479.0" width="1756.8"/>
  <unicode hex="0187"/>
  <anchor x="703.8" y="2.4000000000000004" name="cedilla"/>
  <anchor x="989.0" y="1676.0" name="top"/>
  <outline>
    <contour>
      <point x="1527.0" y="949.6" type="line"/>
      <point x="1542.2" y="1054.0" type="line" smooth="yes"/>
      <point x="1563.6000000000001" y="1203.8"/>
      <point x="1697.0" y="1252.2"/>
      <point x="1789.0" y="1252.2" type="curve" smooth="yes"/>
      <point x="1815.0" y="1252.2"/>
      <point x="1862.8" y="1249.4"/>
      <point x="1888.8" y="1248.8" type="curve"/>
      <point x="1935.0" y="1533.8" type="line"/>
      <point x="1877.4" y="1542.8"/>
      <point x="1829.8" y="1542.8"/>
      <point x="1774.2" y="1542.8" type="curve" smooth="yes"/>
      <point x="1511.2" y="1542.8"/>
      <point x="1249.6" y="1390.8"/>
      <point x="1205.4" y="1107.6" type="curve" smooth="yes"/>
      <point x="1180.6" y="949.6" type="line"/>
    </contour>
    <component base="C"/>
  </outline>
</glyph>
<glyph name="chook" format="2">
  <advance height="2479.0" width="1339.0"/>
  <unicode hex="0188"/>
  <anchor x="544.6" y="0.0" name="cedilla"/>
  <anchor x="757.1999999999999" y="1303.0" name="top"/>
  <outline>
    <contour>
      <point x="1176.8" y="678.2" type="line"/>
      <point x="1207.6000000000001" y="853.6" type="line" smooth="yes"/>
      <point x="1223.0" y="951.2"/>
      <point x="1265.6" y="991.0"/>
      <point x="1348.8" y="991.0" type="curve" smooth="yes"/>
      <point x="1381.0" y="991.0"/>
      <point x="1404.2" y="985.6"/>
      <point x="1432.8" y="982.6" type="curve"/>
      <point x="1469.3999999999999" y="1204.6" type="line"/>
      <point x="1423.0" y="1218.4"/>
      <point x="1377.8" y="1225.6"/>
      <point x="1334.1999999999998" y="1225.6" type="curve" smooth="yes"/>
      <point x="1110.1999999999998" y="1225.6"/>
      <point x="921.8" y="1091.8"/>
      <point x="882.1999999999999" y="856.0" type="curve" smooth="yes"/>
      <point x="851.1999999999999" y="678.2" type="line"/>
    </contour>
    <component base="c"/>
  </outline>
</glyph>
<glyph name="Dhook" format="2">
  <advance height="2479.0" width="1956.6000000000001"/>
  <unicode hex="018A"/>
  <anchor x="1014.1999999999999" y="0.0" name="bottom"/>
  <anchor x="797.4" y="784.0" name="cross"/>
  <anchor x="1283.2" y="1676.0" name="top"/>
  <outline>
    <contour>
      <point x="122.60000000000001" y="914.8" type="line"/>
      <point x="440.40000000000003" y="914.8" type="line"/>
      <point x="456.6" y="1011.4" type="line" smooth="yes"/>
      <point x="470.6" y="1100.4"/>
      <point x="513.2" y="1182.6"/>
      <point x="635.0" y="1182.6" type="curve" smooth="yes"/>
      <point x="875.4" y="1182.6" type="line"/>
      <point x="927.0" y="1489.0" type="line"/>
      <point x="686.0" y="1489.0" type="line" smooth="yes"/>
      <point x="398.0" y="1489.0"/>
      <point x="190.2" y="1334.4"/>
      <point x="149.60000000000002" y="1076.2" type="curve" smooth="yes"/>
    </contour>
    <component base="D" xOffset="461.40000000000003"/>
  </outline>
</glyph>
<glyph name="Dtopbar" format="2">
  <advance height="2479.0" width="1328.6000000000001"/>
  <unicode hex="018B"/>
  <outline>
    <contour>
      <point x="578.4" y="0.0" type="curve" smooth="yes"/>
      <point x="1124.0" y="0.0" type="line"/>
      <point x="1370.8000000000002" y="1489.0" type="line"/>
      <point x="353.4" y="1489.0" type="line"/>
      <point x="305.0" y="1197.0" type="line"/>
      <point x="963.1999999999999" y="1197.0" type="line"/>
      <point x="924.6" y="964.0" type="line"/>
      <point x="719.2" y="964.0" type="line" smooth="yes"/>
      <point x="354.2" y="964.0"/>
      <point x="99.2" y="788.8000000000001"/>
      <point x="53.0" y="511.8" type="curve" smooth="yes"/>
      <point x="3.6000000000000005" y="210.79999999999998"/>
      <point x="213.4" y="0.0"/>
    </contour>
    <contour>
      <point x="606.0" y="285.0" type="line" smooth="yes"/>
      <point x="449.4" y="285.0"/>
      <point x="385.79999999999995" y="364.59999999999997"/>
      <point x="403.2" y="467.8" type="curve" smooth="yes"/>
      <point x="423.4" y="589.4"/>
      <point x="534.4000000000001" y="685.6"/>
      <point x="691.2" y="685.6" type="curve" smooth="yes"/>
      <point x="878.4" y="685.6" type="line"/>
      <point x="812.4" y="285.0" type="line"/>
    </contour>
  </outline>
</glyph>
<glyph name="dtopbar" format="2">
  <advance height="2479.0" width="1311.2"/>
  <unicode hex="018C"/>
  <anchor x="574.6" y="0.0" name="bottom"/>
  <anchor x="1141.4" y="1280.0" name="cross"/>
  <anchor x="631.2" y="1303.0" name="top"/>
  <outline>
    <contour>
      <point x="391.0" y="1489.0" type="line"/>
      <point x="350.6" y="1245.8" type="line"/>
      <point x="1119.8000000000002" y="1245.8" type="line"/>
      <point x="1159.4" y="1489.0" type="line"/>
    </contour>
    <contour>
      <point x="1105.2" y="0.0" type="line"/>
      <point x="1352.2" y="1489.0" type="line"/>
      <point x="996.2" y="1489.0" type="line"/>
      <point x="902.8000000000001" y="925.6" type="line"/>
      <point x="895.0" y="925.6" type="line"/>
      <point x="870.4" y="1028.4"/>
      <point x="790.2" y="1132.0"/>
      <point x="613.5999999999999" y="1132.0" type="curve" smooth="yes"/>
      <point x="380.40000000000003" y="1132.0"/>
      <point x="139.6" y="952.0"/>
      <point x="74.6" y="558.4" type="curve" smooth="yes"/>
      <point x="11.599999999999994" y="177.8"/>
      <point x="179.2" y="-16.6"/>
      <point x="426.20000000000005" y="-16.6" type="curve" smooth="yes"/>
      <point x="594.8000000000001" y="-16.6"/>
      <point x="710.6" y="78.19999999999999"/>
      <point x="772.2" y="180.8" type="curve"/>
      <point x="783.4" y="180.8" type="line"/>
      <point x="752.8" y="0.0" type="line"/>
    </contour>
    <contour>
      <point x="850.0" y="559.0" type="curve" smooth="yes"/>
      <point x="820.0" y="377.8"/>
      <point x="724.4" y="261.4"/>
      <point x="595.0" y="261.4" type="curve" smooth="yes"/>
      <point x="463.20000000000005" y="261.4"/>
      <point x="409.00000000000006" y="378.4"/>
      <point x="439.20000000000005" y="559.0" type="curve" smooth="yes"/>
      <point x="469.6" y="738.0"/>
      <point x="561.0" y="853.8"/>
      <point x="692.8" y="853.8" type="curve" smooth="yes"/>
      <point x="823.4" y="853.8"/>
      <point x="880.8" y="741.0"/>
    </contour>
  </outline>
</glyph>
<glyph name="deltaturned" format="2">
  <advance height="2479.0" width="1232.6"/>
  <unicode hex="018D"/>
  <outline>
    <contour>
      <point x="449.80000000000007" y="-448.6" type="curve" smooth="yes"/>
      <point x="705.4" y="-448.6"/>
      <point x="887.8" y="-337.40000000000003"/>
      <point x="915.6" y="-163.6" type="curve" smooth="yes"/>
      <point x="935.6" y="-39.800000000000004"/>
      <point x="889.0" y="55.6"/>
      <point x="774.8" y="127.20000000000002" type="curve"/>
      <point x="777.6" y="137.0" type="line"/>
      <point x="974.0" y="185.0"/>
      <point x="1129.3999999999999" y="360.2"/>
      <point x="1167.2" y="586.4" type="curve" smooth="yes"/>
      <point x="1222.3999999999999" y="919.8"/>
      <point x="1017.4" y="1131.6"/>
      <point x="694.8" y="1131.6" type="curve" smooth="yes"/>
      <point x="367.0" y="1131.6"/>
      <point x="129.0" y="914.2"/>
      <point x="77.39999999999999" y="600.4" type="curve" smooth="yes"/>
      <point x="22.4" y="269.8"/>
      <point x="203.99999999999997" y="81.19999999999999"/>
      <point x="449.40000000000003" y="2.1999999999999975" type="curve" smooth="yes"/>
      <point x="551.0" y="-40.2"/>
      <point x="575.4" y="-72.2"/>
      <point x="571.4" y="-100.99999999999999" type="curve" smooth="yes"/>
      <point x="561.6" y="-157.4"/>
      <point x="499.40000000000003" y="-197.0"/>
      <point x="401.8" y="-197.0" type="curve" smooth="yes"/>
      <point x="348.2" y="-197.0"/>
      <point x="261.4" y="-187.0"/>
      <point x="197.00000000000003" y="-158.4" type="curve"/>
      <point x="176.40000000000003" y="-402.59999999999997" type="line"/>
      <point x="265.4" y="-431.2"/>
      <point x="351.0" y="-448.6"/>
    </contour>
    <contour>
      <point x="543.8000000000001" y="247.4" type="curve"/>
      <point x="423.8" y="272.59999999999997"/>
      <point x="406.6" y="400.0"/>
      <point x="435.8" y="579.8" type="curve" smooth="yes"/>
      <point x="454.2" y="687.0"/>
      <point x="520.6" y="865.6"/>
      <point x="684.0" y="865.6" type="curve" smooth="yes"/>
      <point x="827.2" y="865.6"/>
      <point x="826.2" y="716.4"/>
      <point x="804.4" y="591.0" type="curve" smooth="yes"/>
      <point x="772.4" y="393.0"/>
      <point x="694.6" y="250.0"/>
    </contour>
  </outline>
</glyph>
<glyph name="Schwa" format="2">
  <advance height="2479.0" width="1615.6"/>
  <unicode hex="018F"/>
  <outline>
    <contour>
      <point x="724.8000000000001" y="-20.0" type="curve" smooth="yes"/>
      <point x="1142.2" y="-20.0"/>
      <point x="1469.0" y="259.2"/>
      <point x="1545.2" y="719.4" type="curve" smooth="yes"/>
      <point x="1628.2" y="1218.0"/>
      <point x="1352.8" y="1510.0"/>
      <point x="946.6" y="1510.0" type="curve" smooth="yes"/>
      <point x="610.4" y="1510.0"/>
      <point x="321.2" y="1300.0"/>
      <point x="235.2" y="1003.2" type="curve"/>
      <point x="599.6" y="1003.2" type="line"/>
      <point x="651.6" y="1124.0"/>
      <point x="770.6" y="1194.6"/>
      <point x="923.4000000000001" y="1194.6" type="curve" smooth="yes"/>
      <point x="1130.6000000000001" y="1194.6"/>
      <point x="1231.8" y="1042.6000000000001"/>
      <point x="1186.1999999999998" y="770.4" type="curve" smooth="yes"/>
      <point x="1136.6" y="472.0"/>
      <point x="969.8" y="295.20000000000005"/>
      <point x="736.8000000000001" y="295.20000000000005" type="curve" smooth="yes"/>
      <point x="548.1999999999999" y="295.20000000000005"/>
      <point x="464.2" y="386.4"/>
      <point x="490.0" y="548.6" type="curve"/>
      <point x="424.40000000000003" y="552.2" type="line"/>
      <point x="1330.1999999999998" y="552.2" type="line"/>
      <point x="1373.8" y="814.6" type="line"/>
      <point x="188.20000000000002" y="814.6" type="line"/>
      <point x="157.60000000000002" y="629.4" type="line" smooth="yes"/>
      <point x="90.8" y="229.2"/>
      <point x="332.8" y="-20.0"/>
    </contour>
  </outline>
</glyph>
<glyph name="Eopen" format="2">
  <advance height="2479.0" width="1398.3999999999999"/>
  <unicode hex="0190"/>
  <outline>
    <contour>
      <point x="605.1999999999999" y="-23.0" type="curve" smooth="yes"/>
      <point x="954.8" y="-23.0"/>
      <point x="1214.6" y="144.0"/>
      <point x="1258.8000000000002" y="404.0" type="curve"/>
      <point x="895.4" y="404.0" type="line"/>
      <point x="883.6" y="337.2"/>
      <point x="781.8000000000001" y="292.20000000000005"/>
      <point x="653.0" y="292.20000000000005" type="curve" smooth="yes"/>
      <point x="521.6" y="292.20000000000005"/>
      <point x="444.20000000000005" y="335.8"/>
      <point x="462.40000000000003" y="439.4" type="curve" smooth="yes"/>
      <point x="478.6" y="544.4"/>
      <point x="575.1999999999999" y="610.6"/>
      <point x="715.0" y="610.6" type="curve" smooth="yes"/>
      <point x="894.5999999999999" y="610.6" type="line"/>
      <point x="925.5999999999999" y="803.4" type="line"/>
      <point x="669.4" y="803.4" type="line"/>
      <point x="338.6" y="803.4"/>
      <point x="132.4" y="673.6"/>
      <point x="92.60000000000001" y="430.59999999999997" type="curve" smooth="yes"/>
      <point x="44.00000000000001" y="143.2"/>
      <point x="252.4" y="-23.0"/>
    </contour>
    <contour>
      <point x="671.8000000000001" y="708.6" type="curve"/>
      <point x="909.8" y="708.6" type="line"/>
      <point x="942.1999999999999" y="905.2" type="line"/>
      <point x="744.8000000000001" y="905.2" type="line" smooth="yes"/>
      <point x="626.4" y="905.2"/>
      <point x="571.4" y="955.8000000000001"/>
      <point x="584.4" y="1037.0" type="curve" smooth="yes"/>
      <point x="599.8" y="1131.8000000000002"/>
      <point x="694.2" y="1194.6"/>
      <point x="832.1999999999999" y="1194.6" type="curve" smooth="yes"/>
      <point x="937.4" y="1194.6"/>
      <point x="995.0" y="1154.6"/>
      <point x="985.4000000000001" y="1092.0" type="curve"/>
      <point x="1350.0" y="1092.0" type="line"/>
      <point x="1389.4" y="1336.8"/>
      <point x="1178.4" y="1510.0"/>
      <point x="825.0" y="1510.0" type="curve" smooth="yes"/>
      <point x="503.4" y="1510.0"/>
      <point x="269.6" y="1362.1999999999998"/>
      <point x="229.2" y="1119.6" type="curve" smooth="yes"/>
      <point x="187.4" y="866.2"/>
      <point x="371.2" y="708.8"/>
    </contour>
  </outline>
</glyph>
<glyph name="Fhook" format="2">
  <advance height="2479.0" width="1261.8"/>
  <unicode hex="0191"/>
  <anchor x="600.8" y="12.0" name="bottom"/>
  <anchor x="307.20000000000005" y="269.8" name="cross"/>
  <anchor x="878.4" y="1676.0" name="top"/>
  <outline>
    <contour>
      <point x="84.6" y="0.0" type="line"/>
      <point x="77.19999999999999" y="-51.2" type="line" smooth="yes"/>
      <point x="63.199999999999996" y="-129.79999999999998"/>
      <point x="-16.400000000000006" y="-146.39999999999998"/>
      <point x="-89.4" y="-146.39999999999998" type="curve" smooth="yes"/>
      <point x="-110.60000000000001" y="-146.39999999999998"/>
      <point x="-140.2" y="-148.2"/>
      <point x="-155.2" y="-145.2" type="curve"/>
      <point x="-199.79999999999998" y="-412.4" type="line"/>
      <point x="-165.20000000000002" y="-419.0"/>
      <point x="-86.6" y="-419.0"/>
      <point x="-48.8" y="-419.0" type="curve" smooth="yes"/>
      <point x="157.6" y="-419.0"/>
      <point x="382.2" y="-370.6"/>
      <point x="435.8" y="-51.8" type="curve" smooth="yes"/>
      <point x="444.8" y="0.0" type="line"/>
    </contour>
    <component base="F" xOffset="64.80000000000001"/>
  </outline>
</glyph>
<glyph name="florin" format="2">
  <advance height="2479.0" width="1016.6"/>
  <unicode hex="0192"/>
  <outline>
    <contour>
      <point x="962.2" y="1082.0" type="line"/>
      <point x="739.8" y="1082.0" type="line"/>
      <point x="752.8" y="1167.4" type="line" smooth="yes"/>
      <point x="767.4" y="1246.6"/>
      <point x="828.2" y="1287.4"/>
      <point x="913.2" y="1287.4" type="curve" smooth="yes"/>
      <point x="965.8000000000001" y="1287.4"/>
      <point x="991.8000000000001" y="1283.8"/>
      <point x="1020.0" y="1277.8" type="curve"/>
      <point x="1087.6000000000001" y="1537.2" type="line"/>
      <point x="1035.0" y="1547.4"/>
      <point x="982.4000000000001" y="1556.0"/>
      <point x="916.8" y="1556.0" type="curve" smooth="yes"/>
      <point x="642.4" y="1556.0"/>
      <point x="455.6" y="1421.6"/>
      <point x="412.0" y="1167.4" type="curve" smooth="yes"/>
      <point x="399.0" y="1082.0" type="line"/>
      <point x="234.8" y="1082.0" type="line"/>
      <point x="195.20000000000002" y="838.8" type="line"/>
      <point x="359.2" y="838.8" type="line"/>
      <point x="219.0" y="-9.799999999999997" type="line" smooth="yes"/>
      <point x="204.8" y="-93.8"/>
      <point x="178.4" y="-147.0"/>
      <point x="82.8" y="-147.0" type="curve" smooth="yes"/>
      <point x="54.400000000000006" y="-147.0"/>
      <point x="14.800000000000008" y="-141.6"/>
      <point x="-8.399999999999991" y="-135.8" type="curve"/>
      <point x="-67.8" y="-404.0" type="line"/>
      <point x="-8.199999999999989" y="-416.0"/>
      <point x="38.2" y="-419.0"/>
      <point x="91.19999999999999" y="-419.0" type="curve" smooth="yes"/>
      <point x="343.00000000000006" y="-419.0"/>
      <point x="515.5999999999999" y="-276.2"/>
      <point x="559.8" y="-9.799999999999997" type="curve" smooth="yes"/>
      <point x="700.1999999999999" y="838.8" type="line"/>
      <point x="922.4" y="838.8" type="line"/>
    </contour>
  </outline>
</glyph>
<glyph name="Ghook" format="2">
  <advance height="2479.0" width="1752.6000000000001"/>
  <unicode hex="0193"/>
  <anchor x="704.8000000000001" y="4.800000000000001" name="bottom"/>
  <anchor x="984.4" y="1676.0" name="top"/>
  <outline>
    <contour>
      <point x="1529.8" y="1003.2" type="line"/>
      <point x="1572.0" y="1253.0" type="line" smooth="yes"/>
      <point x="1592.6" y="1376.2"/>
      <point x="1694.0" y="1397.6"/>
      <point x="1798.6000000000001" y="1397.6" type="curve" smooth="yes"/>
      <point x="1830.4" y="1397.6"/>
      <point x="1860.0" y="1392.2"/>
      <point x="1893.0" y="1389.4" type="curve"/>
      <point x="1939.1999999999998" y="1669.6" type="line"/>
      <point x="1884.2" y="1683.4"/>
      <point x="1834.1999999999998" y="1690.6"/>
      <point x="1780.0" y="1690.6" type="curve" smooth="yes"/>
      <point x="1518.0" y="1690.6"/>
      <point x="1252.0" y="1536.2"/>
      <point x="1204.2" y="1253.0" type="curve" smooth="yes"/>
      <point x="1162.8" y="1003.2" type="line"/>
    </contour>
    <component base="G"/>
  </outline>
</glyph>
<glyph name="Gamma-latin" format="2">
  <advance height="2479.0" width="1603.2"/>
  <unicode hex="0194"/>
  <outline>
    <contour>
      <point x="239.0" y="1489.0" type="line"/>
      <point x="700.0" y="157.8" type="line" smooth="yes"/>
      <point x="735.8" y="51.0"/>
      <point x="750.4" y="-52.0"/>
      <point x="738.4" y="-132.39999999999998" type="curve" smooth="yes"/>
      <point x="730.8" y="-180.2"/>
      <point x="710.5999999999999" y="-204.6"/>
      <point x="677.8" y="-204.6" type="curve" smooth="yes"/>
      <point x="644.2" y="-204.6"/>
      <point x="631.1999999999999" y="-180.0"/>
      <point x="637.8" y="-134.0" type="curve" smooth="yes"/>
      <point x="649.8" y="-53.599999999999994"/>
      <point x="702.1999999999999" y="48.2"/>
      <point x="774.6" y="157.8" type="curve" smooth="yes"/>
      <point x="1675.3999999999999" y="1489.0" type="line"/>
      <point x="1262.2" y="1489.0" type="line"/>
      <point x="711.8" y="606.8" type="line" smooth="yes"/>
      <point x="354.0" y="40.599999999999994"/>
      <point x="295.0" y="-59.0"/>
      <point x="280.40000000000003" y="-151.6" type="curve" smooth="yes"/>
      <point x="250.4" y="-332.6"/>
      <point x="395.80000000000007" y="-442.0"/>
      <point x="636.8" y="-442.0" type="curve" smooth="yes"/>
      <point x="875.4" y="-442.0"/>
      <point x="1051.4" y="-323.0"/>
      <point x="1079.0" y="-160.4" type="curve" smooth="yes"/>
      <point x="1099.0" y="-38.599999999999994"/>
      <point x="1036.0" y="199.0"/>
      <point x="911.6" y="606.0" type="curve" smooth="yes"/>
      <point x="649.8000000000001" y="1489.0" type="line"/>
    </contour>
  </outline>
</glyph>
<glyph name="hv" format="2">
  <advance height="2479.0" width="2048.6"/>
  <unicode hex="0195"/>
  <outline>
    <contour>
      <point x="22.4" y="0.0" type="line"/>
      <point x="377.6" y="0.0" type="line"/>
      <point x="483.6" y="636.8" type="line" smooth="yes"/>
      <point x="505.8" y="764.6"/>
      <point x="594.4" y="840.2"/>
      <point x="706.4" y="840.2" type="curve" smooth="yes"/>
      <point x="820.0" y="840.2"/>
      <point x="874.0" y="766.4"/>
      <point x="853.8" y="642.0" type="curve" smooth="yes"/>
      <point x="839.4" y="559.0" type="line"/>
      <point x="1195.4" y="559.0" type="line"/>
      <point x="1221.4" y="712.4" type="line" smooth="yes"/>
      <point x="1262.8" y="965.2"/>
      <point x="1136.6000000000001" y="1132.0"/>
      <point x="903.1999999999999" y="1132.0" type="curve" smooth="yes"/>
      <point x="734.2" y="1132.0"/>
      <point x="602.6" y="1049.4"/>
      <point x="530.2" y="912.6" type="curve"/>
      <point x="518.6" y="912.6" type="line"/>
      <point x="613.4" y="1489.0" type="line"/>
      <point x="269.4" y="1489.0" type="line"/>
    </contour>
    <contour>
      <point x="1220.4" y="-20.0" type="curve" smooth="yes"/>
      <point x="1657.4" y="-20.0"/>
      <point x="1887.8" y="324.8"/>
      <point x="2000.6" y="1002.8" type="curve" smooth="yes"/>
      <point x="2020.2" y="1117.0" type="line"/>
      <point x="1664.4" y="1117.0" type="line"/>
      <point x="1645.6" y="1002.8" type="line" smooth="yes"/>
      <point x="1566.0" y="528.2"/>
      <point x="1450.3999999999999" y="270.20000000000005"/>
      <point x="1281.6" y="270.20000000000005" type="curve" smooth="yes"/>
      <point x="1206.3999999999999" y="270.20000000000005"/>
      <point x="1154.6" y="318.4"/>
      <point x="1174.6" y="433.2" type="curve" smooth="yes"/>
      <point x="1195.4" y="559.0" type="line"/>
      <point x="839.4" y="559.0" type="line"/>
      <point x="819.4" y="433.2" type="line" smooth="yes"/>
      <point x="773.0" y="155.0"/>
      <point x="907.8000000000001" y="-20.0"/>
    </contour>
  </outline>
</glyph>
<glyph name="Khook" format="2">
  <advance height="2479.0" width="1532.0"/>
  <unicode hex="0198"/>
  <outline>
    <contour>
      <point x="19.799999999999997" y="0.0" type="line"/>
      <point x="379.2" y="0.0" type="line"/>
      <point x="437.8" y="352.59999999999997" type="line"/>
      <point x="649.2" y="540.8" type="line"/>
      <point x="972.0" y="0.0" type="line"/>
      <point x="1402.0" y="0.0" type="line"/>
      <point x="921.8" y="796.2" type="line"/>
      <point x="1305.8" y="1132.4" type="line" smooth="yes"/>
      <point x="1379.2" y="1195.4"/>
      <point x="1432.8" y="1228.6"/>
      <point x="1513.4" y="1185.2" type="curve"/>
      <point x="1665.4" y="1437.6" type="line"/>
      <point x="1474.0" y="1556.8"/>
      <point x="1273.8" y="1522.0"/>
      <point x="1080.0" y="1353.2" type="curve" smooth="yes"/>
      <point x="545.1999999999999" y="880.6" type="line"/>
      <point x="525.8" y="880.6" type="line"/>
      <point x="627.0" y="1489.0" type="line"/>
      <point x="267.0" y="1489.0" type="line"/>
    </contour>
  </outline>
</glyph>
<glyph name="khook" format="2">
  <advance height="2479.0" width="1211.8"/>
  <unicode hex="0199"/>
  <outline>
    <contour>
      <point x="736.4" y="0.0" type="line"/>
      <point x="1120.2" y="0.0" type="line"/>
      <point x="793.4" y="640.0" type="line"/>
      <point x="1287.2" y="1117.0" type="line"/>
      <point x="878.8" y="1117.0" type="line"/>
      <point x="517.6" y="762.8" type="line"/>
      <point x="502.6" y="762.8" type="line"/>
      <point x="551.2" y="1059.2" type="line"/>
      <point x="195.2" y="1059.2" type="line"/>
      <point x="20.0" y="0.0" type="line"/>
      <point x="375.20000000000005" y="0.0" type="line"/>
      <point x="422.6" y="278.6" type="line"/>
      <point x="538.6" y="387.0" type="line"/>
    </contour>
    <contour>
      <point x="531.4000000000001" y="943.4" type="line"/>
      <point x="564.0" y="1142.8" type="line" smooth="yes"/>
      <point x="578.6" y="1219.8"/>
      <point x="660.8" y="1237.8"/>
      <point x="734.6" y="1237.8" type="curve" smooth="yes"/>
      <point x="762.8000000000001" y="1237.8"/>
      <point x="790.0" y="1235.0"/>
      <point x="817.1999999999999" y="1232.0" type="curve"/>
      <point x="860.0" y="1498.6" type="line"/>
      <point x="820.4" y="1502.8"/>
      <point x="759.2" y="1510.0"/>
      <point x="684.2" y="1510.0" type="curve" smooth="yes"/>
      <point x="486.8" y="1510.0"/>
      <point x="262.6" y="1462.8"/>
      <point x="209.0" y="1142.8" type="curve" smooth="yes"/>
      <point x="176.2" y="943.4" type="line"/>
    </contour>
  </outline>
</glyph>
<glyph name="lambdastroke" format="2">
  <advance height="2479.0" width="1259.0"/>
  <unicode hex="019B"/>
  <outline>
    <contour>
      <point x="275.2" y="926.0" type="line"/>
      <point x="984.5999999999999" y="1137.6000000000001" type="line"/>
      <point x="1020.0" y="1341.6000000000001" type="line"/>
      <point x="308.8" y="1134.2" type="line"/>
    </contour>
    <component base="lambda"/>
  </outline>
</glyph>
<glyph name="Mturned" format="2">
  <advance height="2479.0" width="1953.2"/>
  <unicode hex="019C"/>
  <outline>
    <contour>
      <point x="425.6" y="-22.2" type="curve" smooth="yes"/>
      <point x="724.8" y="-22.2"/>
      <point x="886.2" y="185.20000000000002"/>
      <point x="937.8000000000001" y="494.4" type="curve"/>
      <point x="838.5999999999999" y="514.6" type="line"/>
      <point x="815.1999999999999" y="369.59999999999997"/>
      <point x="726.4" y="251.4"/>
      <point x="568.8000000000001" y="251.4" type="curve" smooth="yes"/>
      <point x="469.6" y="251.4"/>
      <point x="428.0" y="296.40000000000003"/>
      <point x="446.4" y="407.2" type="curve" smooth="yes"/>
      <point x="626.0" y="1489.0" type="line"/>
      <point x="266.0" y="1489.0" type="line"/>
      <point x="90.6" y="430.40000000000003" type="line" smooth="yes"/>
      <point x="38.4" y="112.39999999999999"/>
      <point x="184.8" y="-22.2"/>
    </contour>
    <contour>
      <point x="1110.3999999999999" y="-22.2" type="curve" smooth="yes"/>
      <point x="1393.0" y="-22.2"/>
      <point x="1560.0" y="192.4"/>
      <point x="1610.2" y="494.4" type="curve"/>
      <point x="1515.8" y="514.6" type="line"/>
      <point x="1492.2" y="372.0"/>
      <point x="1404.2" y="251.4"/>
      <point x="1246.3999999999999" y="251.4" type="curve" smooth="yes"/>
      <point x="1147.2" y="251.4"/>
      <point x="1106.6" y="296.40000000000003"/>
      <point x="1124.8" y="407.2" type="curve"/>
      <point x="1303.8" y="1489.0" type="line"/>
      <point x="944.4" y="1489.0" type="line"/>
      <point x="769.2" y="430.40000000000003" type="line"/>
      <point x="715.2" y="109.39999999999999"/>
      <point x="888.8000000000001" y="-22.2"/>
    </contour>
    <contour>
      <point x="1388.0" y="0.0" type="line"/>
      <point x="1748.0" y="0.0" type="line"/>
      <point x="1994.2" y="1489.0" type="line"/>
      <point x="1635.0" y="1489.0" type="line"/>
    </contour>
  </outline>
</glyph>
<glyph name="Nhookleft" format="2">
  <advance height="2479.0" width="1537.8"/>
  <unicode hex="019D"/>
  <anchor x="699.2" y="0.0" name="bottom"/>
  <anchor x="1386.2" y="0.0" name="right"/>
  <anchor x="978.2" y="1676.0" name="top"/>
  <outline>
    <contour>
      <point x="64.19999999999999" y="0.0" type="line"/>
      <point x="55.39999999999999" y="-51.2" type="line" smooth="yes"/>
      <point x="43.19999999999999" y="-129.0"/>
      <point x="-36.20000000000001" y="-146.39999999999998"/>
      <point x="-112.8" y="-146.39999999999998" type="curve" smooth="yes"/>
      <point x="-131.0" y="-146.39999999999998"/>
      <point x="-160.60000000000002" y="-148.2"/>
      <point x="-177.6" y="-145.2" type="curve"/>
      <point x="-222.2" y="-412.4" type="line"/>
      <point x="-185.6" y="-418.6"/>
      <point x="-102.60000000000001" y="-419.6"/>
      <point x="-60.80000000000001" y="-419.6" type="curve" smooth="yes"/>
      <point x="139.0" y="-419.6"/>
      <point x="358.6" y="-375.6"/>
      <point x="414.00000000000006" y="-51.8" type="curve" smooth="yes"/>
      <point x="423.40000000000003" y="0.0" type="line"/>
    </contour>
    <component base="N" xOffset="44.4"/>
  </outline>
</glyph>
<glyph name="Ohorn" format="2">
  <advance height="2479.0" width="1692.2"/>
  <unicode hex="01A0"/>
  <anchor x="716.4" y="1.1999999999999993" name="bottom"/>
  <anchor x="913.0" y="4.800000000000001" name="ogonek"/>
  <anchor x="326.59999999999997" y="1489.0" name="tonos"/>
  <anchor x="993.4" y="1676.0" name="top"/>
  <outline>
    <contour>
      <point x="1624.6000000000001" y="1550.6" type="line"/>
      <point x="1593.4" y="1365.6"/>
      <point x="1540.0" y="1257.0"/>
      <point x="1401.8000000000002" y="1257.0" type="curve"/>
      <point x="1374.0" y="1091.8" type="line"/>
      <point x="1643.2" y="1091.8"/>
      <point x="1785.4" y="1260.6"/>
      <point x="1833.4" y="1550.6" type="curve"/>
    </contour>
    <component base="O"/>
  </outline>
</glyph>
<glyph name="ohorn" format="2">
  <advance height="2479.0" width="1318.3999999999999"/>
  <unicode hex="01A1"/>
  <anchor x="541.4000000000001" y="0.0" name="bottom"/>
  <anchor x="699.8000000000001" y="0.0" name="ogonek"/>
  <anchor x="756.6" y="1303.0" name="top"/>
  <outline>
    <contour>
      <point x="1228.0" y="1175.4" type="line"/>
      <point x="1200.4" y="1003.0"/>
      <point x="1147.0" y="899.8"/>
      <point x="989.1999999999999" y="899.8" type="curve"/>
      <point x="966.5999999999999" y="775.4" type="line"/>
      <point x="1234.2" y="775.4"/>
      <point x="1379.0" y="922.4"/>
      <point x="1420.8" y="1175.4" type="curve"/>
    </contour>
    <component base="o"/>
  </outline>
</glyph>
<glyph name="Oi" format="2">
  <advance height="2479.0" width="1966.0"/>
  <unicode hex="01A2"/>
  <outline>
    <contour>
      <point x="1413.4" y="924.6" type="line" name="hr00"/>
      <point x="1071.4" y="924.6" type="line"/>
      <point x="970.4000000000001" y="322.0" type="line"/>
      <point x="923.8" y="289.6"/>
      <point x="842.0" y="261.8"/>
      <point x="742.4000000000001" y="261.8" type="curve" smooth="yes"/>
      <point x="491.19999999999993" y="261.8"/>
      <point x="435.4" y="429.2"/>
      <point x="478.6" y="686.8" type="curve" smooth="yes"/>
      <point x="493.8" y="782.8" type="line"/>
      <point x="134.20000000000002" y="779.8" type="line"/>
      <point x="118.2" y="686.8" type="line" smooth="yes"/>
      <point x="44.60000000000001" y="242.6"/>
      <point x="253.0" y="-20.0"/>
      <point x="682.6" y="-20.0" type="curve" smooth="yes"/>
      <point x="963.8" y="-20.0"/>
      <point x="1190.8" y="88.8"/>
      <point x="1289.8" y="181.2" type="curve"/>
    </contour>
    <contour>
      <point x="1476.6000000000001" y="1308.0" type="line"/>
      <point x="1409.3999999999999" y="1401.6"/>
      <point x="1220.8" y="1510.0"/>
      <point x="939.0" y="1510.0" type="curve" smooth="yes"/>
      <point x="507.8" y="1510.0"/>
      <point x="211.20000000000002" y="1250.6"/>
      <point x="137.6" y="802.4" type="curve" smooth="yes"/>
      <point x="119.4" y="697.4" type="line"/>
      <point x="480.0" y="695.0" type="line"/>
      <point x="497.4" y="802.4" type="line" smooth="yes"/>
      <point x="542.4" y="1074.2"/>
      <point x="642.8" y="1227.4"/>
      <point x="905.0" y="1227.4" type="curve" smooth="yes"/>
      <point x="987.1999999999999" y="1227.4"/>
      <point x="1068.1999999999998" y="1209.8"/>
      <point x="1111.8" y="1168.8" type="curve"/>
      <point x="1012.4000000000001" y="571.6" type="line"/>
      <point x="1356.0" y="576.4" type="line"/>
    </contour>
    <contour>
      <point x="2003.0" y="1489.0" type="line"/>
      <point x="1748.8" y="1489.0" type="line"/>
      <point x="1282.8" y="1287.2" type="line"/>
      <point x="1219.8" y="907.0" type="line"/>
      <point x="1595.6000000000001" y="1070.4" type="line"/>
      <point x="1349.2" y="-419.0" type="line"/>
      <point x="1687.8" y="-419.0" type="line"/>
    </contour>
  </outline>
</glyph>
<glyph name="oi" format="2">
  <advance height="2479.0" width="1605.6"/>
  <unicode hex="01A3"/>
  <outline>
    <contour>
      <point x="538.0" y="253.60000000000002" type="curve" smooth="yes"/>
      <point x="379.0" y="253.60000000000002"/>
      <point x="381.2" y="388.6"/>
      <point x="404.20000000000005" y="529.8" type="curve" smooth="yes"/>
      <point x="407.8" y="552.2" type="line" smooth="yes"/>
      <point x="434.6" y="723.0"/>
      <point x="479.20000000000005" y="860.0"/>
      <point x="632.4" y="860.0" type="curve" smooth="yes"/>
      <point x="698.8000000000001" y="860.0"/>
      <point x="735.4" y="838.0"/>
      <point x="757.2" y="797.0" type="curve"/>
      <point x="726.4" y="611.4" type="line"/>
      <point x="1062.6" y="583.4" type="line"/>
      <point x="1107.2" y="853.8" type="line"/>
      <point x="1068.6000000000001" y="969.0"/>
      <point x="931.4" y="1132.0"/>
      <point x="690.0" y="1132.0" type="curve" smooth="yes"/>
      <point x="337.8" y="1132.0"/>
      <point x="124.8" y="895.2"/>
      <point x="69.2" y="552.2" type="curve" smooth="yes"/>
      <point x="65.6" y="529.8" type="line" smooth="yes"/>
      <point x="14.2" y="213.60000000000002"/>
      <point x="148.2" y="-20.0"/>
      <point x="498.20000000000005" y="-20.0" type="curve" smooth="yes"/>
      <point x="764.0" y="-20.0"/>
      <point x="905.8000000000001" y="92.80000000000001"/>
      <point x="1002.4" y="225.0" type="curve"/>
      <point x="1074.2" y="658.4" type="line"/>
      <point x="734.0" y="658.4" type="line"/>
      <point x="675.0" y="299.8" type="line"/>
      <point x="642.6" y="269.0"/>
      <point x="596.6" y="253.60000000000002"/>
    </contour>
    <contour>
      <point x="1590.6" y="1117.0" type="line"/>
      <point x="1364.0" y="1117.0" type="line"/>
      <point x="978.4" y="967.0" type="line"/>
      <point x="928.2" y="662.8" type="line"/>
      <point x="1188.2" y="746.8000000000001" type="line"/>
      <point x="996.0" y="-419.0" type="line"/>
      <point x="1338.0" y="-419.0" type="line"/>
    </contour>
  </outline>
</glyph>
<glyph name="Phook" format="2">
  <advance height="2479.0" width="1791.2"/>
  <unicode hex="01A4"/>
  <anchor x="700.6" y="1489.0" name="tonos"/>
  <anchor x="1298.8" y="1676.0" name="top"/>
  <outline>
    <contour>
      <point x="440.40000000000003" y="914.8" type="line"/>
      <point x="456.6" y="1011.4" type="line" smooth="yes"/>
      <point x="470.6" y="1100.4"/>
      <point x="516.6" y="1199.4"/>
      <point x="639.8" y="1199.4" type="curve" smooth="yes"/>
      <point x="880.1999999999999" y="1199.4" type="line"/>
      <point x="927.0" y="1489.0" type="line"/>
      <point x="686.0" y="1489.0" type="line" smooth="yes"/>
      <point x="396.6" y="1489.0"/>
      <point x="190.4" y="1334.4"/>
      <point x="149.60000000000002" y="1076.2" type="curve" smooth="yes"/>
      <point x="122.60000000000001" y="914.8" type="line"/>
    </contour>
    <component base="P" xOffset="456.6"/>
  </outline>
</glyph>
<glyph name="phook" format="2">
  <advance height="2479.0" width="1311.2"/>
  <unicode hex="01A5"/>
  <anchor x="136.79999999999998" y="-404.6" name="bottom"/>
  <anchor x="1190.1999999999998" y="-480.6" name="bottom0315"/>
  <anchor x="174.0" y="-163.0" name="cross"/>
  <anchor x="840.2" y="1303.0" name="top"/>
  <outline>
    <contour>
      <point x="557.6" y="1117.0" type="line"/>
      <point x="565.2" y="1171.0"/>
      <point x="599.8000000000001" y="1196.2"/>
      <point x="677.6" y="1193.8" type="curve" smooth="yes"/>
      <point x="725.2" y="1191.4"/>
      <point x="771.6" y="1181.4"/>
      <point x="786.4" y="1176.8" type="curve"/>
      <point x="826.2" y="1403.4" type="line"/>
      <point x="792.8000000000001" y="1411.8"/>
      <point x="731.8" y="1423.6"/>
      <point x="651.0" y="1423.6" type="curve" smooth="yes"/>
      <point x="374.0" y="1423.6"/>
      <point x="241.8" y="1339.8"/>
      <point x="206.0" y="1117.0" type="curve"/>
    </contour>
    <component base="p"/>
  </outline>
</glyph>
